<?xml version="1.0" encoding="utf-8"?>
<!-- Generator: Adobe Illustrator 23.1.0, SVG Export Plug-In . SVG Version: 6.00 Build 0)  -->
<svg version="1.1" id="Layer_1" xmlns="http://www.w3.org/2000/svg" xmlns:xlink="http://www.w3.org/1999/xlink" x="0px" y="0px"
	 viewBox="0 0 561 414" style="enable-background:new 0 0 561 414;" xml:space="preserve">
<style type="text/css">
	.st0{fill:#CECECE;}
	.st1{fill:#FF7600;}
	.st2{fill:#E66A00;}
	.st3{fill:#FFFFFF;}
	.st4{fill:#EFEFEF;}
	.st5{opacity:0.3;fill:none;stroke:#000000;stroke-width:0.75;stroke-linecap:round;stroke-linejoin:round;stroke-miterlimit:10;}
	.st6{fill:none;stroke:#000000;stroke-width:2;stroke-linecap:round;stroke-linejoin:round;stroke-miterlimit:10;}
	.st7{fill:#B5B5B5;}
	.st8{fill:none;stroke:#000000;stroke-miterlimit:10;}
	.st9{fill:none;stroke:#000000;stroke-miterlimit:2;}
	.st10{opacity:0.6;fill:#ADADAD;}
	.st11{fill:#CCCCCC;}
	.st12{fill:#686868;}
</style>
<g>
	<path class="st0" d="M343.38,54.19c33.96-64.32,138.58-54.34,189.24,2.51s26.29,145.52-30.01,162.62
		C421.75,243.87,302.28,132.03,343.38,54.19z"/>
	<path class="st1" d="M204.92,328.17c-146.55-18.8-244-160.38-190.41-264.91C67.76-40.59,165.02,13.67,227.99,29.7
		c67.23,17.12,130.73,8.36,186.14,45.93C484.66,123.45,487.16,364.38,204.92,328.17z"/>
	<path class="st2" d="M414.13,75.63c-24.04-16.3-49.61-23.88-76.34-28.63c-1.54,2.29-2.98,4.68-4.31,7.19
		c-33.72,63.87,40.66,150.63,113.11,166.15C465.01,161.87,446.93,97.87,414.13,75.63z"/>
</g>
<g>
	<path d="M395.65,246.6H258.74c-2.03,0-3.67-1.64-3.67-3.67V39.1c0-2.76,2.23-4.99,4.99-4.99h134.28c2.76,0,4.99,2.23,4.99,4.99
		v203.83C399.32,244.96,397.68,246.6,395.65,246.6z"/>
	<path class="st3" d="M389.79,235.89H252.91c-2.04,0-3.69-1.65-3.69-3.69V26.06c0-2.77,2.24-5.01,5.01-5.01h134.23
		c2.77,0,5.01,2.24,5.01,5.01v206.15C393.48,234.24,391.83,235.89,389.79,235.89z"/>
	<path class="st4" d="M389.9,235.89H252.8c-1.98,0-3.58-1.6-3.58-3.58V34.11h144.26v198.21
		C393.48,234.29,391.88,235.89,389.9,235.89z"/>
	<line class="st5" x1="393.76" y1="34.05" x2="249.22" y2="34.05"/>
	<g>
		<circle class="st6" cx="256.82" cy="27.76" r="0.53"/>
		<circle class="st6" cx="262.16" cy="27.76" r="0.53"/>
		<circle class="st6" cx="267.51" cy="27.76" r="0.53"/>
	</g>
</g>
<g>
	<path d="M267.85,173.77H162.34c-2.03,0-3.67-1.64-3.67-3.67V77.97c0-2.76,2.23-4.99,4.99-4.99h102.88c2.76,0,4.99,2.23,4.99,4.99
		v92.13C271.52,172.12,269.88,173.77,267.85,173.77z"/>
	<path class="st3" d="M261.99,163.06H156.51c-2.04,0-3.69-1.65-3.69-3.69V64.93c0-2.77,2.24-5.01,5.01-5.01h102.83
		c2.77,0,5.01,2.24,5.01,5.01v94.45C265.68,161.41,264.03,163.06,261.99,163.06z"/>
	<line class="st5" x1="265.96" y1="72.92" x2="152.82" y2="72.92"/>
	<g>
		<circle class="st6" cx="160.42" cy="66.62" r="0.53"/>
		<circle class="st6" cx="165.76" cy="66.62" r="0.53"/>
		<circle class="st6" cx="171.11" cy="66.62" r="0.53"/>
	</g>
</g>
<g>
	<path d="M440.96,210.67h-82.2c-2.03,0-3.67-1.64-3.67-3.67v-93.16c0-2.76,2.23-4.99,4.99-4.99h79.56c2.76,0,4.99,2.23,4.99,4.99
		V207C444.63,209.03,442.99,210.67,440.96,210.67z"/>
	<path class="st3" d="M435.1,199.97h-82.17c-2.04,0-3.69-1.65-3.69-3.69v-95.47c0-2.77,2.24-5.01,5.01-5.01h79.51
		c2.77,0,5.01,2.24,5.01,5.01v95.47C438.79,198.32,437.14,199.97,435.1,199.97z"/>
	<line class="st5" x1="439.07" y1="108.8" x2="349.25" y2="108.8"/>
	<g>
		<circle class="st6" cx="356.85" cy="102.5" r="0.53"/>
		<circle class="st6" cx="362.19" cy="102.5" r="0.53"/>
		<circle class="st6" cx="367.54" cy="102.5" r="0.53"/>
	</g>
</g>
<path class="st7" d="M217.91,142.55c-0.06-1.26-0.1-2.26,0.3-2.65c0.19-0.18,0.51-0.24,0.95-0.19c2.5,0.26,5.91,2,6.72,2.94
	c0.76,0.89,0.47,6.39,0.22,11.25c-0.16,2.99-2.66,15.43-4.87,26.41c-1.25,6.2-2.43,12.08-3.14,15.99c-0.89-2.34-1.84-4.84-2.66-6.97
	l0.12,0.01c1.21-11.26,2.5-35.63,2.25-42.7C218.02,145.11,217.96,143.69,217.91,142.55z"/>
<path class="st7" d="M192.95,221.65c-0.51,0.19-0.95,0.41-1.34,0.6c-0.76,0.37-1.31,0.65-1.81,0.46c-0.7-0.25-1.47-1.44-2.59-3.96
	c-0.84-1.89-2.41-5.82-4.67-11.7c1.14-1.22,0.76-2.71,0.26-4.59c-0.08-0.32-0.17-0.64-0.25-0.99l-0.25,0.06
	c1.76-1.52,3.62-3.64,5.2-5.46c1.02-1.17,1.9-2.18,2.53-2.77c0.68-0.64,1.68-1.77,2.73-2.96c2.09-2.37,4.69-5.33,5.81-5.5
	c1.14-0.18,4.2,0.05,7.16,0.27c1.62,0.12,3.14,0.23,4.35,0.28c1.47,0.06,2.44-0.1,3.11-0.49c0.5,1.36,0.91,2.47,1.27,3.36
	c1.02,2.58,2.32,6.03,3.47,9.07c1.48,3.91,2.76,7.29,3.24,8.33c0.42,0.91,0.9,1.95,0.5,3.02c-0.41,1.09-1.67,2.09-3.83,3.05
	C212.37,214.13,195.52,220.67,192.95,221.65z"/>
<path class="st3" d="M212.83,214.35c0.69,4.93,1.76,13.05,2.62,20.24c-4.87,0.18-11.08,0.25-17.24,0.22
	c0.24-2.12,0.49-4.33,0.74-6.53c0.36-3.23,0.71-6.32,1.01-8.82C203.94,217.9,208.88,215.96,212.83,214.35z"/>
<path class="st7" d="M172.41,180.28c-0.9-2.67-1.68-4.98-2.15-5.6c-0.29-0.38-0.38-0.75-0.29-1.13c0.19-0.84,1.27-1.77,3.2-2.76
	c3.42-1.76,24.63-10.19,27.07-10.85c2.5-0.68,3.76-1.03,5.56,3.84c0.74,2,1.9,5.37,3.14,8.95l0.19,0.56
	c-0.18-0.04-0.35-0.06-0.52-0.07c-2.69-0.13-9.85,1.45-13.2,3.19c-3.01,1.57-14.01,8.63-18.77,11.95c-0.68-0.83-1.21-1.24-1.62-1.24
	c-0.04,0-0.09,0-0.13,0l-0.11-0.27C174,185,173.15,182.49,172.41,180.28z"/>
<path class="st3" d="M215.12,188.59c-0.07-0.17-0.14-0.35-0.2-0.51c-0.36-0.92-0.79-2.06-1.31-3.48c0.7-0.66,0.99-1.74,1.27-3.33
	c0.26-1.48-0.41-3.4-1.8-5.15c-1.08-1.35-2.36-2.32-3.53-2.71l0.12-0.04l-0.28-0.8c-1.23-3.58-2.4-6.96-3.14-8.96
	c-1.95-5.29-3.62-4.84-6.16-4.14c-0.9,0.25-4.15,1.47-8.12,3.01c-0.46-2.82-1.15-6.33-1.81-9.73c-0.47-2.38-0.92-4.7-1.28-6.68
	c2.4,0.94,8.81,2.52,15.8,2.52c4.26,0,8.74-0.6,12.65-2.28c-0.01,0.11-0.02,0.21-0.03,0.32
	C217.54,153.58,216.31,177.06,215.12,188.59z"/>
<path class="st3" d="M195.63,176.83c3.2-1.67,10.34-3.28,12.94-3.14c1.23,0.06,2.85,1.13,4.12,2.73c1.3,1.64,1.94,3.42,1.7,4.76
	c-0.55,3.08-1.04,3.85-4.29,3.72c-1.2-0.05-2.72-0.16-4.33-0.28c-2.99-0.22-6.08-0.45-7.27-0.27c-1.29,0.2-3.85,3.1-6.1,5.66
	c-1.04,1.19-2.03,2.31-2.7,2.93c-0.65,0.61-1.54,1.63-2.57,2.81c-2.19,2.51-4.89,5.62-7.09,6.82c-2.72-4.22-4.83-10.1-3.72-13.42
	C180.7,186.05,192.5,178.46,195.63,176.83z"/>
<path d="M186.26,126.56c-1.97-1.81-3.68-4.04-4.82-6.28c-0.42-0.83-0.77-1.66-1.03-2.47c-1.12-3.48-0.35-6.82,0.47-10.35
	c0.2-0.86,0.41-1.75,0.58-2.63c0.86-4.4,1.74-7.81,5.16-11.56c2.87-3.15,6.5-4.7,11.01-4.7c1.03,0,2.1,0.08,3.22,0.24l0.1,0.01
	l0.08-0.06c3.58-2.69,7.55-2.95,12.13-0.8c4.29,2.01,6.03,5.96,7.58,10.18c1.37,3.73,2.76,4.3,5.07,5.24c0.24,0.1,0.5,0.2,0.77,0.32
	c-1.33,3.97-2.63,4.17-5.44,4.59c-0.17,0.03-0.35,0.05-0.54,0.08c-0.02-0.07-0.04-0.13-0.06-0.2c-0.01-0.03-0.01-0.06-0.02-0.09
	l-0.01,0c-1.01-3.65-2.58-6.11-4.68-7.29c-1.76-0.99-3.89-1.11-6.35-0.36c-3.9,1.19-4.2,3.94-4.59,7.41
	c-0.25,2.29-0.54,4.88-1.89,7.68c-0.33,0.68-0.68,1.38-1.03,2.08c-1.86,3.69-3.79,7.5-2.79,9.91c0.33,0.8,0.98,1.41,1.92,1.79
	c-0.76,0.72-1.87,1.13-3.31,1.22C193.72,130.77,188.15,128.3,186.26,126.56z"/>
<path class="st3" d="M188.88,140.83c2.3,0,4.82-1.3,7.08-7.46c0.23-0.61,0.44-1.39,0.63-2.35c0.2,0.01,0.41,0.02,0.61,0.02
	c0.21,0,0.41-0.01,0.62-0.02c1.74-0.1,3.06-0.66,3.9-1.65l0.24-0.28l-0.35-0.11c-1.01-0.33-1.66-0.87-1.98-1.65
	c-0.91-2.2,0.96-5.91,2.77-9.5c0.36-0.71,0.71-1.41,1.04-2.09c1.38-2.87,1.67-5.51,1.93-7.83c0.38-3.42,0.66-5.9,4.25-6.99
	c2.33-0.71,4.34-0.61,5.97,0.31c2.01,1.13,3.51,3.53,4.48,7.12c0.14,0.66,0.33,1.7,0.56,2.92c0.47,2.6,1.06,5.84,1.59,7.54
	c0.14,0.46-0.05,0.94-0.44,1.14c-0.77,0.41-1.68,0.64-2.22,0.72l-0.18,0.02l-0.03,0.18c-0.55,3.28-2.25,10.7-6.41,10.7
	c-0.15,0-0.31-0.01-0.47-0.03c-4.13-0.53-5.54-1.46-5.55-1.47l-0.3-0.21l-0.08,0.36c-0.54,2.58,0.48,6.16,3.98,8.37
	c2.74,1.72,5.8,2.31,6.86,2.47c-0.02,0.44,0,0.96,0.03,1.54c0.04,0.9,0.08,1.98-0.02,3.18c-10.52,4.66-25.3,1.17-28.62-0.26
	c-0.38-2.19-0.63-3.89-0.59-4.67c0-0.01,0-0.03,0-0.04C188.42,140.79,188.64,140.83,188.88,140.83z"/>
<path class="st7" d="M177.63,143.18l0.11-0.05c0.49-0.25,1.09-0.56,1.75-0.9c1.18-0.61,2.51-1.31,3.67-1.85
	c1.22-0.58,3.27-1.53,4.09-0.98c0.32,0.22,0.47,0.68,0.44,1.39c-0.07,1.58,0.93,6.67,1.98,12.04c0.67,3.43,1.37,6.98,1.83,9.81
	l0.05-0.01c-1.95,0.76-4.05,1.59-6.13,2.43c-2.18-5.38-4.61-11.35-6.22-15.31c-0.92-2.24-1.57-3.84-1.76-4.32l-0.24-0.58
	C176.71,143.64,176.71,143.64,177.63,143.18z"/>
<g>
	<path class="st7" d="M171.94,180.44c-0.07-0.21-0.14-0.43-0.22-0.64c-1.65,2.23-2.72,4.78-3.78,9.04c2.08-1.05,4.79-1.58,6.42-1.71
		l-0.04-0.1C173.54,185.17,172.69,182.66,171.94,180.44z"/>
	<path class="st7" d="M166.47,189.77c0.27-0.22,1.74-0.74,2.06-0.93c1.16-4.78,1.55-5.97,3.42-8.4c-0.69-2.04-1.72-4.99-2.08-5.46
		c-0.37-0.5-0.5-1.01-0.38-1.54c0.23-1,1.36-2.01,3.46-3.09c1.6-0.82,6.67-2.94,12.03-5.1c-2.18-5.38-4.61-11.35-6.22-15.31
		c-0.91-2.25-1.57-3.84-1.76-4.32l-0.23-0.58c-0.06-0.16-0.12-0.29-0.17-0.42c-10.85,3.57-12.93,6.95-17.71,20.8
		c-0.42,1.21-0.84,2.42-1.27,3.64c-3.63,10.41-7.39,21.17-7.39,30.19c0,10.01,0.36,11.16,3.82,12.33
		c3.22,1.09,11.07,0.39,16.67-1.45c-1.34-1.53-2.88-4.68-4.88-11.01C164.43,194.66,164.09,191.71,166.47,189.77z"/>
</g>
<path class="st3" d="M174.71,210.91l-0.24,0.03c-2.27,0.26-4.23,0.5-8.17-11.96c-1.34-4.25-1.69-7.06,0.47-8.82
	c2.1-1.7,6.41-2.56,8.24-2.56c0.12,0,0.46,0.12,1.22,1.03c-0.08,0.06-0.17,0.12-0.25,0.17l-0.06,0.05l-0.03,0.07
	c-1.3,3.66,1.09,9.88,3.86,14.11l0.12,0.18l0.19-0.1c0.64-0.32,1.33-0.82,2.03-1.4c0.08,0.3,0.15,0.6,0.23,0.88
	c0.51,1.93,0.85,3.21-0.25,4.25C180.73,208.12,177.17,210.63,174.71,210.91z"/>
<path class="st7" d="M169.21,248.4c0.52-3.97,2.23-12.41,3.89-20.56c1.22-5.98,2.57-12.6,3.32-16.87c2.22-0.81,4.6-2.53,5.75-3.54
	c2.28,5.95,3.74,9.61,4.59,11.53c1.2,2.73,2.01,3.91,2.87,4.22c0.17,0.06,0.34,0.09,0.51,0.09c0.52,0,1.05-0.26,1.69-0.57
	c0.38-0.19,0.81-0.4,1.3-0.58c0.85-0.32,3.26-1.26,6.31-2.45c-0.29,2.45-0.63,5.44-0.98,8.56c-0.76,6.73-1.54,13.69-2.06,17.29
	c-0.33,2.28-0.58,4.62-0.82,6.88c-0.48,4.45-0.93,8.65-1.76,9.34c-1.22,1-17.76-1.29-22.18-2.79C168,257.69,168,257.69,169.21,248.4
	z"/>
<path d="M192.36,397.54c0.38-0.07,0.64-0.03,0.79,0.12c0.39,0.4,0.11,1.65-0.13,2.75c-0.15,0.66-0.3,1.34-0.33,1.91
	c-0.12,2.31,2.07,4.73,3.38,5.97c1.26,1.18,2.07,2.71,1.97,3.71c-0.03,0.36-0.19,0.63-0.45,0.81c-1.79,0.27-7.26,0.06-11.27-0.09
	c-1.93-0.07-3.51-0.13-4.38-0.13c-0.15,0-0.28,0-0.39,0.01c-0.87,0.03-1.45-0.14-1.87-0.52c-0.59-0.55-0.89-1.62-0.95-3.35
	c-0.03-0.82-0.11-1.72-0.19-2.58c-0.18-1.89-0.36-3.85,0.17-4.43c0.1-0.11,0.23-0.17,0.4-0.17c0.11,0,0.24,0.12,0.38,0.29
	c-0.01,0.06,0.16,0.22,0.16,0.22c0.2,0.29,0.4,0.67,0.56,0.98c0.34,0.65,0.7,1.31,1.11,1.67c0.43,0.38,0.89,0.46,1.21,0.22
	c0.73-0.53,0.5-2.34-0.62-4.97c-0.27-0.63-0.5-1.49-0.08-2.03c0.39-0.52,1.33-0.7,2.71-0.52C187.88,397.84,190,397.98,192.36,397.54
	z"/>
<path class="st3" d="M180.06,393.22c1.41,0.25,3.05,0.38,5.03,0.38c1.39,0,2.95-0.06,4.68-0.18c0.54-0.04,1.04-0.1,1.48-0.19
	c-0.12,1.28-0.08,2.85-0.01,3.98c-1.92,0.22-3.84,0.07-6.63-0.29c-1.59-0.2-2.66,0.03-3.17,0.71c-0.44,0.58-0.43,1.45,0.02,2.52h0
	c1.27,2.99,1.07,4.17,0.78,4.38c-0.15,0.11-0.41-0.03-0.6-0.2c-0.34-0.3-0.67-0.92-1-1.53c-0.22-0.41-0.43-0.79-0.64-1.1
	C180.4,399.17,180.43,395.69,180.06,393.22z"/>
<path class="st3" d="M193.89,385.85c0.02,0.57,0.07,1.12,0.12,1.66c0.16,1.68,0.29,3.12-0.53,4.09c-0.65,0.76-1.87,1.19-3.75,1.33
	c-5.96,0.41-9.75,0.12-12.28-0.94c-1.79-0.75-1.6-2.46-1.38-4.43c0.08-0.68,0.15-1.39,0.15-2.09c0-1.36,0.03-2.28,0.4-2.57
	c0.12-0.1,0.31-0.15,0.57-0.15c0.29,0,0.69,0.06,1.2,0.19c3.37,0.81,7.2,0.46,9.74,0.23c0.58-0.05,1.09-0.1,1.48-0.12
	c0.25-0.01,0.49-0.03,0.72-0.04c1.33-0.08,2.3-0.14,2.84,0.35C193.62,383.74,193.84,384.54,193.89,385.85z"/>
<path d="M240.45,395.92c0.07,0.21,0.13,0.42,0.19,0.63c0.7,2.31,1.43,4.7,4.17,6.4l0.76,0.47c3.04,1.9,7.19,4.5,11.59,5.64
	c2.04,0.53,3.22,1.4,3.14,2.31c-0.05,0.62-0.72,1.14-1.56,1.22c-2.1,0.2-28.39,1.04-32.14,0.22c-2.64-0.57-2.5-1.34-2.15-3.18
	c0.12-0.61,0.25-1.31,0.3-2.13c0.06-0.93,0.07-1.78,0.09-2.53c0.04-1.82,0.06-3.13,0.64-3.58c0.03-0.02,0.06-0.03,0.09-0.03
	c0.21,0,0.59,0.37,1.01,0.78c1.07,1.04,2.68,2.62,5.46,2.62c3.19,0,5.19-0.57,5.94-1.69c0.43-0.64,0.45-1.44,0.06-2.38
	c-0.37-0.89-0.32-1.88,0.14-2.79C238.65,396.96,239.51,396.22,240.45,395.92z"/>
<path class="st3" d="M237.6,400.87c0.33,0.79,0.32,1.42-0.01,1.92c-0.65,0.97-2.56,1.48-5.53,1.48c-2.58,0-4.11-1.49-5.12-2.48
	c-0.14-0.14-0.27-0.27-0.4-0.38c0.13-1.8,0.23-4.35-0.01-6.58c1.33,0.24,2.96,0.33,4.65,0.33c2.46,0,5.03-0.19,6.88-0.36
	c0.2-0.02,0.37-0.05,0.55-0.08c0,0.55,0.05,1.11,0.14,1.67c-0.4,0.36-0.75,0.79-1,1.28C237.22,398.7,237.17,399.84,237.6,400.87z"/>
<path class="st3" d="M240.43,385.32c0.35,0.34,0.52,1.05,0.52,2.22c0,0.59,0.04,1.19,0.08,1.77c0.19,2.62,0.33,4.69-3.02,5.01
	c-3.67,0.34-10.23,0.75-12.95-0.39c-2-0.84-2.01-2.04-2.02-4.66c0-0.56-0.01-1.18-0.03-1.86c-0.05-1.33,0.08-2.05,0.4-2.34
	c0.16-0.15,0.4-0.2,0.71-0.2c0.01,0,0.03,0,0.04,0c0,0.07,0.95,0.09,1.21,0.13c0.52,0.08,1.1,0.16,1.78,0.21
	c3.49,0.24,6.33,0.08,8.62-0.05c0.92-0.05,1.71-0.1,2.41-0.11c0.18,0,0.35-0.01,0.52-0.02c0.38-0.01,0.73-0.03,1.02,0.01
	c0,0.01,0,0.03,0,0.05l0.17-0.01C240.09,385.11,240.28,385.18,240.43,385.32z"/>
<path d="M240.43,261.26c0.26,0.92,0.5,1.78,0.66,2.5c1.86,8.14,3.88,23.22,4.81,35.87c0.9,12.16,2.4,32.52,0,45.2
	c-2.22,11.75-5.98,35.08-6.19,39.7c-0.32-0.03-0.67-0.03-1.05-0.01c-0.16,0.01-0.33,0.01-0.51,0.01c-0.71,0.01-1.51,0.06-2.43,0.11
	c-2.27,0.13-5.09,0.3-8.55,0.06c-0.66-0.05-1.23-0.13-1.74-0.21c-0.29-0.04-0.56-0.08-0.81-0.11c-1.11-23.38-0.16-41.15,2.77-51.41
	l0.02-0.07l-0.02-0.07c-2.91-10.38-8.68-26.25-13.77-40.26c-3.4-9.36-6.34-17.43-7.97-22.62l-0.04-0.14l-0.14-0.03
	c-0.09-0.02-0.2,0-0.28,0.07c-1.01,0.73-2.41,11.98-4.8,31.82c-0.94,7.83-1.92,15.92-2.91,23.36c-2.18,16.42-2.53,26.16-2.81,33.99
	c-0.13,3.53-0.24,6.57-0.49,9.64c-0.55,6.63-1.38,11.53-1.82,13.84c-0.56-0.08-1.24-0.04-2.04,0.01c-0.23,0.01-0.46,0.03-0.71,0.04
	c-0.4,0.02-0.91,0.07-1.5,0.12c-2.51,0.23-6.29,0.57-9.58-0.22c-0.25-0.06-0.49-0.11-0.71-0.14l0.22-0.02
	c-1.19-11.81-2.05-28.98-2.82-44.13c-0.32-6.37-0.62-12.39-0.91-17.09c-0.35-5.69-1-11.64-1.7-17.93
	c-1.22-11.05-2.61-23.58-2.56-37.65c0.01-2.16,0.09-4.29,0.24-6.33h0l0.01-0.19c0.35,0.14,0.74,0.28,1.19,0.43
	c3.11,1.06,15.18,3.05,20.37,3.05c1.17,0,1.99-0.1,2.28-0.34c0.94-0.77,1.35-4.18,1.94-9.67c0.24-2.25,0.49-4.58,0.82-6.86
	c0.34-2.34,0.79-6.1,1.27-10.28c0.98,0.01,2.32,0.01,3.27,0.01c5.13,0,9.95-0.08,14.09-0.23c0.51,4.3,0.95,8.36,1.2,11.45
	c0.9,11.13,1.39,15.36,2.99,15.63c0.27,0.05,0.62,0.07,1.02,0.07c4.33,0,15.47-2.51,18.89-4.17
	C239.84,259.12,240.13,260.21,240.43,261.26z"/>
<path class="st7" d="M266.31,193.02c-5.61,1.46-19.15-6.38-26.42-10.59c-2.67-1.55-4.44-2.57-5.1-2.75l-0.25-0.07l-0.05,0.26
	c-1.4,7.02-4.58,29.35-3.44,38.05c0.57,4.35,3.13,14.35,5.38,23.16c1.93,7.56,3.93,15.37,3.71,16.07
	c-0.45,1.2-16.65,5.14-20.37,4.52c-1.37-0.23-1.93-7.16-2.58-15.19c-0.68-8.4-2.77-24.37-3.89-32.33c1.92-0.79,3.59-1.48,4.74-1.99
	c2.29-1.01,3.63-2.1,4.09-3.32c0.48-1.26-0.07-2.45-0.53-3.44c-0.45-0.98-1.72-4.33-3.19-8.21c0.69-3.87,1.95-10.15,3.29-16.79
	c2.32-11.53,4.72-23.46,4.88-26.48c0.25-4.73,0.4-8.28,0.12-10.2c2.8,1.05,7.19,4.08,9.89,7.52c2.72,3.47,22.74,22.27,24.84,22.56
	c0.1,0.01,0.21,0.02,0.33,0.02c2.45,0,9.87-2.48,15.36-4.32c2.33-0.78,4.2-1.41,5.01-1.61c0.07,0.22,0.15,0.45,0.26,0.72
	c0.12,0.31,0.26,0.66,0.39,1.06c1.04,3.23,2.27,5.59,3.36,7.67c0.48,0.93,0.94,1.81,1.33,2.67c0.35,0.77,0.7,1.36,1.09,1.8
	C282.52,185.7,271.6,191.66,266.31,193.02z"/>
<path class="st3" d="M299.7,176.32c-0.1,1.46-3.43,3.19-5.64,4.33c-0.72,0.37-1.34,0.69-1.81,0.98c-0.96,0.58-1.7,0.75-2.33,0.55
	c-0.73-0.23-1.38-1-2-2.37c-0.39-0.87-0.85-1.76-1.34-2.7c-1.08-2.07-2.3-4.41-3.33-7.6c-0.13-0.41-0.27-0.77-0.4-1.09
	c-0.27-0.69-0.45-1.15-0.3-1.47c0.14-0.3,0.62-0.57,1.5-0.85c1.4-0.44,6.16-1.96,8.42-2.93c0.72-0.31,1.32-0.01,1.95,0.95
	c-0.26,0.06-0.51,0.12-0.74,0.17c-0.55,0.12-1.03,0.22-1.4,0.39l-0.17,0.08l0.03,0.18c0.61,4,3.26,8.78,5.05,10.07l0.22,0.16
	l0.13-0.24c0.29-0.51,0.72-1.12,1.23-1.77C299.24,174.19,299.76,175.48,299.7,176.32z"/>
<path class="st3" d="M314.23,162.81c-2.67,2.38-5.31,3.35-7.64,4.2c-0.99,0.36-1.92,0.7-2.75,1.12c-2.75,1.38-5.42,4.43-6.57,6.33
	c-1.68-1.42-3.99-5.7-4.61-9.39c0.31-0.11,0.69-0.19,1.13-0.29c1.57-0.33,3.72-0.78,5.41-3.31c1.78-2.67,6.54-8.96,12.2-9.52
	c0.95-0.1,1.83-0.2,2.63-0.29c3.98-0.47,5.76-0.61,6.04,0.92C320.44,154.61,318.14,159.31,314.23,162.81z"/>
<g>
	<g>
		<path class="st8" d="M238.85,394.68c-0.01,0.56,0.04,1.2,0.18,1.92"/>
		<path class="st8" d="M226.28,401.5c0.14-1.85,0.25-4.53-0.01-6.82"/>
	</g>
	<g>
		<path class="st8" d="M179.71,402.06c0.47-2.68,0.47-6.37,0.11-8.82"/>
		<path class="st8" d="M191.5,393.15c-0.12,1.21-0.09,2.75-0.01,4.12"/>
	</g>
	<g>
		<path class="st8" d="M239.77,257.74c0.46,2.07,1.2,4.36,1.56,5.97c1.79,7.84,3.85,22.84,4.82,35.91c0.96,13.07,2.34,32.88,0,45.27
			c-2.34,12.38-6.33,37.29-6.19,40.18"/>
		<path class="st8" d="M198.48,235.05c5.78,0.03,11.9-0.03,17.25-0.23"/>
		<path class="st8" d="M177.78,382.31c-1.71-16.98-2.79-45.79-3.72-61.23c-0.96-15.82-4.33-33.62-4.26-55.6
			c0.01-2.25,0.09-4.36,0.24-6.34"/>
		<path class="st8" d="M224.41,385.06c-0.41-8.39-1.65-36.74,2.75-52.15c-4.82-17.2-17.61-49.81-21.74-62.88
			c-1.38-0.28-4.54,31.23-7.7,55.03c-3.16,23.8-2.48,33.71-3.3,43.61c-0.55,6.6-1.34,11.37-1.81,13.81"/>
	</g>
	<g>
		<path class="st8" d="M171.16,210.24c-5.76,1.98-13.84,2.7-17.2,1.57c-3.58-1.21-3.99-2.46-3.99-12.56
			c0-10.11,4.64-22.22,8.67-33.91c4.91-14.24,7.19-17.47,18.09-21.02"/>
		<path class="st8" d="M199.73,219.29c-0.89,7.55-2.31,20.85-3.09,26.26c-1.03,7.16-1.33,15.27-2.67,16.37
			c-1.34,1.1-18.12-1.29-22.41-2.75c-3.83-1.31-3.83-1.31-2.59-10.8c0.91-6.94,5.38-27.11,7.14-37.11"/>
	</g>
	<g>
		<path class="st8" d="M226.34,143.32c3.03,0.96,7.7,4.27,10.46,7.77c2.75,3.51,22.71,22.2,24.68,22.46
			c2.87,0.39,18.75-5.54,20.83-5.96"/>
		<path class="st8" d="M288.95,181.86c-5.93,3.83-17.14,10-22.58,11.4c-7.66,1.98-29.17-12.66-31.64-13.35
			c-1.51,7.57-4.54,29.58-3.44,37.97c1.1,8.39,9.62,37.89,9.08,39.35c-0.54,1.46-16.99,5.29-20.64,4.68
			c-1.49-0.25-2-5.64-2.79-15.41c-0.7-8.62-2.82-24.54-3.87-32.03"/>
	</g>
	<g>
		<path class="st8" d="M188.56,145.66c2.69,1.22,18.05,5.23,29.08,0.26"/>
	</g>
	<g>
		<path class="st8" d="M187.8,140.49c2.75,0.41,5.46-0.47,7.93-7.22c0.25-0.67,0.47-1.51,0.66-2.49"/>
		<path class="st8" d="M220.28,108.13c0.43,1.92,1.38,8.03,2.17,10.59c0.17,0.55-0.05,1.16-0.56,1.43c-0.73,0.38-1.64,0.65-2.3,0.74
			c-0.83,4.95-2.89,11.42-7.15,10.87c-4.26-0.55-5.66-1.51-5.66-1.51c-0.55,2.61,0.57,6.03,3.87,8.11c3.3,2.07,7.15,2.49,7.15,2.49"
			/>
	</g>
	<g>
		<path class="st8" d="M185.29,165.39c-3.43-8.49-7.54-18.53-8.07-19.87c-0.83-2.06-0.96-1.92,0.41-2.61
			c1.38-0.69,3.62-1.9,5.43-2.75c2.35-1.1,5.01-2.22,4.89,0.64c-0.11,2.55,2.63,14.54,3.8,21.8"/>
	</g>
	<g>
		<path class="st8" d="M298.83,172.71c0.67,1.41,1.18,2.74,1.12,3.63c-0.14,2.06-5.5,4.27-7.57,5.5c-2.06,1.24-3.44,0.83-4.68-1.93
			c-1.24-2.75-3.17-5.64-4.68-10.32c-0.71-2.19-1.65-2.89,0.96-3.71c2.61-0.83,6.47-2.1,8.39-2.92c0.96-0.41,1.69,0.15,2.29,1.1"/>
	</g>
	<g>
		<path class="st8" d="M181.22,120.39c1.22,2.4,2.99,4.62,4.87,6.35c2.77,2.55,12.28,6.17,15.44,2.47
			c-5.06-1.67-0.89-8.23,1.69-13.58c3.42-7.11,0.11-13.06,6.33-14.96c4.95-1.51,8.94,0.41,10.87,7.98c3.44-0.55,4.95-0.41,6.47-5.09
			c-2.89-1.24-4.4-1.38-5.92-5.5c-1.51-4.13-3.3-8.25-7.7-10.32c-4.4-2.06-8.53-2.06-12.38,0.83c-4.81-0.69-10.18-0.14-14.45,4.54
			c-3.37,3.7-4.3,6.98-5.22,11.68c-0.86,4.36-2.47,8.66-1.04,13.1C180.45,118.73,180.8,119.57,181.22,120.39z"/>
	</g>
	<g>
		<path d="M207.76,130.25c-2.2-1.51-3.58-1.93-4.54-2.89c0.54,2.95,1.47,4.59,4.32,5.82C207.47,132.17,207.57,131.16,207.76,130.25z
			"/>
	</g>
	<g>
		<path class="st8" d="M292.38,164.92c1.36-0.63,4.4-0.28,6.6-3.58c2.2-3.3,6.88-9.08,12.38-9.63c5.5-0.55,8.53-1.38,8.94,0.83
			c0.41,2.2-2.06,7.02-5.92,10.46c-3.85,3.44-7.69,3.98-10.45,5.36c-2.75,1.38-5.51,4.54-6.62,6.47
			C295.58,173.57,292.98,168.87,292.38,164.92z"/>
	</g>
	<g>
		<path class="st8" d="M215.29,189.32c1.21-11.28,2.5-35.6,2.26-42.71c0.63-4.22-0.98-7.42,1.63-7.15c2.61,0.28,6.05,2.06,6.88,3.03
			c0.83,0.96,0.55,6.19,0.28,11.42c-0.25,4.79-6.33,32.91-8.17,43.31"/>
	</g>
	<g>
		<g>
			<path class="st8" d="M174.72,187.35c-0.06-0.15-0.12-0.29-0.17-0.41c-1.68-4.01-3.66-11.01-4.48-12.11
				c-0.83-1.1-0.48-2.48,2.99-4.26c3.47-1.79,24.58-10.18,27.1-10.87c2.52-0.69,3.99-1.1,5.87,3.99c0.79,2.15,2.05,5.81,3.41,9.76"
				/>
			<path class="st8" d="M213.32,184.51c0.51,1.4,0.98,2.65,1.38,3.66c2.29,5.78,5.86,15.55,6.69,17.34
				c0.83,1.79,1.93,4.07-3.44,6.44c-5.37,2.37-22.01,8.84-24.9,9.94c-2.89,1.1-3.44,2.89-6.05-3.03c-0.99-2.24-2.72-6.65-4.59-11.54
				"/>
		</g>
	</g>
	<g>
		<path class="st8" d="M182.31,201.54c0.6,2.44,1.34,4.16-0.06,5.49c-1.46,1.38-5.03,3.85-7.51,4.13
			c-2.48,0.28-4.54,0.96-8.67-12.11c-1.43-4.52-1.65-7.29,0.55-9.08c2.2-1.79,6.62-2.61,8.39-2.61c0.37,0,0.92,0.49,1.58,1.32"/>
	</g>
	<g>
		<path class="st8" d="M176.13,189c4.25-3.03,16.22-10.73,19.38-12.38c3.16-1.65,10.32-3.3,13.07-3.16c2.75,0.14,6.6,4.67,6.05,7.77
			c-0.55,3.1-1.1,4.06-4.54,3.92c-3.44-0.14-9.77-0.82-11.56-0.55c-1.79,0.28-6.6,6.6-8.67,8.53c-2.06,1.93-6.6,8.12-9.91,9.77
			C177.08,198.49,174.91,192.44,176.13,189z"/>
	</g>
	<g>
		<path class="st8" d="M238.17,384.78c1.81-0.03,3.03-0.41,3.03,2.75s1.24,6.6-3.16,7.02c-4.4,0.41-10.46,0.69-13.07-0.41
			c-2.61-1.1-2.06-2.89-2.2-6.74c-0.14-3.85,1.15-2.67,4.4-2.45C232.05,385.29,235.74,384.82,238.17,384.78z"/>
	</g>
	<g>
		<path class="st8" d="M189.61,382.8c2.97-0.16,4.39-0.58,4.53,3.04c0.14,3.62,1.54,6.92-4.39,7.33c-5.93,0.41-9.78,0.14-12.39-0.96
			c-2.61-1.1-1.38-4-1.38-6.75c0-2.74,0.13-3.33,2.48-2.77C182.58,383.68,187.56,382.91,189.61,382.8z"/>
	</g>
	<g>
		<path class="st8" d="M237.82,400.77c-0.93-2.24,0.72-4.64,2.79-5.16c0.83,2.58,1.34,5.26,4.33,7.12
			c2.99,1.86,7.53,4.85,12.28,6.09c4.75,1.24,3.61,3.81,1.55,4.01c-2.06,0.2-28.41,1.04-32.21,0.22c-3.8-0.83-2.25-2.27-2.05-5.57
			c0.21-3.3-0.1-5.57,0.83-6.3c0.93-0.72,2.38,3.33,6.71,3.33C235.66,404.51,239.06,403.77,237.82,400.77z"/>
	</g>
	<g>
		<path class="st8" d="M181.69,400.05c-0.78-1.83-0.31-3.3,2.89-2.89c3.2,0.41,5.37,0.57,7.74,0.13c2.37-0.44,0.72,3.07,0.62,5.03
			c-0.1,1.96,1.55,4.13,3.3,5.78c1.75,1.65,2.79,4.09,1.44,4.94c-2.68,0.43-14.08-0.27-16.12-0.2c-2.04,0.07-2.97-0.92-3.07-4.12
			c-0.1-3.2-1.09-7.43,0.62-7.43c0.8,0,1.51,2.47,2.37,3.22C182.52,405.42,183.52,404.34,181.69,400.05z"/>
	</g>
</g>
<g>
	<path class="st3" d="M155.27,225.09c3.2-0.4,5.28,1.5,6.73,3.2c0.38,0.44,0.77,0.84,1.16,1.23c0.79,0.8,1.47,1.49,1.45,2.03
		c-0.01,0.19-0.1,0.37-0.3,0.54l0.01,0.01c-3.45,0.04-8.49,0.08-14.16,0.12c0.37-1.01,1.04-3.13,1.9-5.93
		C152.96,225.63,153.95,225.26,155.27,225.09z"/>
	<path class="st7" d="M159.8,180.83c0.02,0,0.05,0,0.07,0c2.04,0,3.24,0.31,3.75,0.98c0.65,0.83,0.26,2.3-0.23,4.16l-0.12,0.46
		c-0.96,3.7-11.93,41.22-13.65,45.8c-13.78,0.09-30.99,0.15-37.76,0.08c-4.64-0.05-17.99,0.04-32.43,0.15
		c-12.24,0-21.64-0.03-23.33-0.11c-0.2-0.83,0-1.78,0.53-2.5c0.48-0.65,1.16-1.01,1.89-1.01h19.81c5.78,0,6.3-1.48,7.02-3.53
		c0.14-0.41,0.29-0.84,0.5-1.29c0.72-1.59,2.97-9.24,5.36-17.34c1.73-5.87,3.52-11.93,4.69-15.57l0.33-1.04
		c2.42-7.52,2.67-8.31,7.84-8.56c1.17-0.06,6.07-0.14,12.54-0.23c0,0.03,0,0.04,0,0.05l0.49,0.03c0,0,0-0.04,0.01-0.09
		C132.08,181.07,154.92,180.84,159.8,180.83z"/>
	<path class="st3" d="M63.69,228.35c-2.97-1.75-5.96-3.68-8.04-5.2c0.6-3.38,4.06-7.7,7.31-10.58c0.34,0.26,0.72,0.56,1.16,0.89
		c1.75,1.35,4.14,3.21,6.82,4.92c2.4,1.54,4,1.07,5.54,0.61c0.72-0.21,1.47-0.43,2.29-0.43c2.16,0,5.12,1.47,7.2,3.56l0.12-0.12
		c-0.28,0.85-0.51,1.49-0.66,1.82c-0.21,0.47-0.37,0.91-0.51,1.33c-0.7,2-1.12,3.2-6.55,3.2H63.69z"/>
	<path d="M81.49,120.29c-0.64-0.55-0.91-1.58-0.84-3.17c0.11-2.29-1.43-4.22-2.92-6.08c-0.77-0.97-1.51-1.89-2.02-2.84
		c-1.3-2.44-1.3-4.71-1.17-7.22c0.05-0.97,0.07-1.97,0.08-2.94c0.06-3.34,0.12-6.8,1.53-9.87c0.51-1.09,1.23-2.08,1.93-3.04
		c0.47-0.65,0.96-1.32,1.39-2.01c1.09-1.79,2.38-2.86,3.97-3.26c0.9-0.23,1.84-0.37,2.74-0.52c0.94-0.15,1.91-0.3,2.84-0.54
		c0.48-0.12,0.94-0.31,1.39-0.49c0.56-0.23,1.1-0.44,1.66-0.54c2.39-0.43,5.41,0.01,8.07,0.4c0.76,0.11,1.5,0.22,2.18,0.3l0.32,0.04
		c1.06,0.12,2.07,0.24,2.98,0.81c0.75,0.46,1.23,1.14,1.74,1.85c0.38,0.53,0.78,1.08,1.3,1.55l0.38,0.34
		c0.88,0.77,1.52,1.33,1.93,2.62c0.15,0.46,0.27,0.92,0.4,1.38c0.18,0.65,0.36,1.33,0.61,2c0.78,2.08,0.97,3.85,0.65,6.1
		c-0.29,2.09-0.32,3.92-0.27,6.02c0.03,1.26-0.45,2.32-1.37,3.18c0.04-1.35,0.03-2.72-0.05-4.11c-0.02-0.46-0.03-0.93-0.03-1.39
		c-0.01-1.4-0.02-2.86-0.63-4h0c-0.3-0.57-0.74-0.6-1.2-0.64c-0.28-0.02-0.6-0.05-0.99-0.18c-0.9-0.3-1.3-0.15-1.71,0
		c-0.32,0.12-0.65,0.25-1.34,0.19c-0.87-0.08-1.93-0.77-3.05-1.5c-1.42-0.93-2.89-1.88-4.17-1.68c-2.5,0.39-5.13,2.55-7.24,4.29
		c-0.35,0.29-0.7,0.57-1.02,0.83c-0.52,0.42-0.97,0.73-1.37,1c-1.04,0.72-1.78,1.23-2.57,2.78c-0.71,1.4-0.73,2.95-0.75,4.45
		c-0.01,0.92-0.02,1.86-0.2,2.74c-0.12,0.57-0.48,1.55-0.98,1.76c-0.1,0.04-0.26,0.08-0.5-0.08c-0.3-0.2-0.32-0.86-0.34-1.39
		c-0.01-0.25-0.02-0.49-0.05-0.67c-0.02-0.11-0.05-0.24-0.07-0.38c-0.19-1.03-0.47-2.59-1.35-3.06c-0.36-0.19-0.76-0.19-1.21,0
		c-1.45,0.61-1.43,3,0.04,7.51c1.02,3.13,1.98,3.98,3.19,4.76c0.15,1.05,0.47,3.24,0.46,5.09
		C82.83,120.85,82.01,120.73,81.49,120.29z"/>
	<path class="st3" d="M83.86,123.59c0.91-1.5,0.47-5.39,0.06-8.19l-0.02-0.11l-0.1-0.06c-0.99-0.62-2.01-1.27-3.09-4.56
		c-1.67-5.11-1.09-6.58-0.32-6.91c0.31-0.13,0.57-0.14,0.78-0.02c0.68,0.36,0.94,1.84,1.1,2.72c0.02,0.14,0.05,0.27,0.07,0.39
		c0.03,0.15,0.04,0.36,0.05,0.59c0.02,0.64,0.05,1.44,0.56,1.78c0.4,0.26,0.74,0.21,0.96,0.12c0.73-0.3,1.14-1.47,1.27-2.11
		c0.19-0.92,0.2-1.89,0.21-2.83c0.02-1.44,0.03-2.93,0.7-4.23c0.73-1.44,1.4-1.9,2.41-2.6c0.4-0.28,0.86-0.6,1.4-1.02
		c0.33-0.26,0.67-0.55,1.03-0.84c2.07-1.7,4.64-3.81,7.01-4.18c1.09-0.17,2.48,0.73,3.82,1.61c1.17,0.77,2.28,1.49,3.27,1.58
		c0.8,0.07,1.23-0.09,1.56-0.22c0.37-0.14,0.64-0.25,1.38,0c0.45,0.15,0.81,0.18,1.1,0.2c0.43,0.04,0.63,0.05,0.81,0.38
		c0.56,1.04,0.56,2.36,0.57,3.77c0,0.48,0.01,0.95,0.03,1.42c0.25,4.57-0.13,8.95-1.14,13.02c-1.62,6.53-4.04,8.48-6.17,10.2
		c-0.28,0.23-0.55,0.45-0.82,0.68c-2.4,1.28-6.44,1.2-10.54-2.85l-0.35,0.35c2.76,2.73,5.51,3.73,7.8,3.73
		c0.99,0,1.89-0.19,2.67-0.5c-0.49,1.63-0.18,2.68,1.07,3.75l0.12,0.1c0.26,0.22,1.23,0.8,0.65,1.83c-0.4,0.19-3.17,1.24-3.7,1.59
		c-4.15,0.35-16.36-4.58-18.67-5.15C81.99,126.26,83.28,124.54,83.86,123.59z"/>
	<path class="st3" d="M81.54,126.84c1.61,0.4,16.54,4.1,20.91,3.69l0.11-0.04c0.53-0.34,0.94-0.58,1.32-0.77
		c-0.02,0.39-0.41,0.92-1.28,2.08c-1.9,2.53-4.03,6.73-5.69,11.22c-0.53,1.44-1.34,3.61-1.82,3.65c0,0-0.01,0-0.01,0
		c-0.18,0-0.47-0.35-0.86-1.03c-4.11-7.17-10.12-15.92-12.8-18.66C81.46,126.95,81.5,126.89,81.54,126.84z"/>
	<path class="st7" d="M23.24,198.66c-2.75-3.86-3.65-5.39-2.58-9.42c1.16-4.34,5.95-17.53,9.47-24.16
		c4.67-8.81,11.33-20.89,16.5-28.46c5.13-7.5,7.23-7.75,10.7-8.17c0.31-0.04,0.63-0.07,0.96-0.12l1.29-0.17
		c4.93-0.65,15.19-2,17.34-3.02c2.06-0.97,3.07,0.11,4.22,1.41c-0.14,0.18-0.23,0.3-0.24,0.3l-0.14,0.17l0.16,0.16
		c2.57,2.51,8.7,11.43,12.88,18.71c0.45,0.79,0.82,1.28,1.28,1.28c0.02,0,0.04,0,0.05,0c0.67-0.06,1.17-1.09,2.24-3.97
		c1.65-4.45,3.75-8.6,5.62-11.1c1.04-1.38,1.46-2.04,1.38-2.57c1.11-0.36,1.78,0.16,3.47,1.52l0.14,0.12
		c1.37,1.11,3.78,1.94,6.57,2.9c2.55,0.88,5.45,1.88,8.25,3.32c5.7,2.92,8.81,16.34,8.53,24.67c-0.25,7.55,2.63,15.15,4.66,18.5
		c-6.48,0.07-13.22,0.15-18.85,0.23c0.15-2.26,0.67-10.57,0.79-14.45l-0.49-0.02c-0.12,3.9-0.65,12.27-0.79,14.47
		c-6.5,0.09-11.43,0.17-12.6,0.23c-5.51,0.27-5.82,1.26-8.28,8.9l-0.33,1.04c-1.17,3.64-2.96,9.71-4.69,15.58
		c-1.73,5.87-3.51,11.88-4.57,15.12c-2.16-2.12-5.19-3.6-7.43-3.6c-0.89,0-1.68,0.23-2.43,0.45c-1.5,0.44-2.92,0.87-5.14-0.55
		c-2.65-1.7-5.04-3.54-6.78-4.89c-0.37-0.29-0.69-0.54-0.99-0.76l0.26-0.21c-0.56-0.71-13.65-17.1-16.15-19.31
		c0.53-3.25,0.65-10.15-0.28-13.09c0.48-0.97,4.66-9.5,7.11-14.92l-0.45-0.2c-2.58,5.71-7.1,14.9-7.15,14.99l-0.04,0.09l0,0.01
		l-0.2,0.48c-1.36,3.3-2.83,6.9-2.95,7.75l-0.01,0.08l0.04,0.07c1.11,2.1,3.01,4.44,3.4,4.91l-0.01,0.03l0.11,0.09
		c1.96,1.59,13.59,16.08,15.82,18.87l-0.14,0.12c-3.4,2.98-7.09,7.59-7.64,11.16l-0.02,0.15l0.12,0.09
		c0.73,0.54,1.59,1.13,2.52,1.75c-0.85,0.46-3.17,1.52-5.01,0.45c-1.27-0.74-2.6-0.86-4.15-1c-1.15-0.11-2.46-0.23-3.89-0.65
		c-2.17-0.63-2.09-1.1-1.78-2.86c0.12-0.68,0.27-1.54,0.31-2.61l0-0.12l-0.1-0.08C39.22,215.15,25.97,202.48,23.24,198.66z"/>
	<path class="st7" d="M43.18,223.94c0.34,0.2,0.79,0.38,1.39,0.56c1.48,0.43,2.81,0.55,3.98,0.66c1.49,0.14,2.77,0.26,3.94,0.94
		c0.67,0.39,1.38,0.53,2.07,0.53c1.65,0,3.15-0.81,3.64-1.1c1.4,0.93,2.95,1.9,4.51,2.83h-4.18c-0.9,0-1.71,0.43-2.29,1.21
		c-0.66,0.89-0.87,2.08-0.56,3.1l0,0.01c-1.33,0.01-2.62,0.02-3.88,0.04c-3.83,0.04-7.36,0.07-10.39,0.09
		C41.8,229.09,42.44,225.84,43.18,223.94z"/>
	<path d="M45.06,376.05c-1.12-1.72,1.99-5.33,5.59-9.52c0.24-0.28,0.48-0.56,0.73-0.85c0.47,8.94,0.98,18.72,1.17,22.47
		c-0.46-1.21-0.95-2.43-1.61-3.43c-1.14-1.73-2.35-3.49-3.41-5.04C46.54,378.26,45.69,377.03,45.06,376.05z"/>
	<path class="st3" d="M46.61,379.23c0.17,0.24,0.33,0.49,0.51,0.74c1.06,1.55,2.27,3.3,3.41,5.03c0.73,1.11,1.26,2.53,1.77,3.89
		c0.44,1.19,0.87,2.34,1.42,3.25c-0.25,0.25-0.47,0.45-0.64,0.59c-0.28,0.24-0.5,0.44-0.67,0.75c-0.21,0.1-0.42,0.24-0.64,0.38
		c-0.54,0.35-1.21,0.8-2.22,1.06c-1.33,0.34-2.6,0.13-3.76-0.63c-1.7-1.11-3.06-3.37-3.47-5.77c-0.27-1.61-0.51-2.77-0.84-3.55
		C43.17,383.9,45.22,381.63,46.61,379.23z"/>
	<path d="M56.42,411.37c-1.39,1.3-7.34-0.12-9.61-0.94c-4.55-2.56-9.65-10.75-12.69-15.65c-1-1.6-1.74-2.8-2.19-3.36
		c0.8-1.75,2.63-3,4.26-4.11c0.41-0.28,0.8-0.55,1.17-0.81c0.58-0.43,1.07-0.85,1.5-1.23c0.72-0.63,1.29-1.12,1.57-0.93
		c0.63,0.42,0.98,1.83,1.39,4.28c0.42,2.53,1.87,4.93,3.68,6.11c1.27,0.83,2.71,1.07,4.16,0.69c1.09-0.28,1.83-0.77,2.37-1.12
		c0.73-0.49,0.96-0.61,1.34-0.24c0.49,0.48,0.13,1.63-0.29,2.96c-0.28,0.87-0.59,1.86-0.73,2.87c-0.46,3.21,0.9,5,2.22,6.73
		c0.81,1.06,1.64,2.16,2.05,3.59C56.77,410.72,56.71,411.1,56.42,411.37z"/>
	<path d="M72.54,397.44c0-1.95,0.17-1.96,1.09-2c0.13-0.01,0.28-0.01,0.44-0.02c0.01,0,0.03,0,0.04,0c0.99,0,2.76,2.58,4.07,4.48
		c0.29,0.43,0.57,0.83,0.83,1.2c1.57,2.2,7.39,5.76,11.2,6.39c3.45,0.58,3.89,1.55,3.92,2.68c-5.78,1.88-26.98,0.94-35.01,0.58
		l-1.95-0.09c0-0.19-0.03-0.38-0.09-0.59c-0.42-1.44-1.22-2.54-2.02-3.59c-0.04-1.16,0.01-2.62,0.13-3.43
		c0.11-0.74,0.14-1.39,0.17-1.97c0.06-1.06,0.1-1.67,0.44-1.75c0.29-0.08,1.52-0.09,5.08,2.94c3.02,2.57,6.49,1.94,8.35,1.6
		C71.53,403.46,72.54,400.34,72.54,397.44z"/>
	<path class="st3" d="M72.08,396.61c-0.02,0.24-0.03,0.51-0.03,0.83c0,2.61-0.91,5.59-2.89,5.95c-2.47,0.45-5.33,0.74-7.95-1.49
		c-1.43-1.22-3.21-2.56-4.52-2.95c0.25-1.61,0.31-3.55,0.16-4.96c2.03-0.07,3.36-0.05,4.53-0.03c0.65,0.01,1.27,0.02,1.94,0.02
		c0.78-0.01,1.6,0.01,2.44,0.02c0.74,0.01,1.49,0.03,2.24,0.03c1.04,0,2.08-0.03,3.09-0.13C71.26,395.01,71.59,395.79,72.08,396.61z
		"/>
	<path d="M107.67,240.98c1.47,4.22,3.98,16.11,6.42,27.61c1.71,8.07,3.32,15.7,4.62,20.97c0.46,1.85,0.92,3.71,1.38,5.55
		c2.78,11.19,5.41,21.76,5.94,28.46c0.49,6.2-5.92,11.92-11.58,16.96c-1.43,1.28-2.78,2.48-4.03,3.68l-2.54,2.46
		c-8.4,8.15-25.66,24.9-31.38,29.49c0.11-2.32,0.39-9.28,0.77-18.61c0.26-6.28,0.56-13.74,0.88-21.61c0.34-0.32,0.84-0.78,1.45-1.34
		c3.57-3.28,11-10.11,12.33-13.12c1.25-2.82,0.12-6.47-1.19-10.69c-0.36-1.17-0.73-2.37-1.07-3.61c-0.71-2.61-2.28-10.06-3.94-17.95
		c-1.9-9-3.86-18.31-4.48-19.99l-0.35-0.96l-0.12,1.01c-0.61,5-2.82,59.15-4,88.24c-0.41,9.99-0.7,17.27-0.79,19.03l-0.01,0.12
		c0,0.06-0.03,0.24-0.07,0.54c-0.18,1.21-0.59,4.05-0.75,8.54c-0.06,1.7,0.02,2.97,0.09,3.99c0.15,2.36,0.19,2.85-1.86,3.31
		c-2.38,0.54-5.04,0.49-7.61,0.44c-0.84-0.02-1.67-0.03-2.45-0.02c-0.67,0.01-1.28-0.01-1.93-0.02c-1.23-0.02-2.62-0.05-4.82,0.04
		c-0.03,0-0.07,0-0.1,0c-1.69,0-2.53-1.69-3.35-3.82c-0.07-1.28-1.94-37.12-2.14-41.07c-0.05-0.88-0.07-1.86-0.09-3
		c-0.08-4.02-0.19-9.52-1.57-17.26c-1.18-6.68-1.24-14.02-1.27-19.39c-0.02-2.55-0.03-4.56-0.17-5.77
		c-0.16-1.46-0.72-4.56-1.44-8.49c-1.08-5.97-2.56-14.14-3.35-20.65c-1.17-9.59-1.9-21.45-2.02-32.54l0-0.21
		c-0.01-1.05-0.02-2.24-0.01-3.17c18.76,0,54.23,0.15,65.57,0.25l-0.04,0.02C107.01,239.28,107.37,240.14,107.67,240.98z"/>
	<path class="st7" d="M108.3,237.91c-8.96-0.1-46.8-0.27-66.74-0.27c-5.48,0-9.6,0.01-11.41,0.04c-4.26,0.07-6.1-0.12-6.6-0.67
		c-0.23-0.26-0.2-0.63-0.11-1.28c0.03-0.24,0.06-0.51,0.08-0.79c0.1-1.62,1.16-1.67,5.23-1.61c0.78,0.01,1.66,0.03,2.64,0.03
		c1.94,0,10.1-0.07,20.43-0.17c8.16-0.07,17.96-0.16,27.32-0.24c0.89,0,1.8,0,2.73,0c26.95,0,65.47-0.12,67.9-0.12l0.16,0l0.05-0.11
		c8.71-0.06,16-0.13,18.32-0.18c2.95-0.07,4.49,0.12,4.99,0.61c0.25,0.25,0.26,0.57,0.26,1.11v0.1c0,1.3,0,2.08-3.9,2.37
		C160.16,237.42,120.63,238.05,108.3,237.91z"/>
	<path d="M91.32,121.95c1.89,4.29,5.99,8.19,11.49,6.02c-0.93-1.1-0.86-1.51-0.84-1.8c0.02-0.29,0.03-1.66,0.03-1.66
		s-1.92,1.28-4.23,0.72c-2.31-0.56-4.74-2.43-4.74-2.43L91.32,121.95z"/>
	<path d="M117.43,167.09c0.2-1.86,2.47,0.1,3.53,13.49l-4.29,0.21L117.43,167.09z"/>
	<path d="M54.12,165.31c-0.76,8.99-2.51,19.61-6.26,18.52l-0.6-4.71L54.12,165.31z"/>
	<g>
		<g>
			<path class="st8" d="M52.58,393.68c0.27-0.55,0.67-0.67,1.45-1.5"/>
			<path class="st8" d="M46.59,378.77c-1.29,2.34-3.32,4.8-5.19,5.96"/>
		</g>
		<g>
			<path class="st8" d="M72.33,396.55c-0.5-0.83-0.92-1.68-1.05-3.07"/>
			<path class="st8" d="M56.57,393.68c0.21,1.44,0.15,3.67-0.15,5.43"/>
		</g>
		<g>
			<path class="st8" d="M57.15,410.9c6.48,0.27,31.16,1.59,37.24-0.56c0-1.34-0.41-2.48-4.13-3.1c-3.72-0.62-9.49-4.13-11.04-6.29
				c-1.55-2.17-3.82-5.88-5.16-5.78c-1.34,0.1-1.75-0.21-1.75,2.27c0,2.48-0.83,5.78-3.1,6.19c-2.27,0.41-5.37,0.83-8.15-1.55
				c-2.79-2.37-4.51-3.2-5.3-2.99c-0.79,0.21-0.48,1.76-0.79,3.93c-0.12,0.83-0.18,2.35-0.13,3.54"/>
		</g>
		<g>
			<path class="st8" d="M46.71,410.65c2.48,0.9,11.2,3.1,10.15-0.52c-1.11-3.82-4.99-5.16-4.27-10.22c0.38-2.64,1.92-5.11,0.96-6.05
				c-0.96-0.94-1.55,0.68-3.95,1.3c-4.02,1.03-6.93-2.99-7.53-6.6c-0.46-2.71-0.82-3.99-1.5-4.44c-0.66-0.44-1.62,0.91-3.36,2.17
				c-1.9,1.39-4.6,2.82-5.57,5.16C33.3,393.34,40.5,407.18,46.71,410.65z"/>
		</g>
		<g>
			<path class="st8" d="M51.61,365.03c-4.23,4.95-8.1,9.09-6.76,11.15c1.34,2.06,3.71,5.39,5.88,8.68c2.17,3.29,2.51,9.02,5.85,8.89
				c3.34-0.13,4.78,0,6.74-0.02c3.2-0.02,6.91,0.3,10.11-0.42c3.2-0.72,1.75-1.86,1.96-7.53c0.21-5.68,0.83-8.77,0.83-9.08
				c5.88-4.54,27.96-26.11,34.36-32.3c6.4-6.19,16.3-13,15.68-20.84c-0.62-7.84-4.13-21.05-7.33-34.05
				c-3.2-13-8.56-41.48-11.04-48.6c-0.31-0.89-0.68-1.76-1.08-2.6 M40.84,238.3c-0.02,1.02-0.03,2.09-0.02,3.22
				c0.1,9.7,0.72,21.87,2.02,32.56c1.3,10.69,4.37,25.43,4.79,29.14c0.41,3.71-0.31,15.27,1.44,25.18
				c1.75,9.91,1.44,16.2,1.65,20.23c0.21,4.02,2.14,41.11,2.14,41.11 M43.06,223.56c-0.71,1.67-1.48,4.64-1.91,9.15 M76.22,376.7
				c0.31-5.98,3.97-100.66,4.79-107.36c1.14,3.1,6.86,32.24,8.41,37.92c1.55,5.68,3.82,10.63,2.27,14.14
				c-1.55,3.51-10.87,11.95-13.04,14.01"/>
		</g>
		<g>
			<path class="st8" d="M169.66,236.97c4.13-0.3,4.13-1.24,4.13-2.61c0-1.38,0.14-2.2-5.5-2.06c-5.64,0.14-44.99,0.38-56.41,0.26
				c-11.42-0.12-74.57,0.57-80.49,0.57c-5.92,0-7.98-0.49-8.12,1.82c-0.14,2.31-1.38,3.13,6.88,3c8.25-0.14,65.77,0.09,78.15,0.22
				C120.68,238.3,160.3,237.66,169.66,236.97z"/>
		</g>
		<g>
			<path class="st8" d="M81.48,126.57c-1.2-1.38-2.35-2.75-4.66-1.65c-2.32,1.1-14.43,2.61-18.55,3.16
				c-4.13,0.55-6.19,0.14-11.83,8.39c-5.64,8.26-12.93,21.74-16.51,28.48c-3.58,6.74-8.39,20.09-9.49,24.21
				c-1.1,4.13-0.14,5.78,2.61,9.63c2.75,3.85,15.96,16.49,19.95,19.73c-0.14,3.79-1.65,4.75,1.65,5.72c3.3,0.96,5.8,0.36,7.98,1.62
				c2.18,1.27,4.97-0.25,5.59-0.65 M136.7,181.18c-1.92-2.7-5.38-10.86-5.11-19.11c0.28-8.25-2.75-21.88-8.67-24.9
				c-5.92-3.03-12.23-4.13-14.78-6.19c-1.92-1.55-2.63-2.17-4.02-1.63 M47.26,192.89c0,0-2.2-2.61-3.44-4.95
				c0.14-0.96,2.2-5.92,3.16-8.26"/>
		</g>
		<g>
			<path class="st8" d="M117.7,166.33c-0.14,4.54-0.83,15.02-0.83,15.02"/>
		</g>
		<g>
			<path class="st8" d="M86.14,221.95c-2.12-2.14-5.15-3.64-7.37-3.64c-2.61,0-4.27,2.06-7.7-0.14c-3.44-2.2-6.47-4.68-8.12-5.92
				c-3.3,2.89-7,7.43-7.56,11.01c2,1.47,5.04,3.46,8.24,5.34"/>
		</g>
		<g>
			<path class="st8" d="M164.47,232.28c1.23-1.1-0.76-2.36-2.28-4.15c-1.52-1.79-3.64-3.69-6.95-3.28
				c-1.52,0.19-2.52,0.63-3.39,1.29"/>
		</g>
		<g>
			<path class="st8" d="M149.76,232.59c1.38-3.3,12.8-42.38,13.76-46.09c0.96-3.72,1.79-5.94-3.72-5.92
				c-6.88,0.02-51.85,0.5-55.72,0.69c-5.57,0.28-5.64,1.24-8.39,9.77c-2.75,8.53-8.8,30.13-10.04,32.88
				c-1.24,2.75-0.55,4.68-7.29,4.68c-6.74,0-17.89,0-19.81,0c-1.93,0-3.16,2.2-2.61,3.99C59.37,232.86,149.76,232.59,149.76,232.59z
				"/>
		</g>
		<g>
			<path class="st8" d="M110.92,104.8c1.17-0.93,1.78-2.16,1.74-3.65c-0.05-2.08-0.03-3.89,0.26-5.98c0.32-2.27,0.13-4.09-0.67-6.22
				c-0.42-1.12-0.65-2.26-1.01-3.36c-0.5-1.53-1.29-2.08-2.38-3.06c-1.17-1.05-1.7-2.57-3.07-3.42c-1.06-0.66-2.19-0.74-3.41-0.88
				c-3.13-0.38-7.21-1.26-10.33-0.7c-1.06,0.19-2.03,0.76-3.08,1.03c-1.83,0.47-3.75,0.6-5.59,1.06c-1.86,0.47-3.16,1.78-4.12,3.37
				c-1.05,1.73-2.47,3.23-3.33,5.07c-1.86,4.02-1.42,8.6-1.64,12.9c-0.14,2.69-0.1,4.91,1.19,7.35c1.52,2.86,5.06,5.46,4.9,8.8
				c-0.13,2.71,0.72,4.42,3.84,3.76"/>
		</g>
		<g>
			<path class="st8" d="M110.12,94.96c-0.39-0.73-0.96-0.34-2.05-0.7c-1.52-0.51-1.36,0.35-3,0.2c-2.07-0.19-5-3.52-7.16-3.18
				c-2.84,0.44-5.86,3.24-8.15,5.07c-1.88,1.51-2.82,1.63-3.87,3.7c-1.12,2.21-0.46,4.81-0.93,7.12c-0.16,0.81-0.83,2.51-1.86,1.83
				c-0.57-0.37-0.39-1.64-0.5-2.21c-0.23-1.18-0.54-4-2.29-3.26c-1.55,0.66-0.89,3.95,0.18,7.21c1.07,3.26,2.06,3.98,3.19,4.69
				c0.29,1.98,0.92,6.48-0.02,8.03c-0.95,1.55-2.56,3.55-2.56,3.55c2.65,2.6,8.85,11.66,12.92,18.76c1.14,2,1.56,1.57,3.13-2.66
				c1.71-4.61,3.84-8.74,5.66-11.16c1.81-2.42,1.68-2.41,0.39-3.51c-1.29-1.1-1.51-2.15-0.85-3.95c2.38-2.06,5.37-3.5,7.26-11.16
				c1.06-4.27,1.39-8.71,1.15-13.09C110.65,98.41,110.9,96.41,110.12,94.96z"/>
		</g>
		<g>
			<path class="st8" d="M102.32,124.36c-2.04,1.09-6.07,1.66-10.67-2.89"/>
		</g>
		<g>
			<path class="st8" d="M54.14,164.68c-2.61,5.78-7.15,15-7.15,15c0.96,2.89,0.83,10.04,0.28,13.21
				c2.2,1.79,16.23,19.37,16.23,19.37"/>
		</g>
		<g>
			<g>
				<line class="st8" x1="167.45" y1="413.53" x2="153.29" y2="237.66"/>
				<line class="st8" x1="33.12" y1="238.1" x2="11.3" y2="413.9"/>
				<line class="st8" x1="177.28" y1="413.53" x2="162.14" y2="237.66"/>
				<path class="st8" d="M156.56,237.8"/>
			</g>
		</g>
		<g>
			<g>
				<line class="st8" x1="40" y1="238.1" x2="19.16" y2="413.9"/>
			</g>
		</g>
	</g>
</g>
<g>
	<path class="st9" d="M342.4,333.87c-0.71,6.64-0.89,13.26-0.52,19.54c0.12,1.96,0.09,3.92,0.11,5.87"/>
	<path class="st9" d="M344.9,318.85c-0.41,1.8-0.78,3.61-1.11,5.43"/>
	<path class="st9" d="M347.25,310c-0.27,0.87-0.52,1.74-0.77,2.62"/>
	<path class="st9" d="M349.35,313.3c0.26-0.99,0.49-1.98,0.74-2.95"/>
	<path class="st9" d="M346.74,359.55c-2.52-8.47-2.43-18.38-1.16-27.92"/>
	<path class="st9" d="M358.94,343.64c-0.55,2.94-1.02,5.8-1.27,8.51c-0.24,2.64-0.63,5.16-0.54,7.68"/>
	<path class="st9" d="M354.03,359.37c0.02-6.62,1.47-11.65,2.78-16.99"/>
	<g>
		<path class="st9" d="M318.79,336.05c0.4-8.43,1.76-8.35,4.17,0.32c1.19,4.26,2.37,8.19,4.72,11.85c2.52-1.2,5.02-2.57,7.32-4.12
			c1.38-4.87,0.9-9.88-0.09-14.94c-1.7-8.69-0.11-10.01,3.24-1.2c1.13,2.96,3.25,4.9,5.75,6.7c2.24-4.92,1.42-10.69-5.08-17.19
			c-1.83-1.83-7-2.16-7.68-1.48l-0.48-0.93c-0.96-11.89-18.98-10.08-28.46-2.6c5.01-0.94,11.6-1.07,14.73,0.96
			c9.45,6.12-5.04,4.91-9.96,4.97c-2.94,0.04-6.74-0.67-9.99,0.53c-1.45,2.93-2.55,6.58-3.29,10.58c4.23-2.59,10.48-5.21,12.78-3.29
			c3.6,3-8.66,6.66-11.07,9.47c-0.95,1.11-2.37,2.49-2.87,4.33c-1.45,5.29-3.37,13.53,0.93,15.8c2.69,1.42,5.27-1.62,7.8-1.72
			c0.77-5.31,2.65-13.96,5.8-16.55c7.9-6.51,0.84,7.68,0.39,11.04c-0.25,1.81-0.26,3.65-0.06,5.47c1.03-0.02,2.09-0.07,3.2-0.18
			c1.46-0.15,4.49-0.85,8.16-2.08C319.97,346.37,318.55,341,318.79,336.05z"/>
	</g>
	<g>
		<path class="st9" d="M370.21,332.7c-0.39-8.27-1.73-8.18-4.09,0.31c-1.16,4.18-2.32,8.03-4.63,11.62
			c-2.47-1.17-4.93-2.52-7.18-4.04c-1.36-4.77-0.88-9.69,0.09-14.65c1.67-8.52,0.11-9.82-3.18-1.18c-1.1,2.9-3.19,4.81-5.64,6.57
			c-2.2-4.82-1.39-10.48,4.98-16.85c1.79-1.79,6.86-2.12,7.53-1.45l0.47-0.91c0.94-11.66,18.61-9.88,27.9-2.55
			c-4.91-0.92-11.37-1.05-14.45,0.94c-9.27,6,4.94,4.81,9.77,4.88c2.88,0.04,6.61-0.65,9.79,0.52c1.42,2.87,2.5,6.45,3.23,10.37
			c-4.15-2.54-10.27-5.11-12.53-3.22c-3.53,2.94,8.5,6.53,10.85,9.29c0.93,1.09,2.33,2.45,2.82,4.24
			c1.42,5.19,3.31,13.26-0.91,15.49c-2.63,1.39-5.17-1.59-7.65-1.69c-0.75-5.21-2.59-13.69-5.68-16.23
			c-7.75-6.38-0.83,7.53-0.38,10.82c0.24,1.78,0.26,3.58,0.06,5.37c-1.01-0.02-2.05-0.07-3.14-0.18c-1.43-0.15-4.4-0.84-8-2.04
			C369.06,342.81,370.45,337.55,370.21,332.7z"/>
	</g>
	<g>
		<path class="st9" d="M358.56,310.35c-2.61,0.29-5.29,0.23-8,0.03c-8.66-0.63-9.76,1.07-0.79,3.3c0.38,0.09,0.74,0.2,1.09,0.33"/>
		<path class="st9" d="M346.35,319.43c-2.08-0.74-4.32-1.99-6.71-3.87c-1.99-1.56-2.93-6.56-2.34-7.31l-0.96-0.35
			c-11.68,0.46-12.04-17.29-5.88-27.4c-0.32,4.99,0.32,11.42,2.67,14.23c7.07,8.48,4.19-5.48,3.67-10.28
			c-0.31-2.87-1.44-6.48-0.66-9.78c2.68-1.76,6.11-3.25,9.91-4.45c-2.03,4.42-3.84,10.81-1.69,12.83c3.34,3.15,5.46-9.22,7.92-11.89
			c0.97-1.05,2.15-2.6,3.87-3.31c4.98-2.03,12.77-4.88,15.49-0.96c1.7,2.45-0.95,5.32-0.76,7.8c-5.08,1.37-13.28,4.22-15.43,7.59
			c-5.4,8.46,7.58-0.08,10.79-0.92c1.73-0.45,3.53-0.68,5.32-0.71c0.1,1.01,0.18,2.04,0.2,3.14c0.03,1.44-0.3,4.47-1.06,8.19
			c-5.15,1.83-10.54,1.08-15.33,1.89c-8.16,1.38,9.05,5.37,12.89,7.23c-0.29,0.87-0.61,1.74-0.94,2.61"/>
	</g>
	<g>
		<path class="st9" d="M329.75,281.57c-2.77-1.41-5.81-2.38-8.72-2.72c3.92,2.69,2.52,10.27-0.77,7.06c-1.96-1.92-4-4.88-6.93-6.24
			c-2.89,0.98-6.02,2.66-9.15,4.8c4.5,1.08,5.3,2.81,5.3,3.92c0,1.84-4.81,1.02-8.25,1.29c-1.35,0.11-3.21,0.08-4.75,0.96
			c-4.44,2.54-11.14,6.69-9.81,11.03c0.83,2.71,3.92,3.89,6.28,4.01c5,0.26,10.23-1.47,7.71,0.44c-1.36,1.03-2.58,2.24-3.65,3.57
			c0.69,0.67,1.42,1.33,2.23,1.99c1.06,0.87,3.52,2.39,6.75,4.01c1.34-0.85,3.22-2.32,5.14-3.81"/>
		<path class="st9" d="M337.36,287.42c-1.72-2.07-4.11-3.94-6.79-5.41"/>
		<path class="st9" d="M338.79,317.45c0.35-0.44,0.67-0.92,0.97-1.44"/>
		<path class="st9" d="M330.35,313.2c0.42-0.58,0.84-1.18,1.24-1.78c3.08-4.57,2.87-0.04,2.52,4.32"/>
		<path class="st9" d="M316.51,313.59c-0.81,1.56-1.58,3.12-2.06,4.84"/>
	</g>
	<g>
		<path class="st9" d="M374.97,315.43c-0.65-1.71-1.32-3.65-1.98-5.43"/>
		<path class="st9" d="M356.82,285.6c0.94-8.75,15.73-10.58,25.18-6.43c-4.74,0.33-7.37,7.57-2.92,6.48
			c2.66-0.66,5.92-2.18,9.14-1.87c2,2.31,3.84,5.34,5.46,8.77c-4.43-1.35-2.93,4.01-0.1,5.99c1.11,0.78,2.73,1.69,3.61,3.23
			c2.55,4.44,6.22,11.42,2.87,14.48c-2.09,1.91-5.14-0.22-7.44,0.28c-1.94-4.61-8.08-6.45-6.87-3.53c0.3,0.73,0.55,1.47,0.77,2.23"
			/>
	</g>
	<g>
		<polygon class="st9" points="372.35,363.23 331.39,363.23 337.13,414.66 366.61,414.66 		"/>
		<path class="st9" d="M370.16,359.55h-3.98c-1.06,0-1.94,1.3-2.12,3.02c-0.18-1.72-1.06-3.02-2.12-3.02h-3.98
			c-0.9,0-1.68,0.95-2,2.3c-0.32-1.35-1.09-2.3-2-2.3h-3.98c-0.98,0-1.81,1.12-2.07,2.65c-0.26-1.53-1.09-2.65-2.07-2.65h-3.98
			c-1.06,0-1.94,1.3-2.12,3.02c-0.18-1.72-1.06-3.02-2.12-3.02h-3.98c-1.19,0-2.16,1.65-2.16,3.68h40.83
			C372.31,361.19,371.35,359.55,370.16,359.55z"/>
	</g>
</g>
<g>
	<path class="st3" d="M435.77,123.34c-3.89-0.29-7.42-0.77-7.93-3.43c-0.22-1.17,0.06-2.13,0.33-3.05c0.39-1.32,0.79-2.69-0.28-4.63
		l-0.17-0.31c-1.35-2.45-1.35-2.45-0.49-3.72c0.1-0.15,0.22-0.32,0.34-0.51l0.29-0.44c1.25-1.89,2.43-3.67,2.09-6.54
		c-0.21-1.73,1.66-4.23,3.58-5.58c0.11,0.92,0.31,1.83,0.55,2.73c0.84,3.13,2.03,5.75,3.09,8.06c1.35,2.95,2.52,5.51,2.52,8.18
		l0,1.11c-0.01,4.05-0.02,5.73,2.17,8.17l0.27,0.3c2.1,2.32,2.8,3.11,2.41,6.84c-0.02,0.21-0.04,0.4-0.06,0.6
		c-0.61-0.15-1.16-0.35-1.6-0.63C442.46,125.94,440.19,123.67,435.77,123.34z"/>
	<path d="M395.69,153.1c-0.25-0.71-0.5-1.45-0.4-2.16c0.24-1.61,2.6-2.43,4.32-3.02c0.34-0.12,0.66-0.23,0.92-0.33
		c2.3-0.9,5.34-2.01,8.46-2.61c0.48-0.09,0.88-0.02,1.23,0.21c-2.33,4.71-3.58,9.83-4.5,14.33c-0.14,0.67-0.3,1.34-0.48,2
		c-1,0.11-1.57,0.93-2.12,1.74c-0.51,0.74-0.98,1.44-1.77,1.56c-0.91,0.13-1.41-0.76-1.59-1.15c-1.69-3.69-2.88-6.77-3.88-9.98
		C395.83,153.5,395.76,153.3,395.69,153.1z"/>
	<path class="st3" d="M392.44,170.86c-0.14-1.64-0.08-3.4,0.18-5.23c0.31-2.14,1.39-3.98,3.13-5.33c0.51-0.39,1.04-0.74,1.58-1.04
		c0.58,1.47,1.23,2.99,1.98,4.63c0.42,0.92,1.11,1.45,1.86,1.45c0.08,0,0.17-0.01,0.25-0.02c0.99-0.15,1.55-0.98,2.1-1.77
		c0.46-0.67,0.9-1.31,1.56-1.49c-0.54,1.88-1.19,3.71-1.84,5.5c-0.67,1.83-1.35,3.73-1.9,5.66c-1.72-1.37-2.89-0.94-4.6-0.13
		c-1.67,0.79-2.92,1.43-3.85,2.09C392.68,173.68,392.55,172.18,392.44,170.86z"/>
	<path class="st10" d="M453.79,412.19c-0.74,0.11-1.49,0.26-2.29,0.41c-2.97,0.57-6.35,1.22-10.01,0.31c-4.02-1-5.32-0.8-8.18-0.35
		l-0.87,0.13c-4.48,0.68-14.54,1.42-20.82-0.58c-0.2-1.59-0.08-2.76,0.33-3.15c0.11-0.1,0.24-0.13,0.41-0.11
		c2.12,2.01,6.04,2.61,10.28,2.61c3.71,0,7.66-0.46,10.86-0.83c2.67-0.31,4.98-0.58,5.65-0.36c2.32,0.77,11.07,0.64,14.5-1.88
		C454.47,409.07,454.13,411.07,453.79,412.19z"/>
	<path d="M450.56,396.75c0.15-0.04,0.66-0.14,1.09,0.22c0.46,0.4,0.64,1.21,0.5,2.34c-0.28,2.35,0.33,3.99,0.78,5.18
		c0.06,0.17,0.13,0.33,0.18,0.48c0.35,0.98,0.32,2.56,0.31,2.99c-3.14,2.39-11.8,2.61-14.12,1.85c-0.77-0.26-2.91-0.01-5.86,0.34
		c-6.69,0.78-16.75,1.95-20.64-1.55c2.11-2.29,4.8-2.81,7.17-3.12c3.78-0.49,8.63-2.8,10.98-5.91c0.77,1.02,1.84,2.02,3.82,2.26
		l0.06-0.49c-1.88-0.23-2.87-1.22-3.58-2.2c0.23-0.35,0.45-0.71,0.61-1.08h0c0.26-0.58,0.54-1.08,0.78-1.52
		c0.44-0.8,0.82-1.49,0.95-2.33c0.04-0.23,0.14-0.29,0.23-0.31c0.55-0.14,1.89,0.64,2.92,1.93c1.25,1.57,3.34,4.18,6.95,3.75
		c2.52-0.31,4.58-1.53,5.81-2.26C449.97,397.04,450.35,396.81,450.56,396.75z"/>
	<path class="st10" d="M481.57,412.11c-0.95,0.7-14.7,0.72-18.55-0.22c-0.49-1.5-0.12-2.51,0.35-3.31
		c2.72,0.55,13.37,1.43,17.24-0.22c0,0.02,0,0.03,0,0.04h0.28C481.5,409.27,481.73,411.29,481.57,412.11z"/>
	<path d="M479.13,397.66c0.63,0.42,0.63,1.76,0.63,2.95c0,0.81,0.15,1.66,0.32,2.65c0.21,1.21,0.46,2.71,0.5,4.57
		c-3.49,1.68-14.27,0.82-17.03,0.28c1.02-3.65,1.06-5.93,0.99-8.12c-0.03-1.19,0.25-2.09,0.77-2.45c0.41-0.28,0.99-0.27,1.73,0.03
		c2.4,0.98,7.93,1.25,10.52,0.19c0.35-0.14,0.65-0.22,0.91-0.24c0.01,0.08,0.01,0.17,0.02,0.25l0.49-0.05
		c0-0.04-0.01-0.08-0.01-0.12C479.03,397.62,479.09,397.63,479.13,397.66z"/>
	<path class="st7" d="M483.77,290.21c-0.22,1.87-0.49,4.1-0.78,6.51c-1.16,9.52-2.59,21.37-2.59,25.99c0,5.74,0.74,17.52,1.58,25.22
		c0.57,5.16-0.61,14.26-1.56,21.58c-0.46,3.58-0.9,6.95-1.07,9.36l-0.07,0.97c-0.47,6.53-0.99,13.86-0.83,17.19
		c-0.31,0.02-0.66,0.11-1.06,0.27c-2.44,1-7.87,0.73-10.14-0.19c-0.23-0.09-0.44-0.16-0.65-0.21c0.45-5.33-1.42-20.26-3.32-29.03
		c-0.3-1.41-0.62-2.84-0.94-4.29c-1.79-8.17-3.65-16.62-4.54-24.57c-0.47-4.18-1.17-9.18-1.85-14.01
		c-0.85-6.08-1.66-11.82-1.95-15.5c-0.42-5.27-2.2-28.87-3.84-33.9l-0.62-0.41l-0.74,0.26c-2.04,8.68-3.78,18.28-5.51,30.35
		l-0.21,1.48c-1.61,11.2-2.87,20.04-0.94,26.46c0.45,1.48,0.92,2.88,1.41,4.36c1.73,5.16,3.52,10.49,4.59,20.05
		c1.26,11.31,1.54,29.16,1.66,36.78l0.03,1.62c-0.18,0.1-0.37,0.21-0.59,0.35c-1.27,0.76-3.2,1.9-5.62,2.2
		c-3.32,0.4-5.24-1.99-6.52-3.6c-0.39-0.49-0.9-0.97-1.42-1.35c-0.67-9.92-6.48-30.18-9.82-40.63c-0.5-1.55-1.01-3.11-1.52-4.69
		c-2.9-8.89-5.89-18.08-7.86-29.32c-2.22-12.75-3.61-43.32-3.01-56.72c2.78,1.32,7.14,1.65,11.69,1.65c2.26,0,4.56-0.08,6.74-0.15
		c3.02-0.1,5.87-0.2,7.83-0.04c6.76,0.55,37.69-0.8,45.23-2.4C485.42,266.54,484.83,281.13,483.77,290.21z"/>
	<path class="st3" d="M493.95,200.37c-3.62,3.94-5.24,3.67-7.92,3.22c-0.77-0.13-1.65-0.27-2.66-0.33
		c-2.07-8.54-3.7-22.32-4.17-35.19l-0.49,0.02c0.47,12.83,2.09,26.57,4.15,35.15h0l0.07,0.29c0,0.01,0,0.02,0.01,0.02
		c1.49,6.16,2.96,16.5,4.84,31.17c1.54,11.99,2.54,24.5-1.75,26.31c-3.82,1.61-38.11,3.38-46.26,2.72
		c-1.99-0.16-4.85-0.06-7.88,0.04c-6.63,0.23-14.44,0.49-18.38-1.52c0.01-0.23-0.47-0.41-0.48-0.27c-1.21-0.74-1.96-1.74-2.07-3.09
		c-0.84-10.07-0.87-19.17-0.09-27.04c0.21-2.12,0.41-3.93,0.59-5.57c0.65-5.81,1.04-9.33,0.58-16.41
		c7.61-5.94,15.9-26.88,15.39-35.68c-0.11-1.89-0.63-3.12-1.54-3.67l-0.25,0.42c0.76,0.45,1.2,1.55,1.3,3.27
		c0.5,8.74-7.76,29.58-15.29,35.34c-2.92,2.05-9.43,1.79-14.12-1.88c-4.95-3.87-5.17-8.45-5.41-13.75
		c-0.06-1.25-0.12-2.54-0.24-3.87c-0.12-1.32-0.24-2.51-0.35-3.59c-0.94-9.36-1-9.92,5.46-12.96c1.91-0.9,2.78-1.1,4.36,0.31
		l0.3,0.26l0.1-0.38c0.56-2.05,1.29-4.06,1.99-6c0.94-2.6,1.92-5.29,2.49-8.09c1.04-5.1,2.51-11.02,5.51-16.18
		c3.22-5.53,9.84-7.27,15.68-8.8l0.34-0.09c0.5-0.13,1.53-0.45,2.83-0.85c3.74-1.15,9.98-3.06,11.31-2.92l0.71,0.08
		c0.51,0.33,1.14,0.58,1.86,0.74c-0.28,3.33,0.08,5,4.02,7.37c3.94,2.37,4.11,3.2,4.66,5.98l0.08,0.39
		c0.08,0.38,0.14,0.76,0.21,1.14c0.49,2.77,0.95,5.39,4.75,7.67c3.39,2.04,4.29,3.37,5.64,5.39c0.31,0.46,0.64,0.96,1.03,1.5
		c0.81,1.13,2.14,1.87,3.84,2.13c0.44,0.07,0.9,0.1,1.36,0.1c1.94,0,3.96-0.58,5.26-1.55c2.38-1.79,4.2-2.05,6.94-2.44l0.33-0.05
		c1.35-0.19,2.82-0.75,4.15-1.66c1.29,2.68,7.34,15.55,8.86,24.86c0.22,1.33,0.44,2.55,0.64,3.67
		C497.41,192.67,498.01,195.96,493.95,200.37z"/>
	<path d="M413.33,263.37c5.12,3.25,40.59,9.8,71.79,4.33l-0.17-5.86c-12.08,1.09-26.9,2.4-40.88,2.73c-2.62,0.06-5.2-0.89-7.73-0.91
		c-2.35-0.01-4.66,0.92-6.9,0.83c-5.39-0.22-10.41-0.69-14.8-1.49l-1.62-0.99L413.33,263.37z"/>
	<path class="st7" d="M479.2,168.06c0.07-2.49,12.62,35.09,6.23,35.43h-2.26C479.42,179.69,479.2,168.06,479.2,168.06z"/>
	<path class="st7" d="M430.68,122.56c5.67,1.09,10.13-1.14,10.86-1.22c0.73-0.08,4.63,2.68,4.63,2.68l0.24,3.9l-0.97,4.06
		l-2.54-1.49c0,0-0.58-3.68-2.52-5.23c-1.95-1.54-5.58-1.75-5.58-1.75l-4.11-0.3V122.56z"/>
	<path class="st7" d="M411.96,216.95c10.5-1.52,15.85-21.81,15.23-41.71c-1.16,7.92-3.64,15.98-8.1,24.96
		c-3.4,6.83-7.31,9.58-7.31,9.58L411.96,216.95z"/>
	<path class="st11" d="M445.94,137.04c3.46,2.81,7.58,9.96,6.93,15.91c-0.65,5.95,7.36,5.63,10.07,10.93
		c2.71,5.3,7.31,6.44,11.34,4.71c5.49-2.36,4.87-3.29,8.95-2.33c4.02,0.94,6.75-0.75,6.62-1.72c-0.13-0.97-5.37-11.7-5.37-11.7
		l-20.89-17.86L445.94,137.04z"/>
	<path d="M439.83,86.08c1.81-0.72,3.02-0.94,3.95-0.94c0.69,0,1.21,0.12,1.72,0.22c1.2,0.26,2.33,0.51,4.89-0.77
		c4.92-2.46,13.88-0.19,18.87,6.98c5.75,8.26,7.39,18.06,7.76,20.87l0.13,1.02c0.55,4.38,1.02,8.16,5.02,11.16
		c3.26,2.44,4.4,6.57,3.49,12.63c-0.42,2.79-0.9,7.75,0.6,9.63c0.37,0.47,0.84,0.72,1.4,0.77c0.31,0.02,0.6,0.04,0.88,0.05
		c0.89,0.04,1.54,0.07,1.83,0.45c0.34,0.45,0.31,1.48-0.12,3.45c-0.93,4.28-4.66,6.71-7.75,7.15l-0.33,0.05
		c-2.82,0.4-4.68,0.67-7.16,2.53c-1.51,1.13-4.08,1.69-6.25,1.36c-1.1-0.17-2.59-0.64-3.52-1.93c-0.39-0.54-0.72-1.03-1.02-1.49
		c-1.39-2.07-2.31-3.44-5.8-5.54c-3.61-2.16-4.05-4.67-4.52-7.33c-0.07-0.38-0.13-0.76-0.21-1.15l-0.08-0.39
		c-0.57-2.86-0.76-3.83-4.89-6.3c-4.04-2.43-4.1-3.95-3.68-7.98c0.42-3.96-0.39-4.85-2.53-7.22l-0.27-0.3
		c-2.07-2.3-2.06-3.81-2.05-7.83l0-1.11c0-2.78-2.17-5.37-3.55-8.38c-1.05-2.3-3.22-5.88-4.05-8.97
		C431.4,92.27,433.18,88.74,439.83,86.08z"/>
	<path class="st12" d="M459.88,301.47c-0.81-11.37-5.97-25.22-9.35-26.27c0,0-0.32-0.26-0.32-0.26c1.63,5.36,3.38,29.35,3.79,34.56
		c0.29,3.68,1.1,9.42,1.95,15.5c0.68,4.83,1.38,9.83,1.85,14.01c0.89,7.94,2.75,16.39,4.54,24.57c0.32,1.45,0.63,2.88,0.94,4.29
		c1.89,8.76,3.76,23.7,3.32,29.03c0.21,0.05,0.42,0.11,0.65,0.21c0.67,0.27,1.61,0.49,2.67,0.63c0.11-17.18-6.62-63.79-6.78-68.34
		C462.97,324.86,460.69,312.84,459.88,301.47z"/>
	<g>
		<g>
			<path class="st8" d="M392.66,175.24c-0.22-1.49-0.35-2.99-0.47-4.36c-0.15-1.76-0.06-3.54,0.19-5.29
				c0.32-2.22,1.46-4.12,3.22-5.49c0.53-0.41,1.08-0.77,1.66-1.1"/>
		</g>
		<g>
			<path class="st8" d="M410.54,145.11c-0.4-0.34-0.91-0.5-1.59-0.37c-2.92,0.56-5.74,1.54-8.51,2.62c-1.63,0.64-5.09,1.45-5.4,3.55
				c-0.14,0.97,0.33,1.95,0.61,2.85c1.09,3.52,2.36,6.67,3.89,10.01c0.34,0.74,0.97,1.43,1.85,1.29c1.84-0.28,2.12-3.29,4.05-3.32"
				/>
		</g>
		<g>
			<path class="st8" d="M444.71,131.43c-0.78-0.16-1.48-0.42-2.05-0.81c-0.38-4.33-2.45-6.71-6.91-7.04
				c-3.66-0.27-7.59-0.7-8.15-3.62c-0.56-2.93,1.83-4.42,0.07-7.6c-1.76-3.19-1.62-2.79-0.3-4.8c1.32-2.01,2.7-3.82,2.34-6.82
				c-0.23-1.95,1.9-4.71,4.03-6.06"/>
		</g>
		<g>
			<path class="st8" d="M435.43,394.28c-0.65-10.01-6.55-30.46-9.82-40.68c-3.27-10.23-7.06-20.77-9.38-34.05
				c-2.32-13.28-3.69-44.45-2.95-56.99"/>
			<path class="st8" d="M466.33,397.11c0.5-4.93-1.29-19.9-3.29-29.18c-2-9.28-4.43-19.5-5.48-28.88
				c-1.05-9.38-3.27-22.87-3.79-29.51c-0.46-5.73-2.09-25.38-3.54-33.76c-0.13-0.75-1.19-0.77-1.36-0.03
				c-1.9,8.6-3.82,19.56-5.32,30.09c-1.69,11.81-3.16,21.19-1.16,27.83c2,6.64,4.64,12.12,6.01,24.46
				c1.37,12.33,1.58,32.45,1.69,38.58"/>
			<path class="st8" d="M485.17,261.54c0.53,4.46-0.1,19.64-1.15,28.7c-1.05,9.07-3.37,26.67-3.37,32.47c0,5.8,0.74,17.5,1.58,25.19
				c0.84,7.69-2.11,23.61-2.63,30.99c-0.53,7.38-1.16,15.88-0.84,18.85"/>
		</g>
		<g>
			<path class="st8" d="M463.25,408.3c1.04-3.62,1.12-5.85,1.05-8.31c-0.05-1.71,0.53-3.6,2.85-2.65c2.32,0.95,7.8,1.23,10.33,0.19
				c2.53-1.04,2.53,1.18,2.53,3.07c0,1.9,0.84,4.08,0.84,7.8"/>
		</g>
		<g>
			<g>
				<path class="st8" d="M431.62,397.97c0.73-1.63,1.51-2.53,1.71-3.79c0.19-1.26,2.3-0.11,3.56,1.48c1.26,1.58,3.27,4.11,6.75,3.69
					c3.48-0.42,6.01-2.6,6.85-2.83c0.84-0.23,2.21,0.19,1.9,2.83c-0.32,2.64,0.53,4.36,0.95,5.55c0.42,1.19,0.32,3.2,0.32,3.2
					c-3.16,2.53-12.02,2.76-14.44,1.96c-2.42-0.8-21.29,3.94-26.77-1.43c2.21-2.53,5.06-3.06,7.48-3.37
					C424.25,404.69,429.92,401.77,431.62,397.97z"/>
			</g>
		</g>
		<g>
			<path class="st8" d="M487.02,157.63c2.85,5.88,7.51,16.86,8.8,24.78c1.48,9.07,3.16,12.86-1.69,18.13
				c-4.85,5.27-6.33,3.16-10.96,2.95c1.48,6.11,2.95,16.44,4.85,31.2c1.9,14.76,2.11,24.88-1.9,26.56c-4,1.69-38.58,3.37-46.38,2.74
				c-7.8-0.63-28.4,2.72-29.05-5.07c-0.72-8.69-0.97-18.17-0.09-27.09c0.94-9.6,1.78-12.89,1.17-22.06
				c-3.14,2.21-9.79,1.73-14.41-1.89c-6.21-4.86-5.1-10.78-5.75-17.79c-1.2-12.88-2.13-13.32,5.25-16.8
				c1.89-0.89,2.91-1.19,4.63,0.34c1.31-4.81,3.49-9.22,4.48-14.07c1.15-5.61,2.64-11.26,5.54-16.25c3.33-5.73,10.21-7.44,16.17-9
				c1.98-0.52,12.4-3.98,14.24-3.77c0.26,0.03,0.51,0.06,0.74,0.08"/>
		</g>
		<g>
			<path class="st8" d="M483.17,203.49c-2.32-9.49-3.79-23.82-4.22-35.42"/>
		</g>
		<g>
			<path class="st8" d="M453.66,408.09c1.26,0.74,0.63,3.37,0.32,4.32c-3.58,0.53-7.8,1.92-12.54,0.74
				c-4.36-1.09-5.48-0.74-8.96-0.21c-3.48,0.53-14.34,1.58-21.08-0.63c-0.32-2.32,0-3.9,1.05-3.69"/>
		</g>
		<g>
			<path class="st8" d="M480.85,407.99c0.84,0.74,1.16,3.27,0.95,4.22c-0.21,0.95-15.39,0.84-18.97-0.11
				c-0.63-1.79-0.1-2.95,0.42-3.79C465.57,408.83,477.27,409.88,480.85,407.99z"/>
		</g>
		<g>
			<g>
				<path class="st8" d="M430.94,399.17c0.75,1.06,1.79,2.18,3.84,2.43"/>
			</g>
		</g>
		<g>
			<path class="st8" d="M432.36,96.82c-1.4-5.22,1.05-8.43,7.38-10.96c6.32-2.53,5.48,1.05,10.54-1.48
				c5.06-2.53,14.12-0.21,19.18,7.06c5.06,7.27,7.17,16.13,7.8,20.98c0.63,4.85,0.84,8.85,5.06,12.02
				c4.22,3.16,4.22,8.64,3.58,12.86c-0.63,4.22-0.89,9.91,1.77,10.12c2.66,0.21,3.81-0.35,2.81,4.25c-1,4.6-5,6.92-7.95,7.34
				c-2.95,0.42-4.85,0.63-7.38,2.53c-2.53,1.9-8.01,2.32-10.12-0.63c-2.11-2.95-2.53-4.43-6.75-6.96c-4.22-2.53-4.22-5.48-4.85-8.64
				c-0.63-3.16-0.63-4-4.85-6.53c-4.22-2.53-4.22-4.21-3.8-8.22c0.42-4.01-0.42-4.76-2.74-7.33c-2.32-2.58-2.11-4.26-2.11-9.11
				C439.95,109.25,434.26,103.91,432.36,96.82z"/>
		</g>
		<g>
			<path class="st8" d="M411.77,209.78c9.08-6.93,19.23-35.89,13.98-39.02"/>
		</g>
	</g>
</g>
</svg>
