<svg xmlns="http://www.w3.org/2000/svg" width="70.694mm" height="70.694mm" viewBox="0 0 200.3925 200.3925"><defs><style>.a{fill:#f39885;}.b{fill:none;stroke:#fff;stroke-linecap:round;stroke-linejoin:round;stroke-width:4.9628px;}</style></defs><rect class="a" width="200.3925" height="200.3925" rx="45.3649"/><path class="b" d="M1019.6538,862.17v12.3991h12.3991m-52.0855,11.3516c-1.6751.3319-3.3292.6949-4.9627,1.0475-4.9577-9.92-19.8408-12.3991-29.7611-9.92l4.9576,22.3246a52.1084,52.1084,0,0,0-14.8778,27.2822L920.44,924.1759l2.4788,32.2449,12.4043-2.4788c3.1581,13.3429,12.28,23.74,22.3193,29.761l-2.4788,17.3618h24.8035v-9.92s12.3991,2.4788,24.8034,0v9.92h24.8033l-2.4788-17.3618c13.5452-8.1261,22.32-22.8432,22.32-44.644,0-13.2237-3.08-23.9322-8.5824-32.245m-65.8277,7.4416c17.3618-7.4416,34.7288,0,34.7288,0m39.6813,9.92s17.3618,2.4788,17.3618-17.3619m-7.4415,7.4416c12.4043,0,14.8831-7.4416,14.8831-7.4416m-7.4416,0a7.439,7.439,0,1,1-7.4415-7.4415A7.4417,7.4417,0,0,1,1066.7766,906.814Zm-19.8405-32.2449a27.2848,27.2848,0,1,1-27.2823-27.2822A27.2827,27.2827,0,0,1,1046.9361,874.5691Z" transform="translate(-895.8112 -828.0152)"/></svg>