<svg xmlns="http://www.w3.org/2000/svg" width="70.694mm" height="70.694mm" viewBox="0 0 200.3925 200.3925"><defs><style>.a{fill:#a1b0b6;}.b{fill:none;stroke:#fff;stroke-linecap:round;stroke-linejoin:round;stroke-width:4.5064px;}</style></defs><rect class="a" width="200.3925" height="200.3925" rx="45.3648"/><path class="b" d="M851.3776,1046.6476v24.793L864.902,1084.96M819.19,1039.8854a45.0748,45.0748,0,1,1,32.1879,76.63m-24.7879-6.7622v4.5064a13.5244,13.5244,0,0,1-27.0488,0v-4.5064m22.5372,2.2558c12.7258-5.4554,14.1208-16.9626,15.5054-28.2675.7467-6.1036.9749-12.6791-1.9706-18.28-2.6966-5.1287-7.6438-8.6809-13.0577-10.5063a29.91,29.91,0,0,0-18.98,0c-5.4087,1.8254-10.3611,5.3776-13.0577,10.5063-2.9455,5.6006-2.7173,12.1761-1.9705,18.28,1.3845,11.3049,2.7795,22.8121,15.5053,28.2675m0,54.0872c0-7.27,4.5064-24.793,4.5064-24.793-5.4554-5.45,0-13.5192,0-13.5192m9.0128,0s5.4554,8.069,0,13.5192c0,0,4.5064,17.5226,4.5064,24.793m-31.55-42.8186-2.2558,18.0256c14.5408-3.6352,20.2866-13.5192,20.2866-13.5192m27.0436-4.5064,2.2558,18.0256c-14.5408-3.6352-20.2866-13.5192-20.2866-13.5192m-60.8339,38.3122s-1.0164-26.5354,13.5244-33.8058l29.2943-13.5244m69.8519,47.33s1.0164-26.5354-13.5244-33.8058L826.59,1118.7657" transform="translate(-726.3914 -996.0343)"/></svg>