<svg xmlns="http://www.w3.org/2000/svg" xmlns:xlink="http://www.w3.org/1999/xlink" width="70.4572mm" height="70.4572mm" viewBox="0 0 199.7211 199.7212"><defs><style>.a,.d{fill:none;}.b{clip-path:url(#a);}.c{fill:#e3b54a;}.d{stroke:#fff;stroke-linecap:round;stroke-linejoin:round;stroke-width:4.9358px;}</style><clipPath id="a" transform="translate(-516.3499 -508.6356)"><rect class="a" x="516.3499" y="508.6366" width="199.7212" height="199.7212"/></clipPath></defs><g class="b"><rect class="c" width="199.7211" height="199.7212" rx="45.2129"/><path class="d" d="M652.1976,637.578a11.4531,11.4531,0,1,1,11.4531-11.4531A11.4522,11.4522,0,0,1,652.1976,637.578Zm-70.3622,0a11.4531,11.4531,0,1,1,11.4531-11.4531A11.4522,11.4522,0,0,1,581.8354,637.578Zm111.7711-.5168c0-25.661-34.1577-46.4636-76.2954-46.4636-42.1325,0-76.29,20.8026-76.29,46.4636,0,11.4117,6.7758,21.8467,17.986,29.9352V655.6673a8.8207,8.8207,0,0,1,8.8224-8.8224h28.0125a8.8207,8.8207,0,0,1,8.8224,8.8224v27.17a124.8839,124.8839,0,0,0,12.647.6926c4.114,0,8.12-.2585,12.0578-.6358V655.6673a8.8207,8.8207,0,0,1,8.8224-8.8224h28.0125a8.8207,8.8207,0,0,1,8.8224,8.8224v11.727C686.5775,659.249,693.6065,648.6642,693.6065,637.0612Zm-18.58-41.2074V574.4619a8.8208,8.8208,0,0,0-8.8224-8.8224H638.1913a8.8208,8.8208,0,0,0-8.8224,8.8224v7.4632m-24.7048.0568v-7.52a8.8208,8.8208,0,0,0-8.8224-8.8224H567.8292a8.8208,8.8208,0,0,0-8.8224,8.8224V596.2M663.6507,544.92a11.4531,11.4531,0,1,1-11.4531-11.4531A11.4523,11.4523,0,0,1,663.6507,544.92Zm-70.3622,0a11.4531,11.4531,0,1,1-11.4531-11.4531A11.4522,11.4522,0,0,1,593.2885,544.92Z" transform="translate(-516.3499 -508.6356)"/></g></svg>