<?xml version="1.0" encoding="utf-8"?>
<!-- Generator: Adobe Illustrator 23.1.0, SVG Export Plug-In . SVG Version: 6.00 Build 0)  -->
<svg version="1.1" id="Layer_1" xmlns="http://www.w3.org/2000/svg" xmlns:xlink="http://www.w3.org/1999/xlink" x="0px" y="0px"
	 viewBox="0 0 108 108" style="enable-background:new 0 0 108 108;" xml:space="preserve">
<style type="text/css">
	.st0{fill:#FFFFFF;}
	.st1{fill:#B5B5B5;}
</style>
<g>
	<path class="st0" d="M88.03,107.86H19.97c-10.95,0-19.83-8.88-19.83-19.83V19.97c0-10.95,8.88-19.83,19.83-19.83h68.05
		c10.95,0,19.83,8.88,19.83,19.83v68.05C107.86,98.98,98.98,107.86,88.03,107.86z"/>
</g>
<g>
	<g>
		<path class="st1" d="M36.28,33.26c0.17-1.46,0.36-2.96,1.12-4.22c0.54-0.89,1.33-1.6,2.18-2.21c2.87-2.08,6.57-3.19,10.05-2.46
			c1.16,0.24,2.27,0.68,3.38,1.12c1.32,0.53,2.67,1.08,3.68,2.07c0.95,0.93,1.54,2.17,1.94,3.44c0.69,2.22,0.84,4.61,0.42,6.9
			c-0.02,0.13-0.05,0.27-0.13,0.38c-0.26,0.34-0.83,0.13-1.06-0.23c-0.23-0.36-0.27-0.81-0.51-1.17c-0.5-0.77-1.59-0.8-2.48-1.02
			c-0.81-0.2-1.56-0.61-2.38-0.7c-0.94-0.11-1.86,0.2-2.78,0.4c-3.44,0.77-7.01,0.11-10.53,0.11c-0.74,0-1.64,0.13-1.94,0.8
			c-0.16,0.35-0.1,0.77-0.23,1.13c-0.12,0.37-0.61,0.67-0.88,0.4C35.33,37.24,36.17,34.18,36.28,33.26z"/>
	</g>
	<g>
		<path class="st1" d="M26.24,62.49c-0.43,0.16-0.87,0.33-1.21,0.63c-0.42,0.36-0.65,0.89-0.86,1.4c-0.76,1.89-1.27,3.88-1.49,5.9
			c-0.1,0.86-0.12,1.82,0.42,2.49c0.62,0.78,1.75,0.9,2.75,0.95c10.08,0.52,20.18,0.59,30.27,0.21c-0.45-1.71,0.31-3.6,1.62-4.79
			c1.31-1.19,3.1-1.75,4.86-1.89s3.54,0.1,5.29,0.34c0.6-1.81,0.53-3.84-0.21-5.61c-3.36-0.74-6.72-1.47-10.08-2.21
			c-0.27-0.06-0.56-0.12-0.84-0.07c-0.31,0.06-0.58,0.26-0.84,0.44c-2.69,1.83-6.13,2.07-9.38,2.09c-1.43,0.01-2.87-0.02-4.26-0.34
			c-1.31-0.3-2.55-0.87-3.64-1.65c-0.39-0.28-0.85-0.89-1.33-1c-0.58-0.14-1.5,0.26-2.06,0.39C32.2,60.5,29.19,61.4,26.24,62.49z"/>
	</g>
	<g>
		<g>
			<path d="M63.66,87.26c-4.53,0-8.07-2.3-8.07-5.24V71.41c0-2.94,3.55-5.25,8.07-5.25s8.07,2.3,8.07,5.25v10.61
				C71.73,84.96,68.19,87.26,63.66,87.26z M63.66,68.16c-3.58,0-6.07,1.71-6.07,3.25v10.61c0,1.53,2.49,3.24,6.07,3.24
				c3.58,0,6.07-1.71,6.07-3.24V71.41C69.73,69.87,67.24,68.16,63.66,68.16z"/>
		</g>
		<g>
			<path d="M63.66,76.65c-4.53,0-8.07-2.3-8.07-5.24h2c0,1.53,2.49,3.24,6.07,3.24c3.58,0,6.07-1.71,6.07-3.24h2
				C71.73,74.35,68.19,76.65,63.66,76.65z"/>
		</g>
		<g>
			<path d="M63.66,81.96c-4.53,0-8.07-2.3-8.07-5.24h2c0,1.53,2.49,3.24,6.07,3.24c3.58,0,6.07-1.71,6.07-3.24h2
				C71.73,79.65,68.19,81.96,63.66,81.96z"/>
		</g>
		<g>
			<path d="M75.51,81.8c-0.82,0-1.63-0.08-2.41-0.23l0.39-1.96c0.65,0.13,1.33,0.19,2.02,0.19c3.58,0,6.08-1.71,6.08-3.24V65.83h2
				v10.73C83.58,79.49,80.04,81.8,75.51,81.8z"/>
		</g>
		<g>
			<path d="M75.51,71.18c-0.82,0-1.63-0.08-2.41-0.23l0.39-1.96c0.65,0.13,1.33,0.19,2.02,0.19c3.58,0,6.08-1.71,6.08-3.24h2
				C83.58,68.88,80.04,71.18,75.51,71.18z"/>
		</g>
		<g>
			<path d="M75.51,76.49c-0.72,0-1.43-0.06-2.11-0.18l0.34-1.97c0.57,0.1,1.16,0.15,1.77,0.15c3.58,0,6.08-1.71,6.08-3.24h2
				C83.58,74.19,80.04,76.49,75.51,76.49z"/>
		</g>
		<g>
			<path d="M83.58,65.83h-2v-5.03c0-1.53-2.5-3.24-6.08-3.24s-6.07,1.71-6.07,3.24v4.7h-2v-4.7c0-2.94,3.55-5.24,8.07-5.24
				c4.53,0,8.08,2.3,8.08,5.24V65.83z"/>
		</g>
		<g>
			<path d="M75.51,66.04c-4.53,0-8.07-2.3-8.07-5.25h2c0,1.54,2.49,3.25,6.07,3.25s6.08-1.71,6.08-3.25h2
				C83.58,63.74,80.04,66.04,75.51,66.04z"/>
		</g>
	</g>
	<g>
		<g>
			<path d="M47.44,57.98c-2.78,0-5.44-1.39-7.48-3.93c-1.59-1.98-2.7-4.48-3.23-7.28c-1.16-0.29-2.02-1.34-2.02-2.59v-3.42
				c0.05-1.12,0.73-2.03,1.68-2.41v-0.87c0-1.47,1.2-2.67,2.67-2.67h10.05c0.42,0,0.84-0.11,1.2-0.33c0.99-0.59,2.21-0.59,3.2,0
				c0.36,0.22,0.77,0.33,1.2,0.33h1.11c1.47,0,2.67,1.2,2.67,2.67v0.87c0.95,0.38,1.63,1.29,1.67,2.37l0,0.11v3.35
				c0,1.25-0.86,2.3-2.02,2.59c-0.53,2.8-1.63,5.3-3.23,7.28C52.88,56.58,50.23,57.98,47.44,57.98z M38.45,44.76l0.14,0.94
				c0.4,2.72,1.44,5.25,2.94,7.1c1.65,2.05,3.75,3.18,5.92,3.18c2.17,0,4.27-1.13,5.92-3.18c1.5-1.86,2.54-4.38,2.94-7.1l0.14-0.94
				l1.06,0.1c0.37,0,0.67-0.3,0.67-0.67v-3.35c-0.01-0.39-0.31-0.68-0.67-0.68h-1v-2.68c0-0.37-0.3-0.67-0.67-0.67h-1.11
				c-0.79,0-1.55-0.21-2.22-0.61c-0.36-0.21-0.79-0.21-1.14,0c-0.67,0.4-1.44,0.61-2.23,0.61H39.07c-0.37,0-0.67,0.3-0.67,0.67v2.68
				h-1c-0.36,0-0.66,0.29-0.68,0.65v3.38c0,0.37,0.3,0.67,0.68,0.67l0.11-0.01L38.45,44.76z"/>
		</g>
		<g>
			<path d="M60.17,40.76h-2l0-6.58c-0.03-5.04-4.84-9.11-10.72-9.11c-5.88,0-10.7,4.06-10.72,9.06l0,6.62h-2v-6.58
				c0.04-6.15,5.74-11.11,12.73-11.11c6.98,0,12.69,4.96,12.72,11.05V40.76z"/>
		</g>
		<g>
			<path d="M65.19,62.31l-13.27-3.18l1.18-0.98c0.01-0.94,0.03-3.22,0.04-4.73l2,0.01c-0.01,2.21-0.02,3.56-0.05,4.4l10.57,2.54
				L65.19,62.31z"/>
		</g>
		<g>
			<path d="M29.98,75.33h-4.96c-0.9,0-1.74-0.41-2.3-1.11c-0.56-0.71-0.76-1.62-0.55-2.5L24,63.99c0.05-0.18,0.1-0.34,0.17-0.49
				c0.01-0.04,0.05-0.1,0.08-0.17c0.06-0.13,0.1-0.2,0.14-0.27l0.09-0.14c0.05-0.09,0.1-0.17,0.16-0.25l0.1-0.13
				c0.1-0.14,0.15-0.2,0.2-0.26l0.31-0.34c0.06-0.06,0.12-0.12,0.18-0.17c0.04-0.04,0.1-0.09,0.16-0.15l0.19-0.15
				c0.2-0.16,0.46-0.32,0.74-0.38l13.26-3.24l-0.04-4.4l2-0.02l0.06,5.99L27.11,63c-0.06,0.03-0.13,0.07-0.17,0.09l-0.67,0.73
				c-0.03,0.04-0.05,0.07-0.07,0.11l-0.95-0.37l0.86,0.5l-0.08,0.15c-0.06,0.13-0.09,0.2-0.1,0.26l-1.83,7.71
				c-0.07,0.28,0,0.57,0.18,0.79c0.18,0.23,0.44,0.35,0.73,0.35h4.96V75.33z"/>
		</g>
		<g>
			<rect x="30.12" y="73.33" width="24.02" height="2"/>
		</g>
		<g>
			<rect x="28.16" y="73.33" width="5.64" height="2"/>
		</g>
		<g>
			<path d="M47.67,64.06c-3.83,0-7.5-1.32-10.89-3.91L38,58.56c3.04,2.32,6.29,3.5,9.68,3.5c3.37,0,6.61-1.17,9.64-3.47l1.21,1.59
				C55.14,62.75,51.49,64.06,47.67,64.06z"/>
		</g>
	</g>
	<g>
		<g>
			<path d="M76.03,48.64c-5.74,0-10.41-4.67-10.41-10.41c0-5.74,4.67-10.41,10.41-10.41s10.41,4.67,10.41,10.41
				C86.45,43.97,81.77,48.64,76.03,48.64z M76.03,29.81c-4.64,0-8.41,3.77-8.41,8.41c0,4.64,3.77,8.41,8.41,8.41
				s8.41-3.77,8.41-8.41C84.45,33.59,80.67,29.81,76.03,29.81z"/>
		</g>
		<g>
			<rect x="73.67" y="34.11" transform="matrix(0.5582 -0.8297 0.8297 0.5582 2.0368 78.4441)" width="2" height="6.39"/>
		</g>
		<g>
			<rect x="73.33" y="34.83" transform="matrix(0.5594 -0.8289 0.8289 0.5594 4.5135 80.1502)" width="8.65" height="2"/>
		</g>
	</g>
</g>
</svg>
