<?xml version="1.0" encoding="utf-8"?>
<!-- Generator: Adobe Illustrator 23.1.0, SVG Export Plug-In . SVG Version: 6.00 Build 0)  -->
<svg version="1.1" id="Layer_1" xmlns="http://www.w3.org/2000/svg" xmlns:xlink="http://www.w3.org/1999/xlink" x="0px" y="0px"
	 viewBox="0 0 108 108" style="enable-background:new 0 0 108 108;" xml:space="preserve">
<style type="text/css">
	.st0{fill:#FFFFFF;}
	.st1{fill:#B5B5B5;}
</style>
<g>
	<path class="st0" d="M88.57,108.26H20.51c-10.95,0-19.83-8.88-19.83-19.83V20.38c0-10.95,8.88-19.83,19.83-19.83h68.05
		c10.95,0,19.83,8.88,19.83,19.83v68.05C108.4,99.38,99.52,108.26,88.57,108.26z"/>
</g>
<g>
	<g>
		<path class="st1" d="M50.78,49.32c1.37-0.06,2.74-0.12,4.07-0.42c1.08-0.24,2.24-0.63,3.25-0.19c0.47,0.21,0.85,0.57,1.3,0.82
			c0.45,0.25,1.04,0.37,1.46,0.06c0.44-0.33,0.47-0.96,0.47-1.51c-0.02-1.11-0.04-2.26-0.54-3.25c-0.34-0.67-0.88-1.22-1.47-1.69
			c-2.45-1.96-5.99-2.53-8.87-1.3c-2.14,0.91-3.83,2.82-4.53,5.03c-0.24,0.78-0.7,2.14,0.2,2.61
			C47.07,49.98,49.67,49.37,50.78,49.32z"/>
	</g>
	<g>
		<path class="st1" d="M93.87,71.95c-0.43-0.37-1.04-0.41-1.6-0.44c-4.27-0.22-8.54-0.33-12.81-0.31c-1.51,0.01-3.16,0.08-4.28,1.09
			c-1.87,1.69-2.07,7.37-4.17,8.77c-0.06-0.09-3.11-0.19-3.15-0.28c0,0.6-4.76-0.1-4.54,0.57c0,0-0.52,0.71-2.68,4.11
			c8.66,0.05,17.33-0.13,25.99-0.31c0.49-0.01,1-0.02,1.45-0.24c0.52-0.26,0.88-0.76,1.2-1.25c1.81-2.75,3.38-5.67,4.67-8.7
			C94.36,73.96,94.69,72.65,93.87,71.95z"/>
	</g>
	<g>
		<path d="M39.74,62.98c-0.4,0-0.8-0.17-1.08-0.48l-7.05-7.67l-1.44,0.02c-0.01,0-0.02,0-0.03,0c-1.44,0-2.78-0.56-3.8-1.57
			c-1.02-1.02-1.58-2.37-1.58-3.81v-20.8c0-2.96,2.41-5.37,5.37-5.37H72.5c2.97,0,5.39,2.42,5.39,5.39v20.74
			c0,2.97-2.42,5.39-5.39,5.39h-8.58v-2h8.58c1.87,0,3.39-1.52,3.39-3.39V28.7c0-1.87-1.52-3.39-3.39-3.39H30.13
			c-1.86,0-3.37,1.51-3.37,3.37v20.8c0,0.91,0.35,1.76,1,2.39c0.64,0.63,1.48,0.98,2.38,0.98c0.01,0,0.01,0,0.02,0l2.32-0.03
			l6.74,7.33v-7.33h3.36v2h-1.36v6.67c0,0.61-0.37,1.15-0.94,1.37C40.1,62.95,39.92,62.98,39.74,62.98z"/>
	</g>
	<g>
		<rect x="34.21" y="31.34" width="11.33" height="2"/>
	</g>
	<g>
		<rect x="34.21" y="36.34" width="31.32" height="2"/>
	</g>
	<g>
		<path d="M36.14,85.41h-2V74.98c0-5.62,7.23-9.05,13.99-10.38l0.39,1.96c-6.16,1.21-12.37,4.28-12.37,8.42V85.41z"/>
	</g>
	<g>
		<path d="M72.61,79.92h-2v-4.93c0-4.13-6.22-7.21-12.38-8.42l0.39-1.96c6.76,1.33,13.99,4.75,13.99,10.38V79.92z"/>
	</g>
	<g>
		<rect x="62.32" y="78.3" width="2" height="3.04"/>
	</g>
	<g>
		<rect x="42.43" y="78.3" width="2" height="7.12"/>
	</g>
	<g>
		<rect x="26.66" y="84.41" width="49.92" height="2"/>
	</g>
	<g>
		<path d="M87.35,86.41h-20.8v-2h20.8c0.32,0,0.61-0.18,0.75-0.46l5.82-11.65c0.07-0.14,0.02-0.25-0.01-0.31s-0.11-0.15-0.27-0.15
			H77.81c-1.08,0-2.05,0.64-2.47,1.63l-3.67,8.56h-7.78l-1.59,3.4l-1.81-0.85l2.13-4.55h7.73l3.15-7.35
			c0.74-1.73,2.43-2.84,4.31-2.84h15.83c0.81,0,1.54,0.41,1.97,1.1s0.46,1.53,0.1,2.25l-5.82,11.64
			C89.4,85.81,88.43,86.41,87.35,86.41z"/>
	</g>
	<g>
		<g>
			<path d="M53.38,65.42c-2.06,0-4.02-1.02-5.51-2.88c-1.12-1.39-1.91-3.14-2.31-5.1c-0.85-0.3-1.47-1.11-1.47-2.06v-2.42
				c0.04-0.84,0.51-1.54,1.19-1.89v-0.43c0-1.2,0.98-2.18,2.18-2.18h7.1c0.25,0,0.49-0.07,0.7-0.19c0.79-0.47,1.77-0.47,2.56,0
				c0.21,0.13,0.45,0.19,0.7,0.19h0.78c1.2,0,2.18,0.98,2.18,2.18v0.42c0.68,0.35,1.15,1.04,1.18,1.85l0,2.46
				c0,0.95-0.61,1.77-1.47,2.06c-0.39,1.95-1.18,3.7-2.31,5.1C57.39,64.4,55.43,65.42,53.38,65.42z M47.22,55.47l0.18,0.94
				c0.27,1.88,0.99,3.61,2.01,4.88c1.11,1.38,2.52,2.14,3.96,2.14c1.44,0,2.85-0.76,3.96-2.14c1.02-1.27,1.74-3,2.01-4.88l0.14-0.95
				l0.95,0.1c0.13,0,0.23-0.08,0.23-0.18v-2.37c0-0.1-0.08-0.18-0.18-0.18h-1v-2.18c0-0.1-0.08-0.18-0.18-0.18h-0.78
				c-0.61,0-1.2-0.16-1.72-0.47c-0.16-0.1-0.35-0.1-0.51,0c-0.52,0.31-1.12,0.48-1.72,0.48h-7.1c-0.1,0-0.18,0.08-0.18,0.18v2.19h-1
				c-0.1,0-0.18,0.08-0.19,0.18l0,2.38c0,0.1,0.08,0.18,0.19,0.18L47.22,55.47z"/>
		</g>
		<g>
			<path d="M62.66,52.96h-2l0-4.65c-0.02-3.4-3.29-6.14-7.29-6.14c-4,0-7.27,2.74-7.29,6.11l0,4.68h-2v-4.65
				c0.03-4.51,4.19-8.14,9.29-8.14c5.09,0,9.26,3.63,9.29,8.1V52.96z"/>
		</g>
	</g>
	<g>
		<rect x="47.64" y="61.91" width="2" height="4.88"/>
	</g>
	<g>
		<rect x="56.99" y="61.91" width="2" height="4.88"/>
	</g>
	<g>
		<path d="M53.38,69.49c-3.18,0-5.86-1.2-6.68-2.98l1.82-0.83c0.41,0.89,2.34,1.81,4.86,1.81c2.6,0,4.53-0.95,4.89-1.87l1.87,0.72
			C59.4,68.23,56.69,69.49,53.38,69.49z"/>
	</g>
</g>
</svg>
