<?xml version="1.0" encoding="utf-8"?>
<!-- Generator: Adobe Illustrator 23.1.0, SVG Export Plug-In . SVG Version: 6.00 Build 0)  -->
<svg version="1.1" id="Layer_1" xmlns="http://www.w3.org/2000/svg" xmlns:xlink="http://www.w3.org/1999/xlink" x="0px" y="0px"
	 viewBox="0 0 108 108" style="enable-background:new 0 0 108 108;" xml:space="preserve">
<style type="text/css">
	.st0{fill:#FFFFFF;}
	.st1{fill:#B5B5B5;}
</style>
<g>
	<path class="st0" d="M88.57,108.26H20.51c-10.95,0-19.83-8.88-19.83-19.83V20.38c0-10.95,8.88-19.83,19.83-19.83h68.05
		c10.95,0,19.83,8.88,19.83,19.83v68.05C108.4,99.38,99.52,108.26,88.57,108.26z"/>
</g>
<g>
	<g>
		<path class="st1" d="M74.63,50.55l-3.08-2.82V78.4c0,2.59-2.1,4.68-4.68,4.68H42.22c-0.23,0-0.46-0.04-0.68-0.07v3.39
			c0,2.59,2.1,4.68,4.68,4.68h24.65c2.59,0,4.68-2.1,4.68-4.68V52.64C75.55,51.85,75.22,51.09,74.63,50.55z"/>
	</g>
	<g>
		<path d="M66.87,84.08H42.22c-3.13,0-5.68-2.55-5.68-5.68V44.64c0-1.07,0.45-2.1,1.24-2.83l14.35-13.15c1.38-1.26,3.46-1.26,4.83,0
			l5.34,4.9l-1.35,1.47l-5.34-4.9c-0.61-0.56-1.52-0.56-2.13,0L39.13,43.29c-0.38,0.35-0.59,0.84-0.59,1.35V78.4
			c0,2.03,1.65,3.68,3.68,3.68h24.65c2.03,0,3.68-1.65,3.68-3.68V44.64c0-0.51-0.22-1.01-0.59-1.35l-6.17-5.65l1.35-1.47l6.17,5.65
			c0.79,0.72,1.24,1.75,1.24,2.83V78.4C72.55,81.53,70,84.08,66.87,84.08z"/>
	</g>
	<g>
		<path d="M48.87,61.09h-1.42c-2.11,0-3.83-1.72-3.83-3.83v-1.42c0-2.11,1.72-3.83,3.83-3.83h1.42c2.11,0,3.83,1.72,3.83,3.83v1.42
			C52.71,59.37,50.99,61.09,48.87,61.09z M47.45,54c-1.01,0-1.83,0.82-1.83,1.83v1.42c0,1.01,0.82,1.83,1.83,1.83h1.42
			c1.01,0,1.83-0.82,1.83-1.83v-1.42c0-1.01-0.82-1.83-1.83-1.83H47.45z"/>
	</g>
	<g>
		<path d="M61.63,71.01h-1.42c-2.11,0-3.83-1.72-3.83-3.83v-1.42c0-2.11,1.72-3.83,3.83-3.83h1.42c2.11,0,3.83,1.72,3.83,3.83v1.42
			C65.46,69.29,63.74,71.01,61.63,71.01z M60.21,63.92c-1.01,0-1.83,0.82-1.83,1.83v1.42c0,1.01,0.82,1.83,1.83,1.83h1.42
			c1.01,0,1.83-0.82,1.83-1.83v-1.42c0-1.01-0.82-1.83-1.83-1.83H60.21z"/>
	</g>
	<g>
		<rect x="43.11" y="60.5" transform="matrix(0.4961 -0.8682 0.8682 0.4961 -25.9196 78.3447)" width="22.85" height="2"/>
	</g>
	<g>
		<path d="M54.54,38.73v-2c4.92,0,8.92-4,8.92-8.92c0-2.45-0.97-4.73-2.73-6.43c-1.76-1.7-4.08-2.58-6.53-2.49
			c-4.75,0.18-8.68,4.35-8.57,9.12c0.03,1.26,0.32,2.48,0.85,3.62l-1.81,0.86c-0.66-1.39-1.01-2.88-1.05-4.43
			c-0.13-5.93,4.58-10.94,10.5-11.16c3-0.11,5.84,0.97,8,3.05c2.16,2.08,3.35,4.87,3.35,7.87C65.46,33.83,60.56,38.73,54.54,38.73z"
			/>
	</g>
	<g>
		<path d="M54.54,41.35c-2.07,0-3.75-1.68-3.75-3.75c0-2.07,1.68-3.75,3.75-3.75c2.07,0,3.75,1.68,3.75,3.75
			C58.29,39.67,56.61,41.35,54.54,41.35z M54.54,35.85c-0.96,0-1.75,0.79-1.75,1.75s0.79,1.75,1.75,1.75s1.75-0.78,1.75-1.75
			S55.51,35.85,54.54,35.85z"/>
	</g>
</g>
</svg>
