<?xml version="1.0" encoding="utf-8"?>
<!-- Generator: Adobe Illustrator 23.1.0, SVG Export Plug-In . SVG Version: 6.00 Build 0)  -->
<svg version="1.1" id="Layer_1" xmlns="http://www.w3.org/2000/svg" xmlns:xlink="http://www.w3.org/1999/xlink" x="0px" y="0px"
	 viewBox="0 0 580 430" style="enable-background:new 0 0 580 430;" xml:space="preserve">
<style type="text/css">
	.st0{fill:#CECECE;}
	.st1{fill:#FF7600;}
	.st2{fill:#E66A00;}
	.st3{fill:#FFFFFF;}
	.st4{fill:#B5B5B5;}
</style>
<g>
	<path class="st0" d="M127.68,10.06C55.61,23.54,5,66.08,3.09,135.63c-2.6,94.44,96.73,149.03,186.49,116.41
		s126.46-146.53,86.03-203.52C241.43,0.34,191.66-1.91,127.68,10.06z"/>
</g>
<g>
	<path class="st1" d="M547.82,201.42c-16.36,129.05-137.8,117.26-254.71,172.16c-102.21,47.99-162.48-0.37-182.46-79.06
		C88.98,209.17,166.19,74.85,325.81,51.85C479.91,29.65,557.08,128.36,547.82,201.42z"/>
</g>
<g>
	<path class="st2" d="M189.58,252.04c83.53-30.35,121.09-131.09,93.34-190.86c-111.5,32.96-172.6,123.64-175.7,197.56
		C133.4,263.85,161.94,262.08,189.58,252.04z"/>
</g>
<g>
	<g>
		<circle class="st3" cx="491.66" cy="87.94" r="40.56"/>
	</g>
	<g id="handset_3_">
		<path d="M502.24,111.56c-0.02,0-0.03,0-0.04,0c-4.98-0.04-14.69-7.36-20.66-17.79l-0.24-0.42c-5.98-10.43-7.38-22.51-4.9-26.82
			c0.78-1.36,1.78-1.65,2.48-1.66l6.41,0.29c0.72,0.04,1.36,0.47,1.76,1.17l0.04,0.09c0.39,0.64,0.4,1.09,0.44,2.22
			c0.01,0.43,0.03,0.97,0.06,1.68c0.14,1.22,0.33,2.8,0.54,3.88c0.24,1.26-0.44,2.49-1.55,2.8l-1.67,0.45
			c-0.43,0.12-0.81,0.41-1.03,0.8c-0.54,0.96,0.69,4.69,3.13,9.49c0.45,0.87,0.83,1.58,1.07,2c0.24,0.42,0.66,1.11,1.19,1.94
			c2.9,4.54,5.49,7.48,6.6,7.5c0.5,0.02,0.89-0.17,1.21-0.48l1.23-1.21c0.83-0.8,2.23-0.77,3.2,0.08c0.8,0.7,2.02,1.63,3.1,2.45
			c0.57,0.37,1.03,0.66,1.39,0.89c0.97,0.6,1.34,0.84,1.7,1.51l0.07,0.11c0.38,0.66,0.42,1.43,0.1,2.07l-2.98,5.66
			C504.53,110.85,503.78,111.56,502.24,111.56z M482.18,92.84l0.24,0.42c6.1,10.65,15.63,17.24,19.78,17.27c0.01,0,0.02,0,0.04,0
			c0.85,0,1.44-0.27,1.76-0.8l2.97-5.63c0.16-0.31,0.13-0.7-0.07-1.08l-0.07-0.1c-0.23-0.45-0.4-0.56-1.36-1.16
			c-0.37-0.23-0.83-0.52-1.44-0.92c-1.12-0.84-2.36-1.79-3.18-2.51c-0.56-0.49-1.37-0.54-1.81-0.12l-1.22,1.21
			c-0.52,0.51-1.27,0.8-1.95,0.78c-1.96-0.03-5.13-4.35-7.45-7.97c-0.54-0.84-0.96-1.55-1.21-1.98c-0.25-0.43-0.64-1.16-1.1-2.05
			c-1.95-3.83-4.07-8.75-3.11-10.46c0.35-0.63,0.96-1.1,1.66-1.29l1.67-0.44c0.58-0.16,0.95-0.89,0.81-1.62
			c-0.21-1.11-0.41-2.71-0.55-3.98c-0.04-0.75-0.06-1.3-0.07-1.73c-0.03-1.14-0.04-1.34-0.32-1.77l-0.05-0.11
			c-0.2-0.35-0.54-0.59-0.9-0.61l-6.38-0.29c-0.6,0.01-1.14,0.39-1.57,1.14C475.22,70.64,476.09,82.19,482.18,92.84z"/>
	</g>
</g>
<g>
	<g>
		<circle class="st3" cx="268.42" cy="385.76" r="40.56"/>
	</g>
	<g>
		<g>
			<path d="M284.8,400.75h-32.76c-2.29,0-4.15-1.86-4.15-4.15v-18.84h1.03v18.84c0,1.72,1.4,3.13,3.13,3.13h32.76
				c1.72,0,3.13-1.4,3.13-3.13v-18.84h1.03v18.84C288.95,398.89,287.09,400.75,284.8,400.75z"/>
		</g>
		<g>
			<path d="M268.42,388.87c-0.93,0-1.86-0.29-2.66-0.87l-17-14.09c-0.58-0.48-0.79-1.25-0.54-1.96c0.26-0.71,0.91-1.17,1.67-1.17
				h37.05c0.76,0,1.41,0.46,1.67,1.17c0.26,0.71,0.05,1.48-0.54,1.96l-17,14.09C270.28,388.58,269.35,388.87,268.42,388.87z
				 M249.89,371.81c-0.48,0-0.66,0.38-0.7,0.49c-0.04,0.12-0.15,0.52,0.23,0.83l16.97,14.07c1.2,0.87,2.84,0.87,4.06-0.01
				l16.96-14.06c0.37-0.31,0.27-0.71,0.23-0.83c-0.04-0.12-0.22-0.49-0.7-0.49H249.89z"/>
		</g>
	</g>
</g>
<g>
	<path class="st4" d="M12.18,23.71h194.69c4.75,0,8.62,3.87,8.62,8.62v2.35H3.56v-2.35C3.56,27.58,7.43,23.71,12.18,23.71z"/>
</g>
<g>
	<path class="st4" d="M167.74,101.79H405c4.75,0,8.62,3.87,8.62,8.62v2.35h-254.5v-2.35C159.12,105.66,162.99,101.79,167.74,101.79z
		"/>
</g>
<g>
	<path class="st3" d="M392.68,314.3H155.42c7.57,0,3.7-3.87,3.7-8.62V113.62h254.5v192.07C413.62,310.43,409.75,314.3,392.68,314.3z
		"/>
</g>
<g>
	<path d="M222.31,175.11v-61.5h-64.32v70.12h55.7C218.44,183.73,222.31,179.87,222.31,175.11z"/>
</g>
<g>
	<path d="M206.91,262.9v52.26h-52v-60.88h43.38C203.04,254.28,206.91,258.15,206.91,262.9z"/>
</g>
<g>
	<g>
		<path d="M392.68,315.24H155.42v-1.03c1.95,0,3.13-0.29,3.6-0.89c0.53-0.68,0.22-1.9-0.16-3.45c-0.31-1.25-0.67-2.67-0.67-4.19
			V110.41c0-5.27,4.29-9.56,9.56-9.56H405c5.27,0,9.56,4.29,9.56,9.56v195.27C414.56,312.29,407.81,315.24,392.68,315.24z
			 M159.59,314.21h233.08c18.69,0,20.85-4.87,20.85-8.53V110.41c0-4.7-3.83-8.53-8.53-8.53H167.74c-4.7,0-8.53,3.83-8.53,8.53
			v195.27c0,1.4,0.34,2.75,0.64,3.94c0.44,1.75,0.82,3.26-0.02,4.33C159.76,314.05,159.68,314.13,159.59,314.21z"/>
	</g>
	<g>
		<rect x="158.7" y="112.68" width="255.35" height="1.03"/>
	</g>
	<g>
		<path d="M169.43,108.3c-0.59,0-1.08-0.48-1.08-1.08c0-0.59,0.48-1.08,1.08-1.08s1.08,0.48,1.08,1.08
			C170.51,107.82,170.03,108.3,169.43,108.3z M169.38,107.23c0,0.03,0.02,0.05,0.05,0.05L169.38,107.23z"/>
	</g>
	<g>
		<path d="M175.35,108.3c-0.59,0-1.08-0.48-1.08-1.08c0-0.59,0.48-1.08,1.08-1.08s1.08,0.48,1.08,1.08
			C176.42,107.82,175.94,108.3,175.35,108.3z M175.3,107.23c0,0.03,0.02,0.05,0.05,0.05L175.3,107.23z"/>
	</g>
	<g>
		<path d="M181.26,108.3c-0.59,0-1.07-0.48-1.07-1.08c0-0.59,0.48-1.08,1.07-1.08c0.59,0,1.08,0.48,1.08,1.08
			C182.33,107.82,181.85,108.3,181.26,108.3z M181.21,107.23c0,0.03,0.02,0.05,0.05,0.05L181.21,107.23z"/>
	</g>
</g>
<g>
	<g>
		<path class="st4" d="M335.76,286.9c0.56,0.82,1.05,1.63,1.48,2.44c-4.81-5.87-9.86-10.89-13.28-14.29
			c-1.18-1.17-2.17-2.15-2.9-2.93c-0.32-0.33-0.64-0.71-0.97-1.1c-22.83,18.15-46.82,25.27-55.58,25.27c-1.53,0-2.59-0.22-3.11-0.63
			c-0.07-0.06-0.11-0.12-0.16-0.18c-2.8,5.03-6.54,12.05-9.38,19.24l98.35-0.43C352.59,310.29,343.3,296.75,335.76,286.9z"/>
	</g>
	<g>
		<path d="M335.76,286.9c0.56,0.82,1.05,1.63,1.48,2.44c-4.81-5.87-9.86-10.89-13.28-14.29c-1.18-1.17-2.17-2.15-2.9-2.93
			c-0.32-0.33-0.64-0.71-0.97-1.1c-2.71,2.15-5.43,4.15-8.15,6c7.38,11.29,10.91,24.18,11.4,37.39l26.87-0.12
			C352.59,310.29,343.3,296.75,335.76,286.9z"/>
	</g>
	<g>
		<path class="st4" d="M239.65,155.49c-2.6-13.28,0.9-21.48,10.39-24.37l0.1-0.05c8.96-5.69,19.17-4.64,26.01,2.66l0.14,0.15
			l0.21-0.02c7.75-0.65,11.43,2.66,15.01,5.86c1.32,1.18,2.57,2.3,3.99,3.19c5.18,3.24,9.81,3.44,15.68,3.69l0.41,0.02
			c5.16,0.22,21.66,4.6,26.31,16c4.8,11.78,4.55,36.12-5.62,45.6c-10.32,9.62-21.79,27.72-23.26,31.33
			c-1.76-0.34-10.06-2.5-12.87-13.3l-0.41,0.11c3.15-1.32,6.36-4.39,8.47-10.1c3.37-9.15-1.13-11.85-3.56-13.3
			c-0.19-0.11-0.36-0.22-0.52-0.32c-1.27-0.81-3.69-1.36-6.24-0.78c-1.83,0.42-4.43,1.59-6.52,4.8l-2.03-0.03
			c-0.55-3.87-1.91-7.4-3.23-10.82c-2.8-7.26-5.45-14.12,0.01-23.3c1.06-0.64,7.43-4.59,7.28-5.33l-0.09-0.35h-0.35
			c-0.11,0-0.23,0.03-1.11,0.28c-9.38,2.68-17.72,4.07-24.79,4.14C255.48,171.39,242.12,168.13,239.65,155.49z"/>
	</g>
	<g>
		<path d="M305.06,213.34c-0.19,0.9-0.47,1.87-0.87,2.94c-2.11,5.71-5.32,8.78-8.47,10.1l0.41-0.11
			c2.81,10.8,11.11,12.96,12.87,13.3c1.47-3.62,12.94-21.71,23.26-31.33c4.52-4.22,7.08-11.37,8.11-19.06
			C332.98,202.2,320.12,211.56,305.06,213.34z"/>
	</g>
	<g>
		<path class="st3" d="M269.08,260.45c1.47-1.12,10.52-8.36,11.29-17.24c0,0-0.32,0.07-0.85,0.19c0.02-0.01,0.04-0.02,0.06-0.02
			c0.4-0.15,0.71-0.27,0.91-0.33l-0.23-0.82c-0.22,0.06-0.54,0.18-0.98,0.35c-2.29,0.87-7.64,2.9-17.87,3.64
			c-12.71,0.91-19.97-4.36-21.5-6.28c-1.15-1.44,0.15-4.05,1.1-5.95c0.53-1.06,0.94-1.89,0.94-2.47c0-1.15-1.06-1.59-1.99-1.98
			c-0.56-0.23-1.13-0.47-1.43-0.83c-0.16-0.2-0.21-0.44-0.14-0.75c0.17-0.78,1.14-1.94,2.92-2.8l0.82-0.39l-3.37-1.55
			c-0.38-0.17-0.61-0.42-0.72-0.78c-0.22-0.74,0.19-1.73,0.31-1.91c0.01-0.02,0.95-1.47,1.68-3.53c2.7-0.54,5.67-3.35,4.74-3.22
			c-0.71,0.1-3.54,0.01-6.53-0.25c-1.3-0.29-2.92-0.66-4.03-0.96c-0.74-0.2-1.31-0.74-1.58-1.51c-0.31-0.86-0.21-1.88,0.25-2.52
			c0.32-0.45,0.81-1.31,1.49-2.5c1.43-2.5,3.59-6.29,6.11-9.61c3.7-4.86,3.96-8.94,4.16-11.92l0.01-0.22
			c0.16-2.33,0.38-5.71,3.75-12.09c0.41,5.18,19.17,0.91,31.11-2.11c2.44-0.52,4.95-1.14,7.56-1.86c-1.89,1.35-4.9,3.36-5.46,3.6
			l-0.13,0.05l-0.07,0.12c-5.73,9.59-3.01,16.65-0.12,24.13c1.34,3.47,2.73,7.07,3.23,10.99l0.05,0.37l3.24,0.04l0.13-0.2
			c1.95-3.11,4.4-4.23,6.11-4.62c2.3-0.52,4.52-0.02,5.6,0.66c0.16,0.1,0.34,0.21,0.54,0.33c2.36,1.42,6.32,3.78,3.2,12.27
			c-4.09,11.09-11.39,10.48-12.81,10.24c-1.14-0.19-1.93-0.59-2.32-1.18c-0.4-0.6-0.27-1.2-0.26-1.22l-0.83-0.21
			c-0.01,0.04-0.23,0.97,0.37,1.88c0.27,0.42,0.67,0.76,1.18,1.02c3.02,4.45,8.44,7.05,10.47,7.9c3.12,3.85,6.94,5.29,8.85,5.8
			c-1.09,7.95,5.78,22.91,11.51,30.15c-26.01,20.67-54.41,27.24-57.61,24.64c-0.13-0.11-0.25-0.25-0.08-0.62
			c1.88-3.32,3.6-6.12,4.97-8.34c2-3.24,3.32-5.39,3.61-6.6C270.91,277.43,270.2,268.63,269.08,260.45z"/>
	</g>
	<g>
		<g>
			<path d="M252.34,314.49l-0.96-0.37c5.07-13.02,11.06-22.74,14.65-28.55c1.88-3.05,3.24-5.26,3.49-6.32
				c0.72-3.07-1.85-27.64-4.26-32.86l0.93-0.43c2.25,4.88,5.17,29.93,4.33,33.52c-0.29,1.23-1.61,3.38-3.62,6.63
				C263.34,291.88,257.38,301.55,252.34,314.49z"/>
		</g>
		<g>
			<path d="M350.54,314.39c-2.69-15.47-18.86-31.55-26.64-39.27c-1.18-1.17-2.17-2.16-2.91-2.93c-6-6.31-14.39-23.62-13.02-32.22
				l1.01,0.16c-1.3,8.19,7.03,25.33,12.75,31.36c0.73,0.77,1.72,1.75,2.89,2.91c7.85,7.8,24.18,24.03,26.92,39.82L350.54,314.39z"/>
		</g>
		<g>
			<path d="M258.6,247.27c-10.17,0-17.23-3.98-19.43-6.74c-1.52-1.91-0.07-4.83,0.99-6.96c0.42-0.83,0.85-1.7,0.85-2.05
				c0-0.47-0.45-0.71-1.41-1.11c-0.66-0.28-1.35-0.56-1.79-1.1c-0.35-0.42-0.46-0.96-0.33-1.55c0.23-1.02,1.16-2.09,2.52-2.94
				l-1.61-0.74c-0.62-0.28-1.05-0.75-1.23-1.37c-0.34-1.17,0.29-2.49,0.43-2.7c0.02-0.02,1.5-2.3,2.11-5.2
				c-1.15-0.24-4.02-0.87-5.71-1.33c-1.05-0.29-1.84-1.03-2.22-2.1c-0.41-1.16-0.27-2.48,0.37-3.38c0.29-0.41,0.8-1.3,1.44-2.42
				c1.44-2.52,3.62-6.34,6.18-9.7c3.53-4.64,3.78-8.56,3.97-11.42l0.01-0.22c0.18-2.76,0.46-6.93,5.54-15.46l0.88,0.53
				c-4.95,8.32-5.22,12.34-5.4,15l-0.01,0.22c-0.2,2.99-0.47,7.09-4.18,11.97c-2.52,3.31-4.68,7.09-6.11,9.59
				c-0.68,1.19-1.18,2.06-1.5,2.51c-0.44,0.62-0.54,1.6-0.24,2.44c0.15,0.43,0.55,1.19,1.52,1.45c2.11,0.58,6.11,1.41,6.15,1.42
				l0.49,0.1l-0.08,0.49c-0.58,3.34-2.35,6.06-2.36,6.08c-0.07,0.11-0.52,1.09-0.3,1.85c0.1,0.33,0.31,0.56,0.67,0.72l3.53,1.63
				l-0.98,0.47c-1.75,0.84-2.71,1.98-2.88,2.74c-0.06,0.28-0.02,0.5,0.12,0.67c0.28,0.34,0.85,0.58,1.39,0.81
				c0.91,0.38,2.04,0.85,2.04,2.06c0,0.6-0.42,1.44-0.95,2.51c-0.94,1.89-2.23,4.47-1.11,5.86c1.53,1.91,8.75,7.16,21.43,6.25
				c10.22-0.74,15.57-2.77,17.85-3.63c0.44-0.17,0.76-0.29,0.99-0.35l0.28,0.99c-0.2,0.06-0.5,0.17-0.9,0.32
				c-2.33,0.88-7.77,2.95-18.14,3.7C260.49,247.23,259.53,247.27,258.6,247.27z"/>
		</g>
		<g>
			<path d="M309.68,240.61l-0.44-0.05c-0.11-0.01-10.62-1.35-13.97-13.9c-1.71,0.62-3.38,0.74-4.83,0.49
				c-1.42-0.24-2.42-0.78-2.96-1.61c-0.62-0.95-0.39-1.91-0.38-1.95l1,0.25c0,0.02-0.13,0.59,0.25,1.16
				c0.38,0.57,1.15,0.96,2.26,1.14c1.41,0.24,8.65,0.85,12.71-10.18c3.1-8.42-0.82-10.77-3.16-12.17c-0.19-0.12-0.38-0.23-0.54-0.33
				c-1.07-0.68-3.25-1.17-5.53-0.65c-2.43,0.55-4.53,2.14-6.06,4.58l-0.15,0.25l-3.37-0.05l-0.06-0.44
				c-0.5-3.91-1.88-7.49-3.22-10.96c-2.89-7.5-5.63-14.59,0.13-24.21l0.09-0.14l0.15-0.07c0.51-0.22,3.15-1.97,5.03-3.3
				c-8.87,2.43-16.79,3.7-23.57,3.77c-0.09,0-0.18,0-0.27,0c-7.87,0-21.51-3.47-24.07-16.56c-2.66-13.6,1.13-22.4,10.97-25.43
				c9.27-5.85,19.82-4.8,26.97,2.67c7.95-0.59,11.95,2.97,15.47,6.11c1.29,1.16,2.51,2.25,3.87,3.09c4.97,3.11,9.49,3.3,15.21,3.55
				l0.42,0.02c5.32,0.23,22.32,4.76,27.14,16.59c4.89,12.02,4.59,36.91-5.85,46.65c-10.63,9.91-22.48,28.81-23.12,31.25
				L309.68,240.61z M296.23,226.25c2.8,10.75,10.81,12.86,12.73,13.22c1.63-4.06,13.39-22.1,23.26-31.3
				c10.14-9.46,10.39-33.75,5.6-45.51c-4.63-11.37-21.08-15.73-26.23-15.95l-0.42-0.02c-5.87-0.25-10.51-0.45-15.71-3.7
				c-1.43-0.89-2.68-2.01-4.01-3.2c-3.56-3.19-7.25-6.48-14.94-5.84l-0.25,0.02l-0.17-0.18c-6.81-7.27-16.98-8.32-25.9-2.65
				l-0.13,0.06c-9.44,2.88-12.92,11.04-10.33,24.27c2.46,12.58,15.77,15.81,23.32,15.73c7.06-0.07,15.39-1.47,24.77-4.14
				c0.89-0.25,1.01-0.29,1.14-0.29h0.42l0.1,0.42c0.17,0.82-6.15,4.72-7.3,5.41c-5.42,9.14-2.78,15.98,0.01,23.21
				c1.31,3.4,2.66,6.91,3.22,10.76l1.9,0.03c2.09-3.2,4.7-4.38,6.54-4.8c2.57-0.58,5.03-0.03,6.31,0.79c0.16,0.1,0.33,0.2,0.52,0.32
				c2.44,1.46,6.99,4.19,3.59,13.4C302.27,221.77,299.25,224.83,296.23,226.25z"/>
		</g>
		<g>
			<path d="M264.49,296.37c-1.54,0-2.62-0.22-3.13-0.64c-0.55-0.45-0.67-1.1-0.32-1.8l0.92,0.46c-0.18,0.35-0.05,0.46,0.05,0.54
				c3.22,2.59,31.77-4.05,57.83-24.9l0.64,0.8C297.54,289.18,273.32,296.37,264.49,296.37z"/>
		</g>
	</g>
	<g>
		<path d="M234.82,213.17c3.9,0.52,8.97,0.75,9.95,0.61c0.98-0.14-2.41,3.02-5.21,3.29l0.68-2.39L234.82,213.17z"/>
	</g>
	<g>
		<path d="M288.1,225.51c3.47,6.23,11.89,9.22,11.89,9.22l-3.09-4.92l-1.42-3.78c0,0-1.9,0.74-3.12,0.88s-3.33-0.56-3.33-0.56
			L288.1,225.51z"/>
	</g>
	<g>
		<path d="M280.37,243.22c-0.84,9.67-11.52,17.41-11.52,17.41l-2.43-12.42c0,0-1.63-1.79,0.49-2.12
			C269.03,245.76,280.37,243.22,280.37,243.22z"/>
	</g>
	<g>
		<path d="M248.58,171.03c-3.1,9.14,33.36-1.78,39.69-3.12c-9.5,2.72-20.78,3.6-28.39,3.99c-5.73-1.46-10.32-3.24-10.32-3.24
			L248.58,171.03z"/>
	</g>
</g>
<g>
	<g>
		<path class="st3" d="M385.03,80.76H304.7c-5.79,0-10.48,4.69-10.48,10.48V150c0,5.79,4.69,10.48,10.48,10.48h7.14
			c1,0,1.81,0.81,1.81,1.81v10.11c0,1.05,1.18,1.67,2.04,1.07l17.81-12.27c0.69-0.47,1.51-0.73,2.34-0.73h49.18
			c5.79,0,10.48-4.69,10.48-10.48V91.24C395.51,85.45,390.82,80.76,385.03,80.76z"/>
	</g>
	<g>
		<path d="M314.96,174.21c-0.29,0-0.58-0.07-0.85-0.21c-0.6-0.31-0.97-0.93-0.97-1.61v-10.11c0-0.72-0.58-1.3-1.3-1.3h-7.14
			c-6.06,0-10.99-4.93-10.99-10.99V91.24c0-6.06,4.93-10.99,10.99-10.99h80.33c6.06,0,10.99,4.93,10.99,10.99V150
			c0,6.06-4.93,10.99-10.99,10.99h-49.18c-0.74,0-1.45,0.22-2.05,0.64l-17.82,12.27C315.68,174.1,315.32,174.21,314.96,174.21z
			 M304.7,81.27c-5.49,0-9.96,4.47-9.96,9.96V150c0,5.49,4.47,9.96,9.96,9.96h7.14c1.28,0,2.33,1.04,2.33,2.33v10.11
			c0,0.3,0.16,0.56,0.42,0.7s0.57,0.12,0.81-0.05l17.81-12.27c0.78-0.54,1.69-0.82,2.63-0.82h49.18c5.49,0,9.96-4.47,9.96-9.96
			V91.24c0-5.49-4.47-9.96-9.96-9.96H304.7z"/>
	</g>
</g>
<g>
	<path class="st3" d="M206.87,172.38H12.18c-4.75,0-8.62-3.87-8.62-8.62V35.53h211.94v128.22
		C215.49,168.51,211.63,172.38,206.87,172.38z"/>
</g>
<g>
	<g>
		<path d="M206.87,173.31H12.18c-5.27,0-9.56-4.29-9.56-9.56V32.33c0-5.27,4.29-9.56,9.56-9.56h194.7c5.27,0,9.56,4.29,9.56,9.56
			v131.42C216.43,169.03,212.15,173.31,206.87,173.31z M12.18,23.8c-4.7,0-8.53,3.83-8.53,8.53v131.42c0,4.71,3.83,8.53,8.53,8.53
			h194.7c4.7,0,8.53-3.83,8.53-8.53V32.33c0-4.7-3.83-8.53-8.53-8.53H12.18z"/>
	</g>
	<g>
		<rect x="3.13" y="34.59" width="212.79" height="1.03"/>
	</g>
	<g>
		<path d="M13.87,30.22c-0.59,0-1.08-0.48-1.08-1.08c0-0.59,0.48-1.08,1.08-1.08s1.08,0.48,1.08,1.08
			C14.95,29.74,14.47,30.22,13.87,30.22z M13.82,29.14c0,0.03,0.02,0.05,0.05,0.05L13.82,29.14z"/>
	</g>
	<g>
		<path d="M19.78,30.22c-0.59,0-1.08-0.48-1.08-1.08c0-0.59,0.48-1.08,1.08-1.08c0.59,0,1.07,0.48,1.07,1.08
			C20.86,29.74,20.38,30.22,19.78,30.22z M19.73,29.14c0,0.03,0.02,0.05,0.05,0.05L19.73,29.14z"/>
	</g>
	<g>
		<path d="M25.69,30.22c-0.59,0-1.08-0.48-1.08-1.08c0-0.59,0.48-1.08,1.08-1.08c0.59,0,1.08,0.48,1.08,1.08
			C26.77,29.74,26.29,30.22,25.69,30.22z M25.64,29.14c0,0.03,0.02,0.05,0.05,0.05L25.64,29.14z"/>
	</g>
</g>
<g>
	<g>
		<path class="st3" d="M240.62,9.11h-71.16c-4.27,0-7.74,3.46-7.74,7.74v43.4c0,4.27,3.46,7.74,7.74,7.74h5.27
			c0.74,0,1.34,0.6,1.34,1.34v7.47c0,0.77,0.87,1.23,1.51,0.79l13.16-9.06c0.51-0.35,1.11-0.54,1.73-0.54h48.15
			c4.27,0,7.74-3.46,7.74-7.74v-43.4C248.36,12.57,244.9,9.11,240.62,9.11z"/>
	</g>
	<g>
		<path d="M177.05,78.27c-0.23,0-0.47-0.06-0.69-0.17c-0.49-0.26-0.79-0.76-0.79-1.3v-7.47c0-0.46-0.37-0.83-0.83-0.83h-5.27
			c-4.55,0-8.25-3.7-8.25-8.25v-43.4c0-4.55,3.7-8.25,8.25-8.25h71.15c4.55,0,8.25,3.7,8.25,8.25v43.4c0,4.55-3.7,8.25-8.25,8.25
			h-48.15c-0.52,0-1.01,0.15-1.44,0.45l-13.16,9.06C177.63,78.18,177.34,78.27,177.05,78.27z M169.47,9.62
			c-3.98,0-7.22,3.24-7.22,7.22v43.4c0,3.98,3.24,7.22,7.22,7.22h5.27c1.02,0,1.85,0.83,1.85,1.85v7.47c0,0.24,0.17,0.36,0.24,0.4
			c0.07,0.04,0.26,0.11,0.46-0.03l13.16-9.06c0.6-0.41,1.3-0.63,2.02-0.63h48.15c3.98,0,7.22-3.24,7.22-7.22v-43.4
			c0-3.98-3.24-7.22-7.23-7.22H169.47z"/>
	</g>
	<g>
		<g>
			<polygon class="st1" points="220.9,21.18 202.28,39.8 194.3,31.82 186.32,39.8 202.28,55.76 228.88,29.16 			"/>
		</g>
	</g>
</g>
<g>
	<g>
		<path class="st3" d="M149.07,101.26c-0.03,0.04-0.07,0.08-0.11,0.12c-2.5,0.34-8.05,0.04-8.4,0.08c-0.32,0.04,1.73,2.68,2.35,3.48
			c-0.02,0.63-0.02,1.26,0.05,1.53c0.13,0.44,0.24,0.86,0.61,2.06c0.08,0.26,0.02,0.38-0.05,0.47c-0.18,0.23-0.93,0.76-4.06,0.64
			l-0.08,0.85c0.37,0.06,1.46,0.34,1.96,0.93c0.62,0.73,0.2,1.79-1.34,3.33c-1.08,1.08-2.23,3.88-2.46,5.49
			c-0.11,0.76-0.45,1.36-1.02,1.77c-0.88,0.63-2.35,0.85-3.95,0.57c-0.49-0.09-1.32-0.33-2.38-0.64c-1.24-0.36-2.78-0.81-4.41-1.2
			c0.27,0.03,0.43,0.06,0.43,0.06c-10.99-3.89-13.39-6.95-14.79-6.19c-3.03,1.64-3.71,20.3-3.71,20.3s0.01-0.04,0.04-0.11
			c-0.74,3.17-1,6.32-0.53,8.84c0,0.01,0,0.01,0.01,0.02c-1.61,1.03-15.36,1.33-24.72-5.13c0.21-0.29,0.41-0.55,0.62-0.84
			c6.03-8.4,20.35-34.14,20.49-34.4l0.12-0.22l-0.13-0.21c-6.89-10.96-4.07-16.82-1.32-18.56c2.2-1.39,5.47-0.28,7.76,2.65
			l0.16,0.21l0.26-0.06c12.23-2.68,22.91-9.58,28.59-18.45c2.99-4.68,4.31-9.59,3.81-14.02c5.05,7.14,3.88,20.76,3.4,23.32
			c-0.13,0.7-0.43,1.23-0.81,1.91c-0.67,1.2-1.5,2.7-1.8,5.87c-0.48,5.18,4.34,11.52,5,12.18
			C149.29,98.53,149.73,100.33,149.07,101.26z"/>
	</g>
	<g>
		<path d="M146.16,92.47c-1.03-2.1-1.85-4.54-1.65-6.67c0.28-2.99,1.07-4.4,1.7-5.54c0.38-0.69,0.74-1.33,0.9-2.17
			c0.03-0.13,1.64-11.12-1.3-19.51C154.05,71.48,151.05,82.46,146.16,92.47z"/>
	</g>
	<g>
		<path class="st1" d="M66.02,111.87C60.66,64.88,92.24,46.9,95.86,45.01c11.17-5.85,35.59-5.36,45.15,7.3l0.34-0.26l-0.32,0.28
			c0.26,0.29,0.5,0.58,0.75,0.87c1.01,4.6-0.21,9.92-3.44,14.97c-5.52,8.63-15.9,15.35-27.8,18.02c-2.56-3.12-6.19-4.23-8.71-2.63
			c-3,1.89-6.15,8.13,0.92,19.52c-1.41,2.53-14.61,26.16-20.31,34.1c-1.81,2.52-3.61,4.83-5.34,6.99
			C72.89,137.14,67.62,125.89,66.02,111.87z"/>
	</g>
	<g>
		<path d="M65.84,93.24c-0.58,5.63-0.6,11.82,0.18,18.63c1.6,14.01,6.87,25.27,11.07,32.3c1.73-2.16,3.53-4.47,5.34-6.99
			c5.7-7.94,18.9-31.57,20.31-34.1c-3.36-5.41-4.4-9.64-4.25-12.81C88.44,94.5,76.94,95.18,65.84,93.24z"/>
	</g>
	<g>
		<path class="st3" d="M74.28,148.98c2.37-2.88,5.02-6.13,7.71-9.77c6.41,4.42,15.09,5.8,20.64,5.8c2.23,0,3.94-0.22,4.8-0.56
			c1.1,3.48,4.95,7.08,9.37,11.21c5.1,4.76,10.84,10.13,13.57,16.5l-68.25,0.12C62.28,163.58,67.33,157.43,74.28,148.98z"/>
	</g>
	<g>
		<path class="st4" d="M87.45,142.1c-1.91-0.77-3.76-1.72-5.46-2.89c-2.69,3.64-5.34,6.89-7.71,9.77c-6.95,8.46-12,14.6-12.16,23.3
			l27.51-0.05C87.21,162.34,86.29,152.22,87.45,142.1z"/>
	</g>
	<g>
		<path class="st4" d="M158.66,172.12l-27.36,0.05c-2.74-6.69-8.66-12.23-13.91-17.13c-4.53-4.23-8.45-7.9-9.26-11.28
			c0.01-0.12-0.02-0.23-0.08-0.35c-1.34-7.41,4-20.96,8.82-22.36c3.69-1.07,9.57,0.66,13.09,1.69c1.08,0.32,1.94,0.57,2.47,0.66
			c0.88,0.15,3.07,0.39,4.6-0.71c0.76-0.55,1.22-1.34,1.37-2.34c0.21-1.47,1.28-4.06,2.22-5.01c0.77-0.77,2.81-2.81,1.39-4.48
			c-0.13-0.15-0.27-0.28-0.43-0.4c1.37-0.11,2.23-0.42,2.63-0.95c0.19-0.24,0.37-0.65,0.19-1.24c-0.36-1.19-0.48-1.6-0.62-2.08
			c-0.06-0.22-0.02-1.32,0.05-2.35c0.27-0.03,0.51-0.06,0.76-0.08c1.2,8.35,8.09,16.25,14.75,23.88
			c5.82,6.68,11.32,12.98,12.04,18.68C172.71,156.83,168.31,165.74,158.66,172.12z"/>
	</g>
	<g>
		<path d="M129.95,122.74c-3.51-1.03-9.4-2.76-13.09-1.69c-4.83,1.4-10.16,14.94-8.82,22.36c0.06,0.11,0.09,0.23,0.08,0.35
			c0.7,2.93,3.74,6.08,7.49,9.62c3.6-10.74,9.2-20.92,16.12-30.13C131.25,123.12,130.66,122.95,129.95,122.74z"/>
	</g>
	<g>
		<path class="st4" d="M141.57,110.47c0.16,0.12,0.3,0.25,0.43,0.4c0.06,0.07,0.11,0.15,0.16,0.22c0.29-0.29,0.57-0.59,0.86-0.88
			C142.62,110.33,142.15,110.42,141.57,110.47z"/>
	</g>
	<g>
		<path class="st4" d="M144.59,103.77c-0.25,0.03-0.49,0.06-0.76,0.08c-0.07,1.03-0.11,2.14-0.05,2.35
			c0.14,0.48,0.25,0.88,0.62,2.08c0.06,0.18,0.07,0.34,0.07,0.49c0.37-0.36,0.75-0.72,1.12-1.08
			C145.13,106.4,144.78,105.09,144.59,103.77z"/>
	</g>
	<g>
		<g>
			<g>
				<path d="M130.59,172.89c-2.58-6.67-8.57-12.25-13.84-17.17c-4.78-4.46-8.91-8.31-9.61-12.08c-1.48-7.91,4.19-21.97,9.47-23.5
					c3.95-1.14,10,0.63,13.61,1.69c1.05,0.31,1.89,0.55,2.37,0.64c1.57,0.28,3.02,0.07,3.88-0.55c0.56-0.4,0.88-0.96,0.99-1.71
					c0.21-1.45,1.29-4.33,2.49-5.54c1.5-1.5,1.92-2.52,1.34-3.21c-0.48-0.57-1.54-0.84-1.91-0.9l0.1-1.02
					c3.08,0.12,3.82-0.38,3.99-0.6c0.05-0.07,0.1-0.17,0.03-0.39c-0.36-1.18-0.48-1.6-0.61-2.04c-0.16-0.55-0.03-2.35,0.03-3.1
					l0.04-0.43l0.43-0.04c3.27-0.27,4.95-0.79,5.61-1.74c0.64-0.9,0.21-2.64-0.4-3.25c-0.67-0.67-5.52-7.04-5.03-12.26
					c0.3-3.19,1.14-4.7,1.81-5.91c0.38-0.67,0.67-1.2,0.8-1.89c0.51-2.7,1.78-17.83-4.36-24.47l0.75-0.7
					c7.21,7.79,4.65,25.18,4.62,25.35c-0.16,0.85-0.52,1.5-0.91,2.2c-0.63,1.13-1.41,2.53-1.69,5.5c-0.42,4.53,3.8,10.5,4.73,11.43
					c0.99,0.99,1.42,3.28,0.51,4.56c-0.84,1.18-2.57,1.81-5.93,2.13c-0.07,0.99-0.1,2.03-0.05,2.25c0.14,0.49,0.26,0.9,0.62,2.07
					c0.19,0.62-0.01,1.06-0.2,1.32c-0.4,0.52-1.21,0.84-2.48,0.96c0.1,0.08,0.19,0.18,0.27,0.27c1.47,1.73-0.61,3.82-1.4,4.6
					c-0.93,0.93-1.99,3.5-2.2,4.96c-0.15,1.02-0.62,1.83-1.4,2.4c-1.56,1.13-3.78,0.88-4.66,0.73c-0.54-0.09-1.39-0.35-2.48-0.66
					c-3.51-1.03-9.37-2.75-13.04-1.69c-4.81,1.39-10.12,14.95-8.75,22.32c0.64,3.43,4.65,7.18,9.3,11.52
					c5.36,5,11.43,10.66,14.1,17.55L130.59,172.89z"/>
			</g>
			<g>
				<path d="M76.41,144.87c-4.27-7.1-9.69-18.57-11.33-32.89c-5.43-47.61,26.66-65.88,30.34-67.8c11.73-6.14,36.34-5.67,46.33,7.56
					l-0.82,0.62c-9.53-12.62-33.89-13.11-45.04-7.27c-3.61,1.89-35.14,19.84-29.8,66.78c1.61,14.14,6.97,25.47,11.19,32.48
					L76.41,144.87z"/>
			</g>
			<g>
				<path d="M146.76,93.38l-0.92-0.46c5.79-11.69,9.21-24.7-4.88-40.53l0.77-0.68C156.23,68,152.72,81.36,146.76,93.38z"/>
			</g>
			<g>
				<path d="M61.18,173.22v-0.51c0-9.26,5.46-15.91,12.38-24.33c2.69-3.27,5.74-6.98,8.8-11.25c5.67-7.9,18.75-31.29,20.28-34.05
					c-7.07-11.42-3.89-17.68-0.87-19.59c2.55-1.61,6.21-0.51,8.79,2.61c11.86-2.67,22.19-9.38,27.69-17.97
					c3.22-5.04,4.44-10.33,3.43-14.91l1-0.22c1.07,4.85-0.2,10.42-3.57,15.68c-5.69,8.9-16.4,15.81-28.65,18.49l-0.32,0.07
					l-0.2-0.25c-2.26-2.89-5.47-3.99-7.64-2.63c-2.72,1.72-5.5,7.54,1.35,18.44l0.16,0.26l-0.15,0.27
					c-0.14,0.26-14.46,26.01-20.49,34.41c-3.08,4.29-6.14,8.02-8.84,11.3c-6.92,8.41-11.95,14.54-12.14,23.16l96.42-0.16
					c9.6-6.36,13.98-15.23,12.66-25.68c-0.72-5.67-6.21-11.97-12.02-18.64c-6.72-7.71-13.67-15.68-14.8-24.12l1.02-0.14
					c1.09,8.14,7.94,15.99,14.56,23.58c5.92,6.79,11.51,13.2,12.27,19.18c1.38,10.91-3.2,20.16-13.25,26.75l-0.13,0.08l-0.15,0
					L61.18,173.22z"/>
			</g>
			<g>
				<path d="M102.43,145.14c-5.63,0-14.32-1.43-20.83-6.09l0.6-0.84c9.48,6.78,23.9,6.36,25.06,5.3c-0.08,0.07-0.1,0.28-0.01,0.38
					l0.76-0.69c0.27,0.3,0.27,0.7,0.01,1C107.55,144.74,105.42,145.14,102.43,145.14z"/>
			</g>
		</g>
		<g>
			<path d="M126.21,120.79c-10.99-3.89-13.39-6.95-14.79-6.19c-3.03,1.64-3.71,20.3-3.71,20.3s3.98-11.99,7.72-13.6
				S126.21,120.79,126.21,120.79z"/>
		</g>
		<g>
			<path d="M149.55,101.28c-2.07,0.5-8.62,0.14-8.99,0.19c-0.38,0.05,2.53,3.7,2.53,3.7l0.34-1.71
				C145.08,103.53,147.55,102.62,149.55,101.28z"/>
		</g>
	</g>
</g>
<g>
	<path class="st3" d="M577.68,352.06c0,4.75-3.87,8.62-8.62,8.62H374.37c-4.75,0-8.62-3.87-8.62-8.62V209.65h211.93V352.06z"/>
</g>
<g>
	<path class="st4" d="M577.68,208.8H365.75v-2.35c0-4.75,3.87-8.62,8.62-8.62h194.69c4.75,0,8.62,3.87,8.62,8.62V208.8z"/>
</g>
<g>
	<g>
		<path d="M569.06,361.62h-194.7c-5.27,0-9.56-4.29-9.56-9.56V206.45c0-5.27,4.29-9.56,9.56-9.56h194.7c5.27,0,9.56,4.29,9.56,9.56
			v145.61C578.62,357.33,574.33,361.62,569.06,361.62z M374.37,197.92c-4.7,0-8.53,3.83-8.53,8.53v145.61c0,4.7,3.83,8.53,8.53,8.53
			h194.7c4.7,0,8.53-3.83,8.53-8.53V206.45c0-4.7-3.83-8.53-8.53-8.53H374.37z"/>
	</g>
	<g>
		<rect x="365.32" y="208.71" width="212.79" height="1.03"/>
	</g>
	<g>
		<path d="M376.06,204.33c-0.59,0-1.08-0.48-1.08-1.08c0-0.59,0.48-1.08,1.08-1.08c0.59,0,1.07,0.48,1.07,1.08
			C377.13,203.85,376.65,204.33,376.06,204.33z M376.01,203.26c0,0.03,0.02,0.05,0.05,0.05L376.01,203.26z"/>
	</g>
	<g>
		<path d="M381.97,204.33c-0.59,0-1.08-0.48-1.08-1.08c0-0.59,0.48-1.08,1.08-1.08c0.59,0,1.08,0.48,1.08,1.08
			C383.04,203.85,382.56,204.33,381.97,204.33z M381.92,203.26c0,0.03,0.02,0.05,0.05,0.05L381.92,203.26z"/>
	</g>
	<g>
		<path d="M387.88,204.33c-0.59,0-1.08-0.48-1.08-1.08c0-0.59,0.48-1.08,1.08-1.08c0.59,0,1.08,0.48,1.08,1.08
			C388.96,203.85,388.47,204.33,387.88,204.33z M387.83,203.26c0,0.03,0.02,0.05,0.05,0.05L387.83,203.26z"/>
	</g>
</g>
<g>
	<path class="st4" d="M52.64,243.32h137.95c4.75,0,8.62,3.87,8.62,8.62v2.35H44.02v-2.35C44.02,247.19,47.89,243.32,52.64,243.32z"
		/>
</g>
<g>
	<path class="st3" d="M190.59,355.76H52.64c-4.75,0-8.62-3.87-8.62-8.62v-91.57h155.19v91.57
		C199.21,351.89,195.34,355.76,190.59,355.76z"/>
</g>
<g>
	<g>
		<path d="M190.59,356.27H52.64c-5.27,0-9.56-4.29-9.56-9.56v-94.77c0-5.27,4.29-9.56,9.56-9.56h137.95c5.27,0,9.56,4.29,9.56,9.56
			v94.77C200.15,351.99,195.86,356.27,190.59,356.27z M52.64,243.41c-4.7,0-8.53,3.83-8.53,8.53v94.77c0,4.7,3.83,8.53,8.53,8.53
			h137.95c4.7,0,8.53-3.83,8.53-8.53v-94.77c0-4.71-3.83-8.53-8.53-8.53H52.64z"/>
	</g>
	<g>
		<rect x="43.59" y="254.2" width="156.04" height="1.03"/>
	</g>
	<g>
		<path d="M54.33,249.83c-0.59,0-1.08-0.48-1.08-1.08c0-0.59,0.48-1.08,1.08-1.08c0.59,0,1.07,0.48,1.07,1.08
			C55.41,249.35,54.92,249.83,54.33,249.83z M54.28,248.75c0,0.03,0.02,0.05,0.05,0.05L54.28,248.75z"/>
	</g>
	<g>
		<path d="M60.24,249.83c-0.59,0-1.08-0.48-1.08-1.08c0-0.59,0.48-1.08,1.08-1.08c0.59,0,1.08,0.48,1.08,1.08
			C61.32,249.35,60.84,249.83,60.24,249.83z M60.19,248.75c0,0.03,0.02,0.05,0.05,0.05L60.19,248.75z"/>
	</g>
	<g>
		<path d="M66.15,249.83c-0.59,0-1.08-0.48-1.08-1.08c0-0.59,0.48-1.08,1.08-1.08s1.08,0.48,1.08,1.08
			C67.23,249.35,66.75,249.83,66.15,249.83z M66.11,248.75c0,0.03,0.02,0.05,0.05,0.05L66.11,248.75z"/>
	</g>
</g>
<g>
	<g>
		<path class="st1" d="M136.6,355.34H80.18c3.14-9.54,10.59-16.35,15.08-20.44c0.62-0.56,1.17-1.07,1.64-1.53
			c4.36,8.63,14.61,13.86,25.93,13.86c2.9,0,5.87-0.35,8.83-1.07c0.12,0.22,0.23,0.43,0.36,0.66
			C133.41,349.34,134.96,352.19,136.6,355.34z"/>
	</g>
	<g>
		<path d="M96.91,333.37c-0.48,0.46-1.03,0.96-1.64,1.53c-4.49,4.1-11.94,10.91-15.08,20.44H97.2c1.13-5.31,2.65-10.54,4.53-15.69
			C99.76,337.83,98.1,335.73,96.91,333.37z"/>
	</g>
	<g>
		<path class="st3" d="M151.95,300.57c0.69,1.49,1.46,3.17,1.53,3.65c-0.47,0.5-1.79,1.4-5.57,2.42l-0.28,0.08l-0.45,4.58
			l-3.89,0.57l1.72,0.56c0.01,0,1.21,0.4,1.78,0.97c0.02,0.02,0.04,0.04,0.06,0.06c-0.06,0.05-0.13,0.1-0.2,0.15
			c-0.24,0.17-0.57,0.4-0.91,0.76c-0.74,0.8-0.96,2.85-1.12,4.88c-0.03,0.34-0.05,0.63-0.08,0.82c-0.11,0.88-1.05,2.28-2.79,2.63
			c-1.01,0.2-4.75-0.29-10.13-1.34c-3.48-0.64-6.11-2.61-7.11-3.68l-0.62,0.58c0.24,0.26,2.11,2.13,5.23,3.28
			c-0.96,2.06-2.29,10.61-2.29,12.77c0,1.93,1.92,5.61,4.89,11.06c-14.18,3.33-28.53-2.04-33.7-12.64c0.3-0.3,0.56-0.59,0.75-0.83
			c2.3-3.01,4.75-11.51,6.03-18.47c0.08,0,0.15,0.01,0.23,0.01c2.18,0,4.62-0.79,6.1-2c1.39-1.14,2.94-3,3.48-5.02
			c0.56,0.42,1.15,0.72,1.74,0.84c0.21,0.04,0.42,0.06,0.62,0.06c0.8,0,1.53-0.33,2.14-0.98l-0.62-0.58
			c-0.56,0.59-1.22,0.82-1.97,0.66c-1.58-0.32-3.21-2.18-4.15-4.75c-1.38-3.74-1.22-6.5,0.49-8.21c0.77-0.78,2.1-1.23,3.39-1.17
			c1.43,0.06,2.71,0.67,3.6,1.73l0.32-0.28l-0.11,0.41c0.23,0.06,0.46,0.09,0.7,0.09c1.47,0,3.02-1.1,3.6-2.32
			c0.16-0.34,0.26-0.69,0.36-1.03c0.15-0.5,0.28-0.98,0.58-1.32c0.32-0.37,0.82-0.57,1.35-0.79c0.55-0.22,1.12-0.45,1.57-0.9
			c0.58-0.58,0.8-1.33,1.01-2.06c0.17-0.61,0.34-1.18,0.69-1.6c0.3-0.36,0.74-0.61,1.2-0.87c0.26-0.15,0.52-0.29,0.76-0.46
			c1.14-0.79,1.85-1.98,2.54-3.14c0.15-0.26,0.31-0.52,0.47-0.77c0.14-0.23,0.3-0.44,0.46-0.48c0.11-0.03,0.26,0,0.4,0.03l0.85,0.16
			c0.16,0.03,0.3,0.06,0.41,0.12c0.16,0.09,0.29,0.28,0.43,0.49l0.11,0.16c1.08,1.54,3.17,2.29,4.98,1.78
			c0.27-0.07,0.54-0.17,0.81-0.27c0.67-0.25,1.31-0.49,1.85-0.27c0.33,0.13,0.6,0.43,0.88,0.74c0.17,0.19,0.34,0.38,0.54,0.55
			c0.58,0.51,1.49,0.83,2.33,0.88c-0.21,1.3-0.69,4.81-0.45,8.08C148.65,293.41,150.48,297.38,151.95,300.57z"/>
	</g>
	<g>
		<path class="st4" d="M155.19,281.97c-0.36,0.4-0.7,0.69-1.05,0.86c-1.08,0.55-2.55,0.29-4.35-0.76l-0.22,0.37l-0.08-0.42
			c-0.73,0.14-1.78-0.15-2.35-0.65c-0.17-0.14-0.32-0.31-0.46-0.48c-0.34-0.37-0.68-0.76-1.2-0.96c-0.84-0.34-1.71-0.02-2.47,0.26
			c-0.25,0.09-0.49,0.18-0.74,0.25c-1.47,0.41-3.18-0.2-4.06-1.45l-0.1-0.14c-0.18-0.27-0.39-0.57-0.73-0.76
			c-0.22-0.12-0.45-0.17-0.66-0.21l-0.85-0.16c-0.2-0.04-0.48-0.09-0.77-0.02c-0.46,0.12-0.75,0.48-0.98,0.86
			c-0.16,0.26-0.32,0.52-0.48,0.79c-0.67,1.12-1.3,2.19-2.29,2.87c-0.22,0.15-0.46,0.28-0.69,0.42c-0.51,0.29-1.04,0.58-1.44,1.07
			c-0.47,0.56-0.67,1.25-0.86,1.91c-0.19,0.66-0.37,1.27-0.79,1.69c-0.33,0.33-0.8,0.52-1.29,0.72c-0.6,0.24-1.21,0.49-1.67,1.02
			c-0.42,0.49-0.59,1.08-0.76,1.65c-0.09,0.32-0.18,0.63-0.31,0.9c-0.55,1.16-2.11,2.01-3.22,1.78c-1.04-1.15-2.48-1.83-4.08-1.9
			c-1.56-0.06-3.08,0.46-4.03,1.41c-1.96,1.96-2.19,5.02-0.68,9.1c0.58,1.57,1.39,2.87,2.31,3.8c-0.36,1.98-1.97,3.92-3.29,5
			c-1.36,1.11-3.62,1.81-5.64,1.79c0.02-0.1,0.04-0.2,0.05-0.29c0.98-5.84-0.44-11.49-4.36-17.3l-0.35,0.24l0.34-0.25
			c-0.47-0.65-1.24-0.75-1.91-0.83c-0.34-0.04-0.67-0.08-0.95-0.18c-0.68-0.25-1.26-0.79-1.56-1.44c-0.12-0.25-0.2-0.52-0.28-0.79
			c-0.17-0.54-0.34-1.1-0.75-1.56l-0.2-0.21c-0.25-0.26-0.62-0.64-0.61-0.89l-0.43-0.01l0.21-0.37c-0.87-0.49-1.65-1.13-2.34-1.91
			c-2.06-2.34-2.72-5.36-2.9-7.48c-0.18-2.03-0.01-3.92,0.5-5.61c0.56-1.86,1.54-3.56,2.82-5.52l0.06-0.1
			c0.47-0.71,0.95-1.45,1.22-2.29c0.17-0.52,0.24-1.05,0.32-1.56c0.03-0.21,0.06-0.43,0.1-0.64c0.67-3.77,3.63-7.28,7.05-8.38h45.61
			c0.88,0.42,1.34,1.05,1.89,1.89c0.24,0.37,0.47,0.76,0.69,1.14c0.33,0.57,0.67,1.16,1.08,1.71c0.41,0.55,0.88,1.06,1.33,1.55
			c0.6,0.64,1.16,1.25,1.6,1.95c1.33,2.14,1.29,4.94,1.26,7.4c-0.01,0.41-0.01,0.88,0.15,1.34c0.16,0.43,0.43,0.77,0.69,1.1
			l0.17,0.21c0.93,1.2,1.44,2.76,1.4,4.28S156.2,280.84,155.19,281.97z"/>
	</g>
	<g>
		<path d="M106.94,275.85c-5.34,2.95-11.66,4.42-17.95,4.16c0.26,2.05,0.98,4.69,2.83,6.79c0.69,0.78,1.47,1.42,2.34,1.91
			l-0.21,0.37l0.43,0.01c0,0.25,0.37,0.63,0.61,0.89l0.2,0.21c0.41,0.46,0.59,1.02,0.75,1.56c0.08,0.27,0.16,0.54,0.28,0.79
			c0.3,0.65,0.88,1.19,1.56,1.44c0.28,0.1,0.6,0.14,0.95,0.18c0.68,0.08,1.44,0.18,1.91,0.83l-0.34,0.25l0.35-0.24
			c3.92,5.8,5.35,11.46,4.36,17.3c-0.02,0.1-0.03,0.19-0.05,0.29c2.02,0.02,4.28-0.68,5.64-1.79c1.32-1.08,2.93-3.02,3.29-5
			c-0.92-0.93-1.73-2.24-2.31-3.8c-1.51-4.08-1.28-7.14,0.68-9.1c0.95-0.95,2.47-1.48,4.03-1.41c1.61,0.07,3.04,0.75,4.08,1.9
			c1.11,0.23,2.67-0.62,3.22-1.78c0.13-0.27,0.22-0.58,0.31-0.9c0.16-0.57,0.33-1.16,0.76-1.65c0.46-0.52,1.07-0.78,1.67-1.02
			c0.49-0.2,0.96-0.39,1.29-0.72c0.42-0.42,0.6-1.04,0.79-1.69c0.19-0.66,0.39-1.35,0.86-1.91c0.4-0.48,0.93-0.78,1.44-1.07
			c0.24-0.13,0.47-0.26,0.69-0.42c0.73-0.5,1.26-1.21,1.76-2C124.27,281.04,115.43,278.75,106.94,275.85z"/>
	</g>
	<g>
		<g>
			<path d="M137.31,356c-1.75-3.39-3.42-6.44-4.89-9.13c-3.43-6.28-5.69-10.43-5.69-12.55c0-2.21,1.55-12.41,2.58-13.26l0.19-0.15
				l0.43,0.04c6.18,1.25,10.7,1.89,11.79,1.67c1.69-0.34,2.61-1.7,2.72-2.55c0.03-0.2,0.05-0.48,0.08-0.82
				c0.17-2.05,0.39-4.11,1.15-4.93c0.34-0.37,0.68-0.6,0.92-0.78c0.04-0.03,0.08-0.06,0.12-0.09c-0.47-0.46-1.41-0.83-1.74-0.94
				l-2.08-0.68l4.19-0.62l0.45-4.58l0.34-0.09c3.68-0.99,5.02-1.87,5.5-2.36c-0.1-0.51-0.85-2.14-1.51-3.58
				c-1.47-3.2-3.31-7.18-3.49-9.63c-0.29-4.02,0.51-8.43,0.54-8.61l1.01,0.19c-0.01,0.04-0.81,4.46-0.53,8.35
				c0.17,2.26,2.03,6.31,3.39,9.27c1.59,3.46,1.85,4.11,1.47,4.56c-0.8,0.96-2.74,1.87-5.78,2.71l-0.46,4.67l-1.15,0.17
				c0.21,0.14,0.41,0.29,0.57,0.45c0.18,0.18,0.41,0.46,0.38,0.82c-0.03,0.39-0.33,0.6-0.65,0.83c-0.22,0.15-0.49,0.34-0.76,0.63
				c-0.58,0.62-0.78,3.12-0.88,4.31c-0.03,0.36-0.05,0.66-0.08,0.87c-0.17,1.36-1.47,3.02-3.53,3.43c-1.7,0.34-8.18-0.86-12.02-1.63
				c-0.64,1.44-2.15,9.56-2.15,12.32c0,1.85,2.33,6.13,5.56,12.05c1.47,2.7,3.14,5.76,4.9,9.15L137.31,356z"/>
		</g>
		<g>
			<path d="M80.56,355.91l-0.98-0.3c3.1-10.07,10.88-17.17,15.52-21.41c1.35-1.23,2.42-2.21,2.92-2.86
				c2.26-2.94,4.85-12.07,6.05-19.2c0.94-5.59-0.44-11.02-4.21-16.61l0.85-0.58c3.93,5.82,5.37,11.5,4.38,17.36
				c-1.21,7.15-3.81,16.47-6.25,19.65c-0.55,0.72-1.65,1.72-3.04,2.99C91.23,339.13,83.58,346.11,80.56,355.91z"/>
		</g>
		<g>
			<path d="M131.48,322.3c-3.49-0.63-6.3-2.53-7.65-3.97l0.75-0.7c1,1.06,3.62,3.03,7.09,3.66L131.48,322.3z"/>
		</g>
		<g>
			<path d="M152.91,284.06c-1.05,0-2.26-0.39-3.59-1.18l0.52-0.88c1.78,1.04,3.21,1.3,4.27,0.76c0.34-0.17,0.67-0.45,1.02-0.84
				c0.99-1.12,1.59-2.63,1.63-4.13c0.05-1.5-0.46-3.04-1.38-4.22l-0.17-0.21c-0.26-0.32-0.55-0.67-0.7-1.12
				c-0.17-0.47-0.16-0.94-0.16-1.36c0.03-2.45,0.07-5.23-1.25-7.35c-0.43-0.7-1-1.3-1.59-1.95c-0.46-0.49-0.93-1-1.34-1.55
				c-0.41-0.55-0.75-1.14-1.09-1.71c-0.22-0.38-0.45-0.77-0.69-1.14c-0.56-0.86-1.03-1.49-1.93-1.9l0.42-0.94
				c1.16,0.52,1.76,1.33,2.37,2.27c0.25,0.39,0.49,0.78,0.72,1.18c0.33,0.57,0.65,1.11,1.02,1.62c0.38,0.51,0.81,0.97,1.27,1.46
				c0.6,0.65,1.23,1.32,1.71,2.1c1.47,2.37,1.44,5.32,1.4,7.91c0,0.35-0.01,0.71,0.1,1.01c0.1,0.28,0.31,0.54,0.53,0.82l0.18,0.23
				c1.08,1.39,1.65,3.12,1.59,4.88c-0.05,1.76-0.73,3.46-1.89,4.78c-0.44,0.49-0.87,0.85-1.33,1.08
				C154.07,283.93,153.51,284.06,152.91,284.06z"/>
		</g>
		<g>
			<path d="M93.7,289.53c-0.96-0.54-1.83-1.25-2.58-2.11c-2.23-2.53-2.94-5.76-3.14-8.02c-0.19-2.15-0.01-4.16,0.53-5.96
				c0.63-2.09,1.79-4.01,2.94-5.77l0.07-0.11c0.45-0.68,0.87-1.33,1.1-2.05c0.14-0.44,0.21-0.91,0.28-1.41
				c0.03-0.22,0.07-0.45,0.1-0.67c0.73-4.12,3.99-7.96,7.75-9.13l0.3,0.98c-3.42,1.06-6.38,4.57-7.05,8.33
				c-0.04,0.21-0.07,0.42-0.1,0.63c-0.08,0.52-0.15,1.05-0.32,1.57c-0.27,0.85-0.76,1.59-1.22,2.3l-0.07,0.11
				c-1.29,1.96-2.26,3.64-2.82,5.5c-0.51,1.68-0.67,3.56-0.49,5.58c0.19,2.11,0.84,5.11,2.88,7.43c0.68,0.77,1.46,1.41,2.32,1.89
				L93.7,289.53z"/>
		</g>
		<g>
			<path d="M99.86,295.54c-0.22-0.3-0.62-0.37-1.26-0.45c-0.38-0.05-0.78-0.1-1.16-0.24c-0.92-0.34-1.68-1.04-2.09-1.93
				c-0.13-0.29-0.23-0.6-0.32-0.9c-0.14-0.46-0.27-0.9-0.55-1.2l-0.18-0.19c-0.39-0.41-0.88-0.92-0.87-1.56l1.03,0.02
				c0,0.21,0.36,0.6,0.59,0.83l0.2,0.21c0.43,0.47,0.6,1.04,0.77,1.59c0.08,0.26,0.16,0.53,0.27,0.78c0.29,0.63,0.86,1.16,1.51,1.4
				c0.27,0.1,0.59,0.14,0.93,0.18c0.69,0.08,1.48,0.18,1.97,0.87L99.86,295.54z"/>
		</g>
		<g>
			<path d="M116.97,307.43c-0.21,0-0.42-0.02-0.64-0.07c-1.92-0.39-3.77-2.44-4.85-5.34c-1.52-4.11-1.28-7.21,0.7-9.2
				c0.97-0.97,2.47-1.49,4.1-1.44c1.69,0.07,3.21,0.8,4.27,2.06l-0.78,0.66c-0.88-1.03-2.13-1.64-3.53-1.7
				c-1.28-0.05-2.57,0.38-3.33,1.14c-1.68,1.68-1.84,4.41-0.47,8.12c0.94,2.54,2.54,4.38,4.09,4.69c0.72,0.14,1.35-0.07,1.89-0.64
				l0.75,0.7C118.54,307.09,117.79,307.43,116.97,307.43z"/>
		</g>
		<g>
			<path d="M120.75,294.36c-0.24,0-0.48-0.03-0.72-0.09l0.26-0.99c1.07,0.28,2.66-0.57,3.2-1.72c0.13-0.27,0.21-0.57,0.31-0.89
				c0.17-0.58,0.34-1.18,0.78-1.68c0.47-0.54,1.1-0.8,1.71-1.04c0.48-0.2,0.94-0.38,1.26-0.7c0.41-0.4,0.58-1.01,0.76-1.65
				c0.19-0.67,0.39-1.37,0.87-1.94c0.42-0.49,0.95-0.8,1.47-1.08c0.23-0.13,0.47-0.26,0.68-0.41c0.98-0.67,1.6-1.73,2.27-2.85
				c0.16-0.27,0.31-0.53,0.48-0.79c0.15-0.25,0.47-0.76,1.04-0.9c0.3-0.07,0.59-0.02,0.81,0.02l0.85,0.16
				c0.2,0.04,0.45,0.09,0.68,0.22c0.36,0.2,0.58,0.52,0.76,0.79l0.09,0.14c0.86,1.22,2.52,1.81,3.96,1.42
				c0.24-0.07,0.48-0.16,0.73-0.25c0.78-0.29,1.65-0.61,2.53-0.26c0.53,0.21,0.9,0.62,1.23,0.99c0.15,0.16,0.29,0.33,0.46,0.47
				c0.54,0.47,1.58,0.76,2.28,0.63l0.19,1.01c-1.01,0.19-2.36-0.18-3.14-0.86c-0.19-0.17-0.37-0.36-0.54-0.56
				c-0.28-0.31-0.54-0.59-0.85-0.72c-0.51-0.21-1.13,0.03-1.79,0.27c-0.27,0.1-0.54,0.2-0.81,0.28c-1.84,0.51-3.98-0.25-5.08-1.82
				l-0.11-0.16c-0.13-0.2-0.26-0.39-0.4-0.47c-0.1-0.05-0.24-0.08-0.38-0.11l-0.85-0.16c-0.13-0.03-0.28-0.06-0.36-0.03
				c-0.16,0.04-0.33,0.31-0.42,0.45c-0.16,0.25-0.31,0.51-0.47,0.77c-0.69,1.16-1.4,2.37-2.56,3.17c-0.24,0.17-0.5,0.32-0.77,0.46
				c-0.46,0.26-0.89,0.5-1.18,0.85c-0.34,0.41-0.5,0.97-0.67,1.57c-0.21,0.74-0.43,1.51-1.03,2.1c-0.46,0.46-1.04,0.69-1.6,0.92
				c-0.52,0.21-1.01,0.41-1.32,0.77c-0.29,0.33-0.42,0.8-0.56,1.29c-0.1,0.34-0.2,0.7-0.36,1.04
				C123.84,293.24,122.25,294.36,120.75,294.36z"/>
		</g>
		<g>
			<path d="M105.03,313.53c-0.18,0-0.35-0.01-0.53-0.02l0.06-1.02c2.08,0.13,4.54-0.6,5.96-1.77c1.35-1.1,3.02-3.11,3.3-5.13
				l1.02,0.14c-0.32,2.32-2.1,4.51-3.67,5.79C109.68,312.74,107.22,313.53,105.03,313.53z"/>
		</g>
		<g>
			<path d="M123.31,347.31c-11.59,0-22.06-5.45-26.29-14.42l0.93-0.44c5.12,10.87,19.85,16.35,34.28,12.73l0.25,1
				C129.41,346.94,126.32,347.31,123.31,347.31z"/>
		</g>
	</g>
	<g>
		<path d="M153.51,304.76c-0.42,0.31-7.15-0.14-7.47,0c-0.31,0.14,1.93,2.61,1.94,2.58c0-0.04,4.16-1.68,4.16-1.68L153.51,304.76z"
			/>
	</g>
	<g>
		<path d="M135.88,282.37c0.27,0.19,0.51,0.43,0.81,0.56c0.49,0.22,1.06,0.11,1.6,0.03c1.43-0.22,3.01-0.25,4.18,0.6
			c0.43,0.31,0.78,0.72,1.21,1.01c0.78,0.51,1.75,0.6,2.66,0.78s1.88,0.55,2.33,1.36c0.24-1.37,0.48-2.75,0.72-4.12
			c-0.61,0.14-1.26-0.07-1.79-0.4s-0.97-0.8-1.45-1.21c-0.19-0.16-0.38-0.33-0.61-0.42c-0.23-0.09-0.49-0.11-0.74-0.11
			c-1.07,0-2.12,0.24-3.19,0.3c-1.07,0.06-2.21-0.08-3.04-0.75c-0.41-0.33-0.73-0.77-1.15-1.09c-0.45-0.34-1.01-0.53-1.58-0.52
			c-0.36,0-0.74,0.1-0.96,0.38c-0.11,0.14-0.16,0.32-0.24,0.48c-0.28,0.61-2.43,2.11-2.1,2.75c0.2,0.39,1.01-0.11,1.4-0.14
			C134.63,281.8,135.33,281.97,135.88,282.37z"/>
	</g>
	<g>
		<path d="M115.09,310.99c-1.63,1.08-3.62,1.62-5.58,1.5c1.82-1.56,3.33-3.49,4.38-5.64c0.07-0.14,0.14-0.29,0.27-0.37
			c0.26-0.16,0.58,0.02,0.85,0.15c0.7,0.34,1.52,0.41,2.27,0.21c0.24-0.06,0.78-0.44,1-0.32c0.33,0.18,0.07,0.64-0.04,0.86
			C117.58,308.84,116.42,310.11,115.09,310.99z"/>
	</g>
	<g>
		<path d="M128.38,326.46c0.3-1.52,0.61-3.05,0.91-4.57c0.02-0.09,0.04-0.19,0-0.28c-0.04-0.09-0.12-0.15-0.2-0.21
			c-0.92-0.63-1.84-1.25-2.76-1.88c-0.45-0.31-1.51-1.23-2.11-0.92c-0.6,0.31-0.1,1.5,0.04,1.98c0.45,1.5,1.2,2.9,2.21,4.09
			C126.66,324.89,128.4,326.37,128.38,326.46z"/>
	</g>
</g>
<g>
	<g>
		<path class="st4" d="M440.92,360.68c2.8-7.17,8.66-14.74,14.73-21.01c0.02,0.26,0.12,0.49,0.3,0.7c0.45,0.52,1.5,0.75,2.99,0.75
			c7.83,0,27.77-6.44,35.85-11.59c2-1.28,3.17-2.4,3.56-3.41c7.44,9.57,16.29,22.62,19.35,34.57H440.92z"/>
	</g>
	<g>
		<path class="st3" d="M458.94,341.11c-1.49,0-2.54-0.23-2.99-0.75c-0.18-0.21-0.27-0.44-0.3-0.7
			c-6.07,6.27-11.93,13.84-14.73,21.01h9.04c3.03-6.77,6.3-13.43,10.47-19.63C459.9,341.09,459.4,341.11,458.94,341.11z"/>
	</g>
	<g>
		<path class="st3" d="M486.98,312.36c0.42,0.56,1.26,1.53,2.41,2.88c1.97,2.3,4.92,5.75,8.2,9.92c0.23,0.85-0.91,2.14-3.27,3.65
			c-9.66,6.16-35.41,13.66-37.73,11c-0.32-0.36,0.23-1.12,0.58-1.54l-0.08-0.07c2.56-2.55,5.12-4.85,7.46-6.76
			c1.56-1.28,2.28-3.54,2.12-6.74c-0.42-8.68-7.31-22.11-10.15-24c-0.59-0.4-2.19-0.04-6.63,1.08c-4.22,1.06-10,2.52-12.18,1.86
			c-2.49-0.75-3.19-3.88-3.71-6.17c-0.25-1.1-0.42-1.9-0.77-2.29c-0.88-1.01-1.77-1.38-2.42-1.65l-0.21-0.09
			c-0.38-0.17-0.75-0.63-0.73-1.2c0.03-0.85,0.89-1.64,2.37-2.17l1.76-0.63l-1.86-0.19c-1.89-0.2-3.84-0.4-3.89-1.29
			c-0.02-0.46,0.13-0.74,0.31-1.07c0.24-0.44,0.51-0.94,0.34-1.79c-0.31-1.57-1.07-3.59-2.87-4.28c-0.33-0.13-0.72-0.26-1.12-0.4
			c-1.62-0.55-3.64-1.24-4.25-2.4c-0.67-1.28-0.19-2.37-0.03-2.72c0.01-0.02,0.02-0.04,0.02-0.06c0.06-0.07,0.2-0.21,0.4-0.41
			c1.41-1.43,5.71-5.79,6.54-9.4c0.45-1.96-0.16-3.64-0.87-5.57c-0.58-1.58-1.24-3.37-1.46-5.71c-0.65-6.83,0.95-15.93,3.17-18.03
			l-0.33-0.35c0.92,0.48,1.65,1.33,1.92,2.34l0.03,0.12c0.08,0.33,0.19,0.74,0.52,1.02c0.16,0.13,0.33,0.21,0.49,0.27
			c0.07,0.03,0.14,0.06,0.2,0.09c0.7,0.4,1.41,0.28,1.98,0.2c0.67-0.11,1.03-0.14,1.38,0.24c0.91,1,2.35,0.6,3.51,0.27l0.15-0.04
			c1.97-0.55,4.54-0.17,5.41,1.63c0.11,0.22,0.19,0.47,0.28,0.71c0.23,0.64,0.48,1.36,1.14,1.77c0.36,0.22,0.76,0.29,1.11,0.36
			l3.25,0.59c0.39,0.48,1.03,0.73,1.64,0.63c0.59-0.09,1.06-0.47,1.48-0.8c0.43-0.34,0.8-0.64,1.19-0.59
			c0.45,0.05,0.81,0.54,1.14,1.06l1.87,3.02c0.15,0.24,0.29,0.48,0.25,0.67c-0.02,0.1-0.1,0.22-0.18,0.35l-0.07,0.11
			c-0.63,1.01-0.7,2.36-0.18,3.43c0.49,1.01,1.5,1.75,2.61,1.94c0.18,0.34,0.18,0.79-0.03,1.13c-0.03,0.05-0.07,0.1-0.11,0.15
			c-0.13,0.18-0.29,0.4-0.33,0.7c-0.08,0.6,0.39,1.05,0.62,1.27c0.38,0.36,0.77,0.45,1.09,0.53c0.19,0.04,0.34,0.08,0.48,0.16
			c-0.03,0.13-0.06,0.28-0.09,0.47c-0.03,0.18-0.09,0.49-0.11,0.53l-0.22,0.32l0.3,0.25c0.77,0.64,0.68,1.95,0.61,3
			c-0.08,1.26,0.49,4.06,1.82,4.67l0.38,0.18l0.18-0.38c2.18-4.49,5.34-5.52,7.39-5.04c0.78,0.18,1.91,0.93,2.75,2.46
			c0.81,1.49,1.89,4.8-0.01,10.19c-1.09,3.07-2.35,4.98-3.65,5.5c-0.9,0.37-1.63,0-2.06-0.21l-0.19-0.09
			c-0.68-0.3-1.67-1.16-1.68-1.17l-0.56,0.64c0.04,0.04,1.1,0.96,1.9,1.31l0.15,0.07c0.25,0.12,0.64,0.32,1.13,0.41
			c-0.4,3.66,2.84,9.51,4.56,11.88c1.15,1.58,2.55,2.35,3.87,2.1c0.12-0.02,0.24-0.05,0.35-0.09c0.22-0.06,0.43-0.11,0.6-0.08
			c0.28,0.05,0.49,0.33,0.74,0.66c0.14,0.18,0.28,0.36,0.43,0.51c0.26,0.26,0.56,0.44,0.88,0.58
			C480.9,300.4,484.14,308.62,486.98,312.36z"/>
	</g>
	<g>
		<path class="st1" d="M528.9,268.64c-0.09,0.74-1.33,2.46-1.78,2.46h-0.58l0.18,0.56c0.57,1.78-0.15,3.94-1.68,5.03
			c-0.23,0.16-0.58,0.41-0.61,0.85c-0.01,0.22,0.06,0.39,0.12,0.52c0.02,0.05,0.05,0.11,0.05,0.14c0.02,0.14-0.22,0.26-0.72,0.45
			c-0.23,0.09-0.47,0.18-0.66,0.29c-0.81,0.46-1.02,1.36-1.2,2.16c-0.07,0.31-0.14,0.62-0.25,0.91c-0.34,0.9-1.17,1.59-1.89,2.19
			l-0.44,0.37l0.48,0.32c0.69,0.45,1.02,1.46,0.78,2.39c-0.26,1.04-1.08,1.83-1.71,2.3c-1,0.74-2.19,1.23-3.51,1.41
			c-0.84,0.11-1.99,0.27-2.34,1.25c-0.04,0.12-0.07,0.25-0.1,0.37c-0.02,0.11-0.04,0.21-0.08,0.28c-0.13,0.26-0.57,0.34-0.98,0.38
			l-3.04,0.32l-0.06,0.31c-0.23,1.2-1.19,2.3-2.58,2.97c-1.3,0.62-2.78,0.82-4.2,1.01l-1,0.13c-0.35,0.05-0.75,0.1-1.12,0.29
			c-0.34,0.17-0.6,0.42-0.85,0.67l-0.16,0.16c-1.67,1.58-4.3,2.06-6.42,1.16l-0.22-0.1c-0.35-0.16-0.71-0.32-1.13-0.35
			c-0.07-0.01-0.13-0.01-0.19-0.01c-0.37,0-0.71,0.09-1.04,0.18c-0.25,0.07-0.49,0.13-0.72,0.15c-0.93,0.07-1.72-0.57-2.56-1.24
			c-0.64-0.51-1.3-1.05-2.08-1.33c-0.65-0.23-1.34-0.28-2.02-0.32c-0.95-0.07-1.84-0.13-2.42-0.7c-0.13-0.13-0.24-0.28-0.35-0.43
			c-0.31-0.41-0.66-0.87-1.26-0.98c-0.36-0.07-0.69,0.02-0.98,0.1c-0.1,0.03-0.2,0.05-0.29,0.07c-1.38,0.25-2.57-1.15-3.02-1.76
			c-2.06-2.83-4.78-8.26-4.4-11.35c0.25-0.03,0.51-0.09,0.78-0.2c1.55-0.63,2.94-2.65,4.13-6.01c2.02-5.7,0.84-9.27-0.04-10.89
			c-0.82-1.51-2.06-2.59-3.3-2.88c-2.28-0.54-5.73,0.48-8.12,5.04c-0.64-0.73-1.06-2.57-1-3.58c0.07-1.1,0.17-2.57-0.7-3.51
			c0.03-0.13,0.06-0.3,0.1-0.5c0.03-0.18,0.09-0.49,0.11-0.53l0.21-0.3l-0.27-0.25c-0.38-0.36-0.77-0.45-1.09-0.53
			c-0.28-0.06-0.48-0.11-0.69-0.31c-0.12-0.11-0.39-0.37-0.36-0.54c0.01-0.08,0.09-0.19,0.18-0.31c0.05-0.06,0.09-0.13,0.14-0.2
			c0.43-0.68,0.38-1.6-0.1-2.23l-0.11-0.15l-0.18-0.02c-0.9-0.09-1.74-0.68-2.14-1.5c-0.4-0.81-0.34-1.84,0.13-2.6l0.06-0.09
			c0.12-0.18,0.25-0.39,0.31-0.66c0.1-0.52-0.19-0.99-0.37-1.27l-1.87-3.02c-0.29-0.48-0.84-1.36-1.77-1.46
			c-0.75-0.08-1.32,0.37-1.82,0.78c-0.36,0.29-0.71,0.57-1.07,0.62c-0.34,0.06-0.72-0.12-0.91-0.41l-0.1-0.16l-3.6-0.65
			c-0.29-0.05-0.59-0.11-0.81-0.25c-0.41-0.25-0.59-0.77-0.78-1.33c-0.1-0.27-0.19-0.54-0.31-0.8c-1.08-2.24-4.05-2.74-6.41-2.08
			l-0.15,0.04c-0.99,0.28-2.1,0.59-2.65-0.02c-0.67-0.74-1.49-0.61-2.14-0.51c-0.51,0.08-0.99,0.15-1.43-0.1
			c-0.09-0.05-0.19-0.09-0.29-0.13c-0.11-0.04-0.21-0.08-0.27-0.13c-0.12-0.1-0.18-0.33-0.24-0.57l-0.03-0.13
			c-0.37-1.39-1.43-2.57-2.79-3.1c-0.05-0.02-0.12-0.04-0.13-0.02c0.01-0.05,0.06-0.15,0.09-0.21l0.07-0.15
			c0.33-0.75,0-1.49-0.29-2.14c-0.22-0.49-0.42-0.94-0.35-1.36c0.09-0.59,0.73-0.99,1.24-1.22c0.48-0.22,1.54-1.38,3.43-3.57
			c0.41-0.47,0.73-0.84,0.87-0.99c0.32-0.33,0.53-0.72,0.73-1.1c0.14-0.27,0.28-0.52,0.44-0.74c0.39-0.52,2.02-1.27,2.33-1.11
			l0.17,0.16l0.23-0.06c1.06-0.3,2.09-0.7,3.06-1.21c0.23-0.12,0.71-0.37,0.87-0.86c0.1-0.31,0.04-0.62-0.01-0.86l-0.02-0.12
			c-0.1-0.53-0.03-1.09,0.2-1.58c0.54-1.15,1.87-1.74,2.88-2.04c0.46-0.13,0.94-0.24,1.41-0.34c0.83-0.18,1.68-0.37,2.49-0.72
			c0.92-0.4,1.95-1.56,2.94-2.67c0.83-0.93,1.76-1.99,2.36-2.21h40.69c0.51,0,0.87,0.47,1.18,0.88c0.23,0.31,0.42,0.55,0.7,0.62
			c0.36,0.1,0.73,0.07,1.07,0.04l0.39-0.05c1.31-0.16,2.79-0.35,3.45,0.5c0.02,0.29,0.27,0.52,0.41,0.67
			c0.03,0.03,0.07,0.07,0.11,0.11l-0.22,0.43l2.57,0.21c0.5,0.04,1.07,0.09,1.5,0.34c0.37,0.22,0.8,0.64,1.27,1.1
			c0.79,0.78,1.61,1.58,2.48,1.74l1.85,1.84c0.3,0.29,0.6,0.6,0.98,0.84c0.41,0.27,0.85,0.43,1.28,0.59l0.28,0.11
			c2.07,0.81,3.88,2.16,5.24,3.93c0.09,0.11,0.35,0.46,0.29,0.68c-0.01,0.05-0.04,0.1-0.06,0.14c-0.08,0.16-0.18,0.38-0.14,0.65
			c0.08,0.5,0.53,0.65,0.83,0.75c0.11,0.04,0.22,0.08,0.29,0.12c0.18,0.11,0.22,0.46,0.27,0.79l0.03,0.2
			c0.21,1.37,1.22,2.6,2.52,3.07c0.33,0.12,0.66,0.19,0.99,0.25c0.3,0.06,0.6,0.12,0.88,0.23c0.89,0.32,1.6,1.09,1.85,2l0.04,0.14
			c0.06,0.22,0.12,0.47,0.27,0.7c0.24,0.37,0.62,0.54,0.95,0.69c0.12,0.06,0.24,0.11,0.34,0.18c0.4,0.24,0.66,0.7,0.71,1.23
			c0.05,0.54-0.13,1.04-0.48,1.34c-0.08,0.07-0.16,0.13-0.25,0.19c-0.2,0.15-0.44,0.32-0.61,0.57c-0.57,0.83-0.13,1.73,0.27,2.52
			c0.11,0.23,0.23,0.46,0.31,0.69c0.27,0.72,0.21,1.54,0.15,2.34l-0.29,3.73c-0.08,1.01-0.23,2.14-0.99,2.64
			c-0.09,0.06-0.18,0.11-0.27,0.16c-0.3,0.16-0.63,0.34-0.83,0.71c-0.32,0.61-0.02,1.24,0.22,1.74l0.09,0.18
			c0.3,0.65,0.39,1.38,0.49,2.15c0.04,0.34,0.09,0.69,0.15,1.03c0.16,0.89,0.64,2.46,2.02,3.01l0.15,0.05
			c0.13,0.05,0.26,0.09,0.31,0.15c0.07,0.07,0.08,0.27,0.09,0.4l0.21,2.4c-0.54,0.21-0.9,0.8-0.95,1.36
			c-0.05,0.55,0.13,1.07,0.29,1.52l0.06,0.19C528.92,265.78,529.06,267.24,528.9,268.64z"/>
	</g>
	<g>
		<path d="M528.41,264.25c-0.16-0.46-0.33-0.97-0.29-1.52c0.05-0.56,0.41-1.15,0.95-1.36l-0.21-2.4c-0.01-0.13-0.03-0.32-0.09-0.4
			c-0.05-0.06-0.18-0.1-0.31-0.15l-0.15-0.05c-1.38-0.55-1.86-2.12-2.02-3.01c-0.06-0.34-0.1-0.68-0.15-1.03
			c-0.1-0.77-0.19-1.5-0.49-2.15l-0.09-0.18c-0.24-0.5-0.54-1.12-0.22-1.74c0.19-0.37,0.53-0.55,0.83-0.71
			c0.09-0.05,0.18-0.1,0.27-0.16c0.76-0.51,0.91-1.63,0.99-2.64l0.29-3.73c0.06-0.8,0.13-1.62-0.15-2.34
			c-0.09-0.23-0.2-0.45-0.31-0.69c-0.39-0.79-0.84-1.69-0.27-2.52c0.17-0.25,0.4-0.42,0.61-0.57c0.09-0.06,0.17-0.12,0.25-0.19
			c0.35-0.3,0.53-0.8,0.48-1.34c-0.05-0.54-0.31-1-0.71-1.23c-0.11-0.07-0.23-0.12-0.34-0.18c-0.33-0.15-0.7-0.33-0.95-0.69
			c-0.15-0.23-0.22-0.48-0.27-0.7l-0.04-0.14c-0.11-0.41-0.33-0.79-0.61-1.11c-1.19,8.04-7.6,17.46-6.84,25.86
			c-1.14,0-3.41,1.14-3.41,1.14l-10.22,10.22l-6.81,1.14l-2.27,3.41c0,0-6.81,1.14-10.22,3.41c0-1.14-2.27-1.14-2.27-1.14
			s-5.32,1.29-9.11,1.92c-1.08,2.61-2.3,4.2-3.65,4.75c-0.27,0.11-0.53,0.17-0.78,0.2c-0.38,3.08,2.34,8.52,4.4,11.35
			c0.45,0.62,1.64,2.02,3.02,1.76c0.1-0.02,0.2-0.05,0.29-0.07c0.29-0.08,0.62-0.17,0.98-0.1c0.6,0.11,0.95,0.57,1.26,0.98
			c0.11,0.15,0.23,0.3,0.35,0.43c0.58,0.58,1.47,0.64,2.42,0.7c0.67,0.05,1.37,0.09,2.02,0.32c0.78,0.28,1.45,0.81,2.08,1.33
			c0.84,0.67,1.63,1.31,2.56,1.24c0.23-0.02,0.47-0.08,0.72-0.15c0.33-0.09,0.67-0.18,1.04-0.18c0.06,0,0.13,0,0.19,0.01
			c0.42,0.04,0.78,0.2,1.13,0.35l0.22,0.1c2.11,0.89,4.75,0.41,6.42-1.16l0.16-0.16c0.25-0.25,0.51-0.5,0.85-0.67
			c0.37-0.19,0.77-0.24,1.12-0.29l1-0.13c1.43-0.19,2.91-0.39,4.2-1.01c1.38-0.66,2.35-1.77,2.58-2.97l0.06-0.31l3.04-0.32
			c0.41-0.04,0.85-0.12,0.98-0.38c0.03-0.07,0.05-0.17,0.08-0.28c0.02-0.13,0.05-0.25,0.1-0.37c0.36-0.98,1.51-1.13,2.34-1.25
			c1.32-0.18,2.51-0.66,3.51-1.41c0.64-0.47,1.45-1.25,1.71-2.3c0.24-0.94-0.09-1.94-0.78-2.39l-0.48-0.32l0.44-0.37
			c0.73-0.6,1.55-1.29,1.89-2.19c0.11-0.28,0.18-0.6,0.25-0.91c0.18-0.8,0.39-1.7,1.2-2.16c0.19-0.11,0.43-0.2,0.66-0.29
			c0.5-0.19,0.75-0.31,0.72-0.45c-0.01-0.03-0.03-0.08-0.05-0.14c-0.06-0.13-0.13-0.31-0.12-0.52c0.02-0.44,0.37-0.69,0.61-0.85
			c1.53-1.08,2.25-3.25,1.68-5.03l-0.18-0.56h0.58c0.44,0,1.69-1.72,1.78-2.46c0.17-1.41,0.02-2.86-0.42-4.2L528.41,264.25z"/>
	</g>
	<g>
		<g>
			<path d="M440.79,361.28l-0.96-0.35c4.09-11.1,15.56-23.21,24.14-30.22c1.32-1.08,1.92-3.09,1.78-5.97
				c-0.41-8.45-7.01-21.45-9.74-23.27c-0.48-0.15-3.47,0.6-5.88,1.21c-4.57,1.15-10.26,2.58-12.68,1.85
				c-3.02-0.9-3.82-4.49-4.35-6.86c-0.17-0.78-0.37-1.67-0.56-1.88c-0.73-0.84-1.47-1.15-2.07-1.4l-0.22-0.1
				c-0.79-0.34-1.33-1.2-1.3-2.09c0.02-0.54,0.25-1.43,1.4-2.23c-1.65-0.25-2.95-0.7-3.02-1.98c-0.04-0.72,0.21-1.19,0.42-1.57
				c0.2-0.37,0.35-0.64,0.24-1.16c-0.27-1.34-0.88-3.05-2.28-3.59c-0.32-0.12-0.69-0.25-1.09-0.38c-1.78-0.6-4-1.36-4.78-2.85
				c-0.58-1.11-0.6-2.3-0.06-3.54c0.07-0.2,0.11-0.24,0.61-0.75c1.37-1.39,5.52-5.6,6.29-8.95c0.39-1.69-0.15-3.17-0.84-5.04
				c-0.6-1.63-1.28-3.49-1.52-5.94c-0.61-6.45,0.79-16.28,3.46-18.8l0.71,0.75c-2.2,2.09-3.79,11.15-3.14,17.96
				c0.22,2.32,0.88,4.11,1.46,5.69c0.72,1.95,1.34,3.63,0.88,5.62c-0.84,3.63-5.15,8.01-6.56,9.44c-0.18,0.19-0.32,0.32-0.39,0.4
				c-0.01,0.01-0.01,0.03-0.02,0.04c-0.15,0.35-0.62,1.41,0.03,2.65c0.59,1.13,2.68,1.84,4.2,2.35c0.41,0.14,0.8,0.27,1.13,0.4
				c1.84,0.71,2.6,2.75,2.92,4.35c0.17,0.88-0.11,1.41-0.34,1.85c-0.18,0.33-0.32,0.59-0.3,1.03c0.04,0.82,2.04,1.03,3.81,1.21
				l2.24,0.23l-2.12,0.76c-1.45,0.52-2.29,1.28-2.32,2.09c-0.02,0.53,0.33,0.97,0.68,1.12l0.21,0.09c0.66,0.28,1.55,0.65,2.44,1.67
				c0.36,0.41,0.54,1.22,0.79,2.33c0.51,2.27,1.2,5.37,3.64,6.11c2.15,0.65,7.92-0.81,12.14-1.86c4.46-1.12,6.08-1.48,6.7-1.06
				c2.93,1.96,9.76,15.18,10.19,24.07c0.16,3.23-0.57,5.52-2.16,6.82C456.13,338.43,444.8,350.38,440.79,361.28z"/>
		</g>
		<g>
			<path d="M517.74,361.23c-4.31-17.8-21.82-38.23-28.41-45.93c-1.16-1.35-1.99-2.32-2.41-2.88c-2.9-3.82-6.21-12.27-6.61-14.81
				l1.01-0.16c0.39,2.45,3.6,10.64,6.41,14.35c0.41,0.53,1.23,1.5,2.38,2.83c6.63,7.74,24.26,28.31,28.63,46.35L517.74,361.23z"/>
		</g>
		<g>
			<path d="M458.97,341.22c-1.52,0-2.61-0.24-3.09-0.8c-0.59-0.68-0.4-1.61,0.57-2.76l0.78,0.66c-0.27,0.32-0.87,1.1-0.59,1.42
				c2.11,2.42,27.19-4.36,37.62-11.02c2.4-1.53,3.57-2.86,3.21-3.65l0.94-0.42c0.61,1.39-0.56,3-3.6,4.94
				C487.45,334.31,467.06,341.22,458.97,341.22z"/>
		</g>
		<g>
			<path d="M494.78,301.67c-0.89,0-1.79-0.17-2.61-0.51l-0.25-0.11c-0.29-0.13-0.57-0.25-0.83-0.28c-0.28-0.02-0.58,0.06-0.91,0.14
				c-0.28,0.08-0.58,0.15-0.89,0.18c-1.31,0.09-2.27-0.69-3.22-1.45c-0.6-0.49-1.18-0.95-1.81-1.17c-0.52-0.19-1.13-0.23-1.76-0.27
				c-1.08-0.07-2.2-0.15-3.02-0.98c-0.16-0.16-0.3-0.34-0.44-0.52c-0.24-0.31-0.44-0.58-0.69-0.62c-0.15-0.02-0.35,0.03-0.56,0.08
				c-0.12,0.03-0.24,0.06-0.36,0.09c-1.34,0.26-2.78-0.52-3.95-2.13c-1.8-2.48-5.28-8.78-4.5-12.43l1,0.21
				c-0.64,2.98,2.21,8.69,4.33,11.61c0.44,0.6,1.61,1.98,2.93,1.73c0.1-0.02,0.19-0.05,0.29-0.07c0.3-0.08,0.64-0.17,1.02-0.1
				c0.63,0.12,1.01,0.61,1.31,1.01c0.11,0.15,0.22,0.29,0.35,0.42c0.56,0.56,1.43,0.62,2.37,0.68c0.68,0.05,1.38,0.09,2.04,0.33
				c0.8,0.29,1.46,0.82,2.11,1.34c0.82,0.66,1.6,1.31,2.5,1.22c0.22-0.02,0.46-0.08,0.71-0.14c0.38-0.1,0.81-0.21,1.27-0.17
				c0.43,0.04,0.82,0.21,1.15,0.36l0.23,0.1c2.08,0.88,4.68,0.41,6.32-1.15l0.16-0.15c0.24-0.24,0.52-0.51,0.88-0.69
				c0.39-0.19,0.81-0.25,1.15-0.3l1-0.13c1.42-0.19,2.89-0.39,4.18-1c1.36-0.65,2.31-1.73,2.53-2.9l0.07-0.37l3.11-0.33
				c0.34-0.04,0.8-0.11,0.91-0.33c0.03-0.06,0.05-0.16,0.07-0.26c0.03-0.13,0.05-0.26,0.1-0.39c0.38-1.03,1.56-1.19,2.42-1.3
				c1.3-0.18,2.47-0.66,3.47-1.39c0.63-0.46,1.42-1.23,1.68-2.25c0.23-0.9-0.09-1.87-0.74-2.3l-0.58-0.38l0.53-0.44
				c0.72-0.6,1.54-1.27,1.87-2.16c0.1-0.27,0.17-0.57,0.24-0.9c0.19-0.82,0.4-1.74,1.24-2.22c0.2-0.11,0.44-0.2,0.67-0.29
				c0.22-0.08,0.62-0.23,0.67-0.34c-0.01-0.03-0.03-0.09-0.05-0.13c-0.06-0.14-0.14-0.32-0.13-0.56c0.03-0.48,0.42-0.76,0.65-0.92
				c1.49-1.06,2.2-3.18,1.64-4.93l-0.21-0.67h0.7c0.42-0.04,1.61-1.71,1.69-2.38c0.16-1.39,0.02-2.83-0.42-4.16l-0.07-0.2
				c-0.16-0.46-0.33-0.98-0.29-1.55c0.05-0.57,0.4-1.17,0.94-1.41l-0.2-2.34c-0.01-0.1-0.03-0.3-0.07-0.35
				c-0.04-0.04-0.17-0.09-0.27-0.12l-0.15-0.06c-1.42-0.57-1.91-2.17-2.07-3.08c-0.06-0.34-0.1-0.69-0.15-1.03
				c-0.09-0.77-0.18-1.49-0.48-2.13l-0.09-0.18c-0.24-0.49-0.56-1.16-0.22-1.82c0.21-0.39,0.57-0.59,0.86-0.75
				c0.09-0.05,0.18-0.1,0.26-0.15c0.73-0.48,0.87-1.58,0.95-2.58l0.29-3.73c0.06-0.79,0.12-1.6-0.14-2.3
				c-0.08-0.22-0.2-0.45-0.31-0.68c-0.38-0.77-0.86-1.74-0.26-2.61c0.18-0.26,0.42-0.44,0.63-0.59c0.08-0.06,0.17-0.12,0.24-0.19
				c0.33-0.28,0.5-0.76,0.45-1.26c-0.05-0.51-0.29-0.94-0.67-1.17c-0.11-0.06-0.22-0.12-0.34-0.17c-0.34-0.16-0.72-0.34-0.98-0.73
				c-0.16-0.24-0.23-0.5-0.28-0.72l-0.04-0.14c-0.24-0.89-0.93-1.63-1.8-1.95c-0.27-0.1-0.56-0.16-0.87-0.22
				c-0.33-0.07-0.66-0.14-1-0.26c-1.35-0.48-2.36-1.71-2.58-3.13l-0.03-0.21c-0.04-0.3-0.08-0.63-0.23-0.73
				c-0.06-0.04-0.17-0.07-0.27-0.11c-0.3-0.1-0.8-0.27-0.89-0.82c-0.05-0.3,0.07-0.54,0.15-0.7c0.02-0.04,0.05-0.09,0.06-0.13
				c0.02-0.08-0.01-0.25-0.27-0.59c-1.34-1.75-3.14-3.1-5.2-3.9l-0.29-0.11c-0.43-0.16-0.87-0.33-1.29-0.6
				c-0.38-0.25-0.69-0.56-0.99-0.85l-1.83-1.82c-0.89-0.17-1.71-0.98-2.5-1.76c-0.46-0.45-0.89-0.87-1.25-1.08
				c-0.41-0.24-0.94-0.28-1.46-0.33l-2.7-0.22l0.25-0.48c-0.02-0.02-0.04-0.04-0.06-0.06c-0.16-0.15-0.41-0.39-0.44-0.7
				c-0.64-0.78-2.08-0.61-3.35-0.45l-0.39,0.05c-0.35,0.04-0.72,0.06-1.1-0.04c-0.31-0.08-0.51-0.35-0.74-0.65
				c-0.37-0.48-0.68-0.85-1.11-0.85v-1.03c0.97,0,1.55,0.75,1.93,1.25c0.09,0.12,0.21,0.28,0.26,0.32c0.14,0.03,0.4,0.01,0.64-0.02
				l0.38-0.05c1.57-0.19,3.51-0.44,4.44,1.06l0.15,0.25l-0.03,0.06c0.02,0.02,0.04,0.04,0.06,0.06c0.09,0.09,0.22,0.21,0.31,0.35
				l1.57,0.13c0.57,0.05,1.29,0.11,1.9,0.46c0.47,0.27,0.94,0.74,1.45,1.24c0.69,0.68,1.47,1.45,2.06,1.49l0.19,0.02l2.09,2.07
				c0.28,0.27,0.54,0.53,0.83,0.72c0.32,0.21,0.69,0.35,1.08,0.5l0.3,0.11c2.23,0.87,4.18,2.33,5.64,4.23
				c0.18,0.23,0.64,0.83,0.45,1.51c-0.03,0.1-0.07,0.2-0.12,0.29c-0.01,0.01-0.02,0.03-0.02,0.05c0.05,0.02,0.12,0.04,0.17,0.06
				c0.16,0.05,0.33,0.11,0.5,0.22c0.55,0.35,0.63,0.99,0.69,1.46l0.03,0.19c0.16,1.04,0.92,1.97,1.91,2.32
				c0.28,0.1,0.57,0.16,0.86,0.22c0.33,0.07,0.67,0.14,1.01,0.26c1.17,0.43,2.11,1.44,2.44,2.64l0.04,0.16
				c0.04,0.16,0.08,0.31,0.14,0.41c0.1,0.15,0.31,0.25,0.56,0.37c0.15,0.07,0.29,0.14,0.43,0.22c0.65,0.39,1.09,1.12,1.16,1.96
				c0.07,0.83-0.22,1.63-0.8,2.13c-0.1,0.09-0.21,0.16-0.31,0.24c-0.16,0.12-0.3,0.22-0.39,0.34c-0.24,0.35-0.04,0.83,0.33,1.57
				c0.13,0.26,0.25,0.52,0.35,0.77c0.35,0.91,0.27,1.89,0.2,2.74l-0.29,3.73c-0.07,0.89-0.2,2.55-1.4,3.35
				c-0.11,0.07-0.22,0.14-0.34,0.2c-0.2,0.11-0.38,0.21-0.44,0.32c-0.1,0.19,0.07,0.55,0.23,0.89l0.09,0.2
				c0.36,0.79,0.47,1.62,0.57,2.43c0.04,0.33,0.08,0.65,0.14,0.97c0.1,0.56,0.45,1.91,1.44,2.31l0.12,0.04
				c0.22,0.08,0.49,0.17,0.7,0.42c0.26,0.3,0.3,0.68,0.32,0.93l0.29,3.37l-0.58-0.02c0,0-0.01,0-0.01,0c-0.2,0-0.42,0.28-0.44,0.58
				c-0.03,0.35,0.1,0.73,0.23,1.13l0.07,0.21c0.49,1.47,0.65,3.06,0.46,4.61c-0.09,0.74-1.08,2.52-2.09,3.1
				c0.44,2.07-0.42,4.36-2.16,5.6c-0.07,0.05-0.17,0.12-0.21,0.17c0.01,0,0.03,0.04,0.04,0.07c0.04,0.09,0.09,0.21,0.12,0.34
				c0.18,0.93-0.76,1.29-1.31,1.5c-0.19,0.07-0.38,0.14-0.53,0.23c-0.45,0.25-0.59,0.86-0.75,1.55c-0.08,0.34-0.16,0.7-0.28,1.03
				c-0.35,0.92-1.05,1.62-1.71,2.19c0.67,0.75,0.94,1.88,0.67,2.97c-0.26,1.04-0.98,2.01-2.07,2.82c-1.13,0.84-2.46,1.38-3.86,1.57
				c-0.75,0.1-1.51,0.21-1.68,0.65c-0.03,0.07-0.04,0.15-0.06,0.23c-0.03,0.16-0.07,0.34-0.16,0.52c-0.38,0.75-1.32,0.85-1.72,0.89
				l-2.37,0.25c-0.39,1.34-1.49,2.54-3,3.26c-1.43,0.68-2.98,0.89-4.48,1.09l-1,0.13c-0.29,0.04-0.59,0.08-0.83,0.2
				c-0.21,0.11-0.41,0.3-0.62,0.5l-0.17,0.17C498.32,301.01,496.55,301.67,494.78,301.67z"/>
		</g>
		<g>
			<path d="M469.52,282.31c-0.76,0-1.36-0.3-1.7-0.47l-0.15-0.07c-0.81-0.35-1.88-1.28-1.92-1.32l0.68-0.77
				c0.27,0.24,1.1,0.91,1.66,1.15c0.05,0.02,0.12,0.06,0.2,0.09c0.42,0.21,1.13,0.56,1.99,0.21c0.89-0.36,2.24-1.6,3.6-5.45
				c1.9-5.36,0.83-8.64,0.02-10.12c-0.82-1.51-1.93-2.24-2.69-2.42c-2.01-0.47-5.13,0.54-7.29,5l-0.22,0.45l-0.46-0.21
				c-1.37-0.63-1.96-3.47-1.87-4.76c0.07-1.03,0.15-2.32-0.58-2.93l-0.36-0.3l0.27-0.39c0-0.03,0.06-0.32,0.09-0.5
				c0.03-0.16,0.06-0.29,0.08-0.4c-0.12-0.06-0.25-0.09-0.4-0.12c-0.32-0.08-0.73-0.17-1.13-0.55c-0.24-0.23-0.73-0.7-0.65-1.34
				c0.04-0.32,0.21-0.55,0.35-0.74c0.04-0.05,0.07-0.1,0.1-0.15c0.18-0.29,0.19-0.69,0.05-1c-1.12-0.2-2.13-0.96-2.63-1.98
				c-0.54-1.1-0.47-2.48,0.18-3.51l0.07-0.11c0.08-0.12,0.15-0.23,0.17-0.31c0.03-0.17-0.13-0.43-0.24-0.61l-1.87-3.02
				c-0.31-0.5-0.66-0.98-1.07-1.02c-0.35-0.04-0.72,0.24-1.13,0.58c-0.42,0.34-0.9,0.72-1.52,0.82c-0.64,0.09-1.29-0.16-1.7-0.64
				l-3.22-0.59c-0.36-0.07-0.77-0.14-1.14-0.37c-0.69-0.42-0.95-1.16-1.18-1.81c-0.08-0.24-0.17-0.48-0.27-0.7
				c-0.85-1.76-3.37-2.13-5.31-1.59l-0.15,0.04c-1.12,0.31-2.66,0.75-3.6-0.3c-0.31-0.35-0.64-0.31-1.3-0.21
				c-0.58,0.09-1.3,0.2-2.04-0.21c-0.06-0.03-0.13-0.06-0.19-0.09c-0.15-0.06-0.34-0.14-0.51-0.28c-0.35-0.3-0.46-0.72-0.55-1.06
				l-0.03-0.12c-0.29-1.11-1.14-2.05-2.21-2.46c-0.19-0.07-0.49-0.19-0.65-0.5c-0.22-0.41-0.02-0.8,0.09-1.03l0.06-0.11
				c0.15-0.35-0.01-0.75-0.28-1.38c-0.25-0.56-0.54-1.2-0.43-1.89c0.13-0.79,0.74-1.45,1.77-1.93c0.42-0.21,2.31-2.4,3.11-3.33
				c0.43-0.49,0.76-0.88,0.91-1.03c0.23-0.24,0.4-0.55,0.58-0.89c0.15-0.29,0.31-0.59,0.53-0.87c0.44-0.57,1.88-1.39,2.81-1.48
				c0.24-0.02,0.45,0,0.62,0.07c0.92-0.27,1.82-0.63,2.68-1.08c0.1-0.05,0.37-0.19,0.41-0.31c0.03-0.08-0.01-0.23-0.04-0.38
				l-0.03-0.14c-0.14-0.72-0.04-1.49,0.27-2.15c0.55-1.16,1.75-2.04,3.47-2.54c0.48-0.14,0.98-0.25,1.47-0.36
				c0.82-0.18,1.6-0.35,2.32-0.66c0.73-0.32,1.73-1.44,2.61-2.44c1.07-1.21,2-2.25,2.85-2.5l0.29,0.99
				c-0.57,0.17-1.53,1.25-2.37,2.2c-1,1.13-2.03,2.29-2.97,2.7c-0.82,0.35-1.68,0.54-2.51,0.72c-0.47,0.1-0.94,0.21-1.41,0.34
				c-1,0.29-2.3,0.87-2.82,1.99c-0.22,0.47-0.29,1.01-0.19,1.52l0.02,0.12c0.05,0.25,0.12,0.57,0.01,0.9
				c-0.17,0.52-0.67,0.78-0.91,0.91c-0.98,0.51-2.02,0.92-3.08,1.21l-0.27,0.08l-0.21-0.19c-0.34-0.11-1.85,0.63-2.21,1.1
				c-0.16,0.21-0.29,0.46-0.44,0.73c-0.2,0.38-0.42,0.78-0.75,1.12c-0.14,0.14-0.46,0.52-0.87,0.99c-1.9,2.2-2.96,3.36-3.46,3.59
				c-0.4,0.18-1.09,0.58-1.19,1.16c-0.06,0.39,0.14,0.84,0.35,1.31c0.3,0.66,0.63,1.42,0.29,2.21l-0.08,0.16
				c-0.01,0.03-0.03,0.06-0.05,0.09c0.02,0.01,0.03,0.01,0.04,0.02c1.38,0.53,2.46,1.74,2.84,3.16l0.04,0.14
				c0.05,0.21,0.11,0.44,0.21,0.52c0.05,0.04,0.14,0.08,0.24,0.12c0.1,0.04,0.21,0.09,0.3,0.14c0.42,0.24,0.86,0.17,1.37,0.09
				c0.68-0.11,1.52-0.24,2.22,0.54c0.52,0.57,1.6,0.27,2.56,0l0.15-0.04c2.4-0.67,5.41-0.15,6.51,2.13
				c0.12,0.25,0.22,0.53,0.32,0.81c0.2,0.56,0.37,1.05,0.75,1.28c0.21,0.13,0.5,0.18,0.78,0.23l3.63,0.66l0.12,0.19
				c0.17,0.26,0.52,0.42,0.82,0.37c0.34-0.05,0.68-0.32,1.03-0.61c0.51-0.41,1.09-0.88,1.88-0.79c0.97,0.1,1.53,1.01,1.83,1.5
				l1.87,3.02c0.18,0.29,0.48,0.78,0.38,1.33c-0.05,0.28-0.2,0.51-0.31,0.69l-0.06,0.1c-0.46,0.74-0.51,1.73-0.13,2.52
				c0.39,0.79,1.2,1.36,2.07,1.45l0.22,0.02l0.14,0.18c0.51,0.67,0.55,1.62,0.11,2.33c-0.04,0.07-0.09,0.14-0.14,0.2
				c-0.07,0.1-0.15,0.21-0.16,0.27c-0.01,0.09,0.1,0.24,0.34,0.47c0.2,0.19,0.39,0.23,0.65,0.29c0.32,0.08,0.73,0.17,1.13,0.55
				l0.32,0.3l-0.25,0.36c0,0.03-0.06,0.32-0.09,0.5c-0.04,0.18-0.06,0.33-0.09,0.46c0.86,0.97,0.76,2.44,0.69,3.54
				c-0.06,0.96,0.33,2.66,0.9,3.42c2.42-4.5,5.86-5.51,8.16-4.96c1.27,0.3,2.52,1.39,3.35,2.93c0.89,1.63,2.08,5.22,0.05,10.96
				c-1.2,3.38-2.6,5.42-4.18,6.06C470.25,282.25,469.87,282.31,469.52,282.31z"/>
		</g>
	</g>
	<g>
		<path d="M449.13,301.89c1.74-0.56,3.5-1.12,5.15-1.9c3.36-1.57,6.25-3.97,9.1-6.34c0.42,4.41,0.53,17.19,0.07,19.08
			c-0.28-1.49-1.06-2.83-1.85-4.12c-1.33-2.18-2.72-4.34-4.15-6.45c-0.13-0.19-0.26-0.38-0.43-0.54c-0.75-0.7-1.95-0.47-2.94-0.2
			c-1.71,0.45-3.44,0.85-5.17,1.21c-1.63,0.33-3.55,0.38-5.1,0.94C445.57,303.32,447.43,302.44,449.13,301.89z"/>
	</g>
	<g>
		<path d="M471.82,291.32c-0.9-1.56-2.75-7.16-2.39-8.93c0.03-0.14,0.06-0.3-0.02-0.42c-0.06-0.09-0.16-0.13-0.26-0.17
			c-0.52-0.22-2.75-1.73-3.34-1.4C465.17,280.76,471.4,290.58,471.82,291.32z"/>
	</g>
	<g>
		<path d="M427.57,240.71c0.64,0.16,1.3,0.24,1.96,0.23c0.82-0.01,1.64-0.15,2.46-0.06c1.53,0.16,2.95,1.15,3.62,2.53
			c0.12,0.25,0.23,0.52,0.47,0.65c0.16,0.09,0.36,0.1,0.55,0.1c1.2,0.01,2.44-0.18,3.59,0.16c1.46,0.44,2.51,1.67,3.65,2.69
			c1.13,1.02,2.65,1.93,4.11,1.5c0.35-0.1,0.67-0.27,1.02-0.34c1.54-0.3,2.78,1.36,4.32,1.63c0.49,0.09,1.03,0.05,1.41,0.36
			c0.69,0.55,0.37,1.78,1.01,2.39c0.1,0.1,0.23,0.17,0.36,0.18c0.29,0.01,0.5-0.32,0.51-0.61c0.01-0.29-0.09-0.58-0.09-0.88
			c0-0.89,0.9-1.7,0.6-2.54c-0.11-0.31-0.37-0.53-0.61-0.76c-0.91-0.87-1.65-1.91-2.16-3.06c-0.07-0.16-0.15-0.34-0.29-0.44
			c-0.24-0.17-0.58-0.09-0.83,0.08c-0.24,0.17-0.43,0.41-0.68,0.57c-0.89,0.59-2.05-0.02-3.08-0.29c-1.59-0.42-3.52-0.05-4.71-1.18
			c-0.59-0.56-0.86-1.38-1.36-2.03c-0.66-0.87-1.7-1.39-2.77-1.62c-1.07-0.23-2.17-0.19-3.26-0.13c-0.71,0.04-1.45,0.09-2.1-0.18
			c-0.27-0.11-0.51-0.27-0.79-0.35c-0.23-0.07-0.48-0.08-0.72-0.07c-0.58,0.01-1.16,0.1-1.73,0.04c-0.57-0.06-1.17-0.32-1.44-0.83
			c-0.14-0.26-0.19-0.56-0.3-0.83c-0.26-0.61-0.84-1-1.39-1.36c-0.09-0.06-0.2-0.12-0.3-0.08c-0.07,0.02-0.11,0.08-0.15,0.14
			c-0.63,0.86-1.2,1.76-1.73,2.69C426.21,239.9,426.55,240.45,427.57,240.71z"/>
	</g>
	<g>
		<path d="M430.33,278.62c0.21,0.02,0.43,0.06,0.58,0.21c0.35,0.34,0.07,0.92-0.21,1.33c-1.05,1.55-1.75,3.34-2.05,5.19
			c-0.44-1.47-0.97-3.07-2.3-3.85c-0.73-0.42-1.59-0.53-2.4-0.74c-0.39-0.1-1.99-0.55-1.68-1.24c0.19-0.4,1.98-0.31,2.43-0.37
			C426.57,278.88,428.43,278.42,430.33,278.62z"/>
	</g>
	<g>
		<path d="M477.34,299.03c1.73,2.62,3.91,4.93,6.24,7.03c-0.65-1.9-1.31-3.8-1.96-5.7c-0.28-0.82-0.57-1.65-1-2.4
			c-0.4-0.69-0.92-1.31-1.44-1.91c-0.07-0.08-0.14-0.17-0.24-0.23c-0.16-0.1-0.36-0.12-0.55-0.11c-0.67,0-1.33,0.15-2,0.08
			c-0.73-0.07-1.28-0.41-1.86-0.82c0.08,0.54,1.09,1.41,1.42,1.9C476.43,297.57,476.87,298.31,477.34,299.03z"/>
	</g>
</g>
<g>
	<g>
		<path class="st3" d="M542.85,162.95h-72.06c-5.19,0-9.4,4.21-9.4,9.4v52.72c0,5.19,4.21,9.4,9.4,9.4h6.41
			c0.9,0,1.63,0.73,1.63,1.63v9.07c0,0.94,1.05,1.49,1.83,0.96l15.98-11c0.62-0.43,1.35-0.65,2.1-0.65h44.12
			c5.19,0,9.4-4.21,9.4-9.4v-52.72C552.25,167.16,548.04,162.95,542.85,162.95z"/>
	</g>
	<g>
		<path d="M479.98,246.84c-0.27,0-0.54-0.06-0.78-0.19c-0.55-0.29-0.9-0.86-0.9-1.49v-9.07c0-0.61-0.5-1.11-1.11-1.11h-6.41
			c-5.47,0-9.91-4.45-9.91-9.91v-52.72c0-5.47,4.45-9.91,9.91-9.91h72.06c5.47,0,9.91,4.45,9.91,9.91v52.72
			c0,5.47-4.45,9.91-9.91,9.91h-44.12c-0.65,0-1.28,0.2-1.81,0.56l-15.98,11C480.65,246.74,480.32,246.84,479.98,246.84z
			 M470.78,163.46c-4.9,0-8.89,3.99-8.89,8.89v52.72c0,4.9,3.99,8.89,8.89,8.89h6.41c1.18,0,2.14,0.96,2.14,2.14v9.07
			c0,0.25,0.13,0.46,0.35,0.58c0.22,0.12,0.47,0.1,0.68-0.04l15.98-11c0.71-0.49,1.54-0.74,2.39-0.74h44.12
			c4.9,0,8.88-3.99,8.88-8.89v-52.72c0-4.9-3.99-8.89-8.88-8.89H470.78z"/>
	</g>
</g>
<g>
	<g>
		<path class="st3" d="M11.78,219.66h63.06c4.54,0,8.22,3.68,8.22,8.22v46.13c0,4.54-3.68,8.22-8.22,8.22h-5.6
			c-0.79,0-1.42,0.64-1.42,1.42v7.93c0,0.82-0.92,1.31-1.6,0.84l-13.98-9.63c-0.54-0.37-1.18-0.57-1.84-0.57h-38.6
			c-4.54,0-8.22-3.68-8.22-8.22v-46.13C3.56,223.34,7.24,219.66,11.78,219.66z"/>
	</g>
	<g>
		<path d="M66.79,293.13c-0.3,0-0.61-0.09-0.87-0.27l-13.98-9.63c-0.46-0.31-0.99-0.48-1.55-0.48h-38.6c-4.82,0-8.74-3.92-8.74-8.74
			v-46.13c0-4.82,3.92-8.74,8.74-8.74h63.06c4.82,0,8.74,3.92,8.74,8.74v46.13c0,4.82-3.92,8.74-8.74,8.74h-5.6
			c-0.5,0-0.91,0.41-0.91,0.91v7.93c0,0.57-0.31,1.09-0.82,1.36C67.28,293.07,67.03,293.13,66.79,293.13z M11.78,220.18
			c-4.25,0-7.71,3.46-7.71,7.71v46.13c0,4.25,3.46,7.71,7.71,7.71h38.6c0.77,0,1.5,0.23,2.13,0.66l13.98,9.63
			c0.23,0.16,0.44,0.07,0.53,0.03c0.08-0.04,0.27-0.17,0.27-0.45v-7.93c0-1.07,0.87-1.94,1.94-1.94h5.6c4.25,0,7.71-3.46,7.71-7.71
			v-46.13c0-4.25-3.46-7.71-7.71-7.71H11.78z"/>
	</g>
</g>
<g>
	<g>
		<polygon class="st1" points="56.25,235.99 39.14,253.1 31.81,245.77 24.48,253.1 39.14,267.76 63.58,243.32 		"/>
	</g>
</g>
<g>
	<g>
		<path d="M344.27,144.28c-1.79,0-3.33-0.64-4.59-1.89c-1.26-1.26-1.89-2.79-1.87-4.57c-0.02-1.74,0.62-3.26,1.88-4.5
			c1.26-1.24,2.8-1.87,4.58-1.87c1.7,0,3.22,0.63,4.5,1.88c1.29,1.25,1.95,2.76,1.96,4.49c-0.02,1.79-0.67,3.32-1.96,4.58
			C347.48,143.65,345.97,144.28,344.27,144.28z M344.27,132.47c-1.52,0-2.78,0.51-3.86,1.57c-1.07,1.05-1.59,2.29-1.58,3.77
			c-0.01,1.52,0.5,2.78,1.57,3.85c1.07,1.07,2.33,1.59,3.86,1.59c1.44,0,2.68-0.52,3.78-1.6c1.1-1.07,1.64-2.33,1.65-3.84
			c-0.01-1.46-0.55-2.69-1.65-3.76C346.95,132.99,345.71,132.47,344.27,132.47z M349.62,130.01h-11.05v-1.53
			c0-1.73,0.1-3.24,0.3-4.47c0.21-1.26,0.55-2.35,1.01-3.24c0.46-0.89,0.99-1.64,1.57-2.21c0.57-0.56,1.31-1.14,2.19-1.72
			c0.8-0.53,1.43-0.97,1.89-1.3c0.45-0.32,0.91-0.72,1.39-1.18c0.44-0.43,0.77-0.86,0.96-1.3c0.19-0.43,0.29-0.9,0.29-1.4
			c0-0.9-0.31-1.62-0.93-2.19c-0.64-0.58-1.42-0.87-2.37-0.87c-1.05,0-1.92,0.34-2.65,1.04c-0.73,0.69-1.08,1.55-1.08,2.61v0.51
			h-11.9l0-0.52c0.01-1.87,0.3-3.6,0.85-5.13c0.55-1.54,1.32-2.86,2.29-3.92c0.96-1.06,2.12-1.95,3.45-2.67
			c1.32-0.71,2.76-1.23,4.28-1.56c1.51-0.32,3.14-0.49,4.85-0.49c3.12,0,5.91,0.45,8.3,1.34c2.42,0.9,4.38,2.32,5.83,4.22
			c1.45,1.91,2.19,4.24,2.19,6.94c0,1.72-0.32,3.31-0.96,4.72c-0.63,1.41-1.47,2.61-2.49,3.58c-1,0.95-2.27,1.88-3.77,2.76
			c-1.58,0.92-2.72,1.87-3.41,2.81c-0.67,0.91-1,2.13-1,3.63V130.01z M339.6,128.98h9v-0.51c0-1.72,0.41-3.14,1.2-4.23
			c0.77-1.06,2.03-2.1,3.72-3.09c1.43-0.84,2.64-1.72,3.58-2.62c0.92-0.88,1.69-1.97,2.26-3.26c0.58-1.28,0.87-2.73,0.87-4.3
			c0-2.46-0.66-4.59-1.98-6.32c-1.32-1.74-3.13-3.04-5.37-3.88c-2.28-0.85-4.95-1.27-7.95-1.27c-1.64,0-3.2,0.16-4.64,0.47
			c-1.42,0.31-2.77,0.8-4.01,1.46c-1.22,0.66-2.29,1.48-3.18,2.45c-0.88,0.96-1.58,2.17-2.08,3.58c-0.46,1.28-0.72,2.71-0.78,4.27
			h9.86c0.11-1.12,0.57-2.07,1.38-2.84c0.92-0.88,2.05-1.32,3.36-1.32c1.2,0,2.23,0.38,3.06,1.13c0.85,0.76,1.27,1.76,1.27,2.95
			c0,0.64-0.13,1.24-0.37,1.81c-0.25,0.56-0.65,1.11-1.19,1.63c-0.51,0.49-1.01,0.91-1.5,1.26c-0.47,0.34-1.11,0.79-1.93,1.33
			c-0.83,0.55-1.52,1.08-2.04,1.59c-0.5,0.5-0.97,1.15-1.38,1.95c-0.41,0.8-0.72,1.78-0.91,2.94c-0.19,1.18-0.29,2.63-0.29,4.3
			V128.98z"/>
	</g>
</g>
<g>
	<path d="M522.23,188.62h-44.09v-6.03h44.09V188.62z M479.16,187.59h42.04v-3.98h-42.04V187.59z"/>
</g>
<g>
	<path d="M529.63,201.23h-51.5v-6.03h51.5V201.23z M479.16,200.2h49.44v-3.98h-49.44V200.2z"/>
</g>
<g>
	<path d="M526.47,213.84h-48.33v-6.03h48.33V213.84z M479.16,212.82h46.28v-3.98h-46.28V212.82z"/>
</g>
</svg>
