<?xml version="1.0" encoding="utf-8"?>
<!-- Generator: Adobe Illustrator 23.1.0, SVG Export Plug-In . SVG Version: 6.00 Build 0)  -->
<svg version="1.1" id="Layer_1" xmlns="http://www.w3.org/2000/svg" xmlns:xlink="http://www.w3.org/1999/xlink" x="0px" y="0px"
	 viewBox="0 0 210 55" style="enable-background:new 0 0 210 55;" xml:space="preserve">
<style type="text/css">
	.st0{fill:#777777;}
	.st1{fill:#FF7600;}
	.st2{fill:#ADADAD;}
	.st3{fill:#AD5000;}
</style>
<g>
	<g>
		<g>
			<path d="M56.45,6.09l5.77,11.55L68,6.09h6.43L65.1,24.74v8.37h-5.74v-8.37L50.03,6.09H56.45z"/>
			<path d="M89.27,6.09l9.84,27.01h-6.12l-1.98-5.43h-9.6l-1.98,5.43h-6.12l9.84-27.01H89.27z M83.49,21.97h5.44l-2.72-7.47
				L83.49,21.97z"/>
			<path d="M134.19,6.09h12.21v5.75h-12.21v5.1h11.75v5.31h-11.75v5.1h12.21v5.75h-12.21h-5.74V6.09H134.19z"/>
			<path d="M172.75,16.88c0,4.83-2.76,8.92-6.95,10.3l7.02,5.93h-7.91l-6.32-5.15l-1.15-0.02v0.88v4.29h-5.74V6.09h10.93
				C168.56,6.09,172.75,10.92,172.75,16.88z M157.44,21.68h4.64c2.63-0.13,4.72-2.15,4.72-4.8c0-2.65-2.08-4.8-4.72-4.8h-4.64V21.68
				z"/>
		</g>
	</g>
	<g>
		<path class="st0" d="M54.71,48.75h4.99v0.77c0,1.42-0.46,2.57-1.37,3.46c-0.91,0.88-2.09,1.32-3.53,1.32
			c-1.54,0-2.81-0.5-3.83-1.49c-1-1-1.51-2.23-1.51-3.67c0-1.45,0.5-2.68,1.49-3.68c1-1,2.25-1.51,3.73-1.51
			c0.92,0,1.76,0.21,2.53,0.63c0.77,0.42,1.37,0.98,1.81,1.69l-1.68,0.97c-0.24-0.41-0.6-0.74-1.08-1s-1.01-0.38-1.59-0.38
			c-0.96,0-1.74,0.31-2.35,0.94c-0.61,0.61-0.91,1.39-0.91,2.35c0,0.94,0.31,1.72,0.92,2.33c0.62,0.61,1.44,0.91,2.48,0.91
			c0.75,0,1.37-0.17,1.88-0.5c0.5-0.33,0.84-0.8,1.02-1.39h-3.02V48.75z"/>
		<path class="st0" d="M69.6,52.8c-1.01,1-2.23,1.49-3.67,1.49s-2.66-0.5-3.67-1.49c-1-1.01-1.49-2.24-1.49-3.68
			c0-1.45,0.5-2.67,1.49-3.67c1-1,2.23-1.51,3.67-1.51s2.66,0.5,3.67,1.51c1,1,1.51,2.22,1.51,3.67
			C71.11,50.57,70.61,51.8,69.6,52.8z M63.64,51.47c0.61,0.61,1.37,0.91,2.29,0.91s1.68-0.3,2.29-0.91c0.62-0.62,0.92-1.4,0.92-2.35
			s-0.31-1.73-0.92-2.35s-1.38-0.92-2.29-0.92s-1.67,0.31-2.29,0.92s-0.92,1.4-0.92,2.35S63.02,50.85,63.64,51.47z"/>
		<path class="st0" d="M71.61,44.14h7.33v1.88h-2.69v8.08h-1.96v-8.08h-2.67V44.14z"/>
		<path class="st0" d="M89.53,44.14h2.22l-3.41,6.07v3.88h-1.95v-3.88l-3.4-6.07h2.22l2.16,4.15L89.53,44.14z"/>
		<path class="st0" d="M100.5,52.8c-1.01,1-2.23,1.49-3.67,1.49s-2.66-0.5-3.67-1.49c-1-1.01-1.49-2.24-1.49-3.68
			c0-1.45,0.5-2.67,1.49-3.67c1-1,2.23-1.51,3.67-1.51s2.66,0.5,3.67,1.51c1,1,1.51,2.22,1.51,3.67
			C102.01,50.57,101.51,51.8,100.5,52.8z M94.54,51.47c0.61,0.61,1.37,0.91,2.29,0.91s1.68-0.3,2.29-0.91
			c0.62-0.62,0.92-1.4,0.92-2.35s-0.31-1.73-0.92-2.35s-1.38-0.92-2.29-0.92s-1.67,0.31-2.29,0.92s-0.92,1.4-0.92,2.35
			S93.93,50.85,94.54,51.47z"/>
		<path class="st0" d="M107.3,54.3c-1.11,0-2.02-0.31-2.73-0.94c-0.71-0.63-1.07-1.46-1.07-2.52v-6.7h1.95v6.54
			c0,0.53,0.15,0.95,0.46,1.24c0.31,0.3,0.77,0.45,1.39,0.45s1.08-0.15,1.39-0.45c0.31-0.3,0.46-0.71,0.46-1.24v-6.54h1.96v6.7
			c0,1.05-0.36,1.89-1.07,2.52C109.34,53.98,108.42,54.3,107.3,54.3z"/>
		<path class="st0" d="M120.75,54.1h-2.12l-2-3.46h-1.49v3.46h-1.96v-9.96h3.98c0.92,0,1.7,0.32,2.35,0.97
			c0.65,0.64,0.97,1.42,0.97,2.33c0,0.62-0.18,1.19-0.53,1.71s-0.82,0.92-1.39,1.19L120.75,54.1z M117.15,45.98h-2.02v2.94h2.02
			c0.37,0,0.69-0.14,0.95-0.43s0.4-0.64,0.4-1.05c0-0.41-0.13-0.75-0.4-1.04S117.52,45.98,117.15,45.98z"/>
		<path class="st0" d="M131.76,48.94c0.87,0.5,1.31,1.26,1.31,2.28c0,0.84-0.3,1.54-0.9,2.08c-0.6,0.54-1.33,0.81-2.2,0.81h-4.22
			v-9.96h3.92c0.84,0,1.56,0.27,2.15,0.8s0.88,1.2,0.88,2C132.7,47.77,132.39,48.43,131.76,48.94z M129.67,45.98h-1.96v2.19h1.96
			c0.3,0,0.56-0.1,0.76-0.31c0.2-0.21,0.31-0.47,0.31-0.78c0-0.31-0.1-0.57-0.3-0.78C130.24,46.08,129.98,45.98,129.67,45.98z
			 M127.71,52.26h2.26c0.33,0,0.61-0.11,0.83-0.33c0.22-0.22,0.33-0.5,0.33-0.85c0-0.33-0.11-0.61-0.33-0.83
			c-0.22-0.22-0.49-0.33-0.83-0.33h-2.26V52.26z"/>
		<path class="st0" d="M142.91,54.1h-2.13l-0.6-1.79h-3.97l-0.6,1.79h-2.12l3.48-9.96h2.43L142.91,54.1z M138.21,46.4l-1.37,4.07
			h2.73L138.21,46.4z"/>
		<path class="st0" d="M148.33,54.3c-1.49,0-2.73-0.5-3.71-1.49c-0.98-0.99-1.46-2.21-1.46-3.68c0-1.48,0.49-2.71,1.46-3.68
			c0.99-1,2.22-1.49,3.71-1.49c0.9,0,1.73,0.21,2.5,0.63c0.76,0.42,1.36,0.99,1.78,1.71l-1.69,0.98c-0.25-0.45-0.6-0.79-1.05-1.04
			s-0.97-0.38-1.54-0.38c-0.97,0-1.75,0.3-2.35,0.91c-0.59,0.62-0.88,1.4-0.88,2.36c0,0.95,0.29,1.73,0.88,2.35
			c0.6,0.61,1.38,0.91,2.35,0.91c0.57,0,1.08-0.13,1.54-0.38s0.81-0.59,1.04-1.03l1.69,0.98c-0.43,0.72-1.02,1.29-1.78,1.71
			C150.07,54.09,149.23,54.3,148.33,54.3z"/>
		<path class="st0" d="M158,48.98l3.83,5.12h-2.26l-3.56-4.67v4.67h-1.96v-9.96h1.96v4.4l3.41-4.4h2.26L158,48.98z"/>
		<path class="st0" d="M170.79,52.8c-1.01,1-2.23,1.49-3.67,1.49s-2.66-0.5-3.67-1.49c-1-1.01-1.49-2.24-1.49-3.68
			c0-1.45,0.5-2.67,1.49-3.67c1-1,2.23-1.51,3.67-1.51s2.66,0.5,3.67,1.51c1,1,1.51,2.22,1.51,3.67
			C172.3,50.57,171.8,51.8,170.79,52.8z M164.83,51.47c0.61,0.61,1.37,0.91,2.29,0.91s1.68-0.3,2.29-0.91
			c0.62-0.62,0.92-1.4,0.92-2.35s-0.31-1.73-0.92-2.35s-1.38-0.92-2.29-0.92s-1.67,0.31-2.29,0.92s-0.92,1.4-0.92,2.35
			S164.22,50.85,164.83,51.47z"/>
		<path class="st0" d="M179.81,44.14v1.88h-3.98v2.36h3.87v1.88h-3.87v3.84h-1.96v-9.96H179.81z"/>
		<path class="st0" d="M187.41,44.14v1.88h-3.98v2.36h3.87v1.88h-3.87v3.84h-1.96v-9.96H187.41z"/>
		<path class="st0" d="M189.07,54.1v-9.96h1.96v9.96H189.07z"/>
		<path class="st0" d="M197.83,54.3c-1.49,0-2.73-0.5-3.71-1.49c-0.98-0.99-1.46-2.21-1.46-3.68c0-1.48,0.49-2.71,1.46-3.68
			c0.99-1,2.22-1.49,3.71-1.49c0.9,0,1.73,0.21,2.5,0.63c0.76,0.42,1.36,0.99,1.78,1.71l-1.69,0.98c-0.25-0.45-0.6-0.79-1.05-1.04
			s-0.97-0.38-1.54-0.38c-0.97,0-1.75,0.3-2.35,0.91c-0.59,0.62-0.88,1.4-0.88,2.36c0,0.95,0.29,1.73,0.88,2.35
			c0.6,0.61,1.38,0.91,2.35,0.91c0.57,0,1.08-0.13,1.54-0.38s0.81-0.59,1.04-1.03l1.69,0.98c-0.43,0.72-1.02,1.29-1.78,1.71
			C199.57,54.09,198.74,54.3,197.83,54.3z"/>
		<path class="st0" d="M205.51,49.99v2.23h4.2v1.88h-6.16v-9.96h6.09v1.88h-4.13v2.12h3.77v1.85H205.51z"/>
	</g>
	<path class="st1" d="M8.77,33.72l21.53-32.2c0.63-0.95-0.33-2.15-1.39-1.74L1.29,10.42c-0.56,0.22-0.87,0.83-0.7,1.41l6.1,21.56
		C6.95,34.35,8.22,34.55,8.77,33.72z"/>
	<path class="st2" d="M20.45,39.51l21.53-32.2c0.63-0.95-0.33-2.15-1.39-1.74L12.96,16.21c-0.56,0.22-0.87,0.83-0.7,1.41l6.1,21.56
		C18.62,40.14,19.89,40.34,20.45,39.51z"/>
	<path class="st3" d="M12.96,16.21c-0.56,0.22-0.87,0.83-0.7,1.41l2.17,7.66l8.67-12.97L12.96,16.21z"/>
	<path d="M114.31,6.09h-10.93v15.59h-2.18l2.18,5.98v5.44h5.74v-4.29v-1.14h2.32h2.88c5.92,0,10.11-4.83,10.11-10.79
		C124.42,10.92,120.23,6.09,114.31,6.09z M113.76,21.68h-2.32h-2.32v-9.6h4.64c2.63,0,4.72,2.15,4.72,4.8
		C118.47,19.54,116.38,21.56,113.76,21.68z"/>
</g>
</svg>
