<?xml version="1.0" encoding="utf-8"?>
<!-- Generator: Adobe Illustrator 23.1.0, SVG Export Plug-In . SVG Version: 6.00 Build 0)  -->
<svg version="1.1" id="Layer_1" xmlns="http://www.w3.org/2000/svg" xmlns:xlink="http://www.w3.org/1999/xlink" x="0px" y="0px"
	 viewBox="0 0 539 400" style="enable-background:new 0 0 539 400;" xml:space="preserve">
<style type="text/css">
	.st0{fill:#CECECE;}
	.st1{fill:#FF7600;}
	.st2{fill:#E66A00;}
	.st3{fill:#FFFFFF;}
	.st4{fill:#EFEFEF;}
	.st5{fill:#B5B5B5;}
	.st6{fill:none;stroke:#B5B5B5;stroke-miterlimit:10;}
	.st7{fill:#ADADAD;}
	.st8{fill:#AD5000;}
</style>
<g>
	<path class="st0" d="M359.66,5.88c-59.87,11.2-101.91,46.53-103.5,104.31c-2.16,78.45,80.35,123.79,154.91,96.7
		S516.12,85.17,482.53,37.83C454.15-2.19,412.8-4.06,359.66,5.88z"/>
</g>
<g>
	<path class="st1" d="M504.44,323.17c-149.98-60.33-159-240.52-349.31-160.37C74.16,196.9,10.03,295.47,29.61,399.21h489.14
		C532.45,379.99,545.52,339.69,504.44,323.17z"/>
</g>
<g>
	<path class="st2" d="M368.86,214.74c-32.05-34.28-62.95-63.84-107.95-70.66C275.26,188.31,320.02,215.59,368.86,214.74z"/>
</g>
<g>
	<path class="st0" d="M239.34,197.16l-0.43-0.07c0-0.13,0-0.26,0.01-0.38C239.06,196.85,239.2,197,239.34,197.16z"/>
</g>
<g>
	<path class="st3" d="M187.07,175.45c9.28,7.29,19.67,10.67,26.1,10.67c9.28,0,17.73-3.27,25.18-9.73
		c-0.76,6.07-0.92,20.73-0.93,21.48l0.46,0c-2.53,7.94-21.98,25.97-25.43,25.97c-3.24,0-19.69-14.95-24.07-23.45
		C188.7,193.35,187.53,180.21,187.07,175.45z"/>
</g>
<g>
	<path class="st0" d="M162.22,113.43c-0.02-0.71,0.24-1.38,0.73-1.9c0.49-0.52,1.15-0.81,1.85-0.83c0.03,0,0.05,0,0.08,0
		c1.43,0,2.61,1.14,2.65,2.58l0.88,31.48c0.02,0.7-0.24,1.38-0.73,1.89c-0.49,0.52-1.15,0.81-1.85,0.83
		c-0.78,0.02-1.38-0.24-1.89-0.73c-0.52-0.49-0.81-1.15-0.83-1.85L162.22,113.43z"/>
</g>
<g>
	<path class="st3" d="M169.22,120.82c0.32-0.16,0.68-0.35,1.12-0.57c25.34-12.77,42.72-28.69,51.68-47.34h0.16
		c5.67,16.55,13.85,33.53,34.62,45.94l-0.72,25.87c-0.03,1.1,0.37,2.15,1.13,2.95c0.55,0.58,1.23,0.97,1.99,1.16
		c-2.26,9.06-12.27,15.96-30.54,21.06c-0.41-1.46-1.75-2.54-3.34-2.54c-1.92,0-3.49,1.56-3.49,3.49c0,1.92,1.56,3.48,3.49,3.48
		c1.72,0,3.15-1.26,3.43-2.91c7.71-2.13,14-4.6,18.93-7.42c-1.13,1.48-2.91,3.66-5.72,6.78c-8.24,9.2-17.93,13.86-28.77,13.86
		c-11.82,0-37.46-11.82-43.34-39.14c0.04-0.26,0.06-0.52,0.05-0.78L169.22,120.82z"/>
</g>
<g>
	<path class="st0" d="M262.86,144.91c-0.02,0.71-0.31,1.36-0.83,1.85c-0.52,0.49-1.13,0.74-1.89,0.73
		c-0.71-0.02-1.36-0.31-1.85-0.83c-0.49-0.52-0.75-1.19-0.73-1.89l0.88-31.48c0.04-1.44,1.22-2.58,2.65-2.58c0.03,0,0.05,0,0.08,0
		c0.71,0.02,1.36,0.32,1.85,0.83c0.49,0.52,0.75,1.19,0.73,1.9L262.86,144.91z"/>
</g>
<g>
	<path class="st0" d="M227.31,170.84c0,1.1-0.9,2-2,2c-1.11,0-2-0.9-2-2c0-1.11,0.9-2,2-2
		C226.41,168.84,227.31,169.74,227.31,170.84z"/>
</g>
<g>
	<path d="M238.99,192.72c0.21-9.2,0.68-17.05,1.1-17.91c1-0.96,1.99-1.96,2.95-3.04c5.81-6.48,7.39-9.06,7.75-9.73
		c5.47-3.78,8.74-8.13,9.9-13.12c0.87-0.1,1.69-0.47,2.35-1.09c0.68-0.65,1.1-1.48,1.23-2.39c4.98-0.14,9.43-2.53,12.33-6.22
		C276.94,166.84,262.66,187.17,238.99,192.72z"/>
	<path d="M238.48,193.36l0.01-0.65c0.18-7.96,0.62-17.02,1.15-18.12l0.1-0.14c1.05-1,2.01-1.99,2.93-3.01
		c5.79-6.45,7.34-9,7.68-9.63l0.06-0.11l0.1-0.07c5.38-3.72,8.56-7.91,9.7-12.82l0.08-0.34l0.35-0.04c0.79-0.09,1.5-0.42,2.06-0.95
		c0.59-0.55,0.96-1.28,1.08-2.1l0.06-0.41l0.42-0.01c4.68-0.13,9.04-2.32,11.96-6.03l0.88-1.11l0.02,1.42
		c0.33,27.73-14.24,48.42-38.01,53.99L238.48,193.36z M240.52,175.1c-0.32,0.98-0.78,7.56-1.01,16.99
		c22.54-5.58,36.46-25.19,36.61-51.51c-2.97,3.21-7.05,5.13-11.42,5.35c-0.21,0.88-0.66,1.66-1.31,2.27c-0.63,0.6-1.42,1-2.28,1.17
		c-1.25,4.93-4.59,9.3-9.93,13.02c-0.46,0.81-2.17,3.49-7.75,9.72C242.51,173.12,241.56,174.1,240.52,175.1z"/>
</g>
<g>
	<path class="st0" d="M278.62,129.6c-0.22,7.84-6.51,14.09-14.26,14.36l0.82-29.49c3.59,0.33,6.9,1.91,9.39,4.55
		C277.3,121.89,278.73,125.64,278.62,129.6z"/>
</g>
<g>
	<path d="M213.6,55.82c29.33,0,49.01,21.41,52.74,57.29c-0.38-0.06-0.77-0.1-1.16-0.13c-0.08-0.92-0.45-1.78-1.1-2.46
		c-0.76-0.8-1.79-1.26-2.89-1.29c-0.04,0-0.08,0-0.12,0c-2.23,0-4.07,1.78-4.13,4.02l-0.11,3.89
		c-20.02-12.25-27.92-28.95-33.43-45.19l-0.17-0.5h-2.15l-0.2,0.42c-8.75,18.52-25.98,34.36-51.21,47.07
		c-0.18,0.09-0.33,0.17-0.49,0.25l-0.17-5.94c-0.06-2.24-1.91-4.02-4.13-4.02c-0.04,0-0.08,0-0.12,0c-1.1,0.03-2.12,0.49-2.89,1.29
		c-0.65,0.68-1.01,1.55-1.1,2.46c-1.76,0.14-3.46,0.56-5.05,1.24C165.32,73.86,183.21,55.82,213.6,55.82z"/>
	<path d="M168.7,119.99l-0.19-6.73c-0.05-1.95-1.68-3.53-3.63-3.53l-0.1,0c-0.97,0.03-1.87,0.43-2.54,1.14
		c-0.55,0.59-0.89,1.33-0.96,2.16l-0.04,0.42l-0.42,0.03c-1.71,0.14-3.36,0.54-4.89,1.2l-0.91,0.39l0.23-0.96
		c9.66-40.65,27.66-58.78,58.36-58.78c29.58,0,49.48,21.58,53.24,57.74l0.07,0.64l-0.64-0.1c-0.37-0.06-0.75-0.1-1.13-0.13
		l-0.42-0.03l-0.04-0.42c-0.08-0.83-0.41-1.58-0.96-2.16c-0.67-0.71-1.57-1.11-2.54-1.14l-0.1,0c-1.95,0-3.58,1.59-3.63,3.53
		l-0.13,4.75l-0.74-0.45c-20.21-12.37-28.11-29.16-33.65-45.46l-0.06-0.16h-1.48l-0.07,0.14c-8.8,18.63-26.11,34.54-51.44,47.31
		L168.7,119.99z M164.88,108.72c2.48,0,4.56,2.02,4.63,4.51l0.14,5.16c25.01-12.64,42.09-28.37,50.77-46.74l0.34-0.71h2.83
		l0.29,0.84c5.4,15.93,13.09,32.32,32.48,44.47l0.08-3.02c0.07-2.48,2.15-4.51,4.63-4.51l0.14,0c1.22,0.03,2.37,0.55,3.23,1.45
		c0.62,0.65,1.02,1.46,1.18,2.34c0.05,0.01,0.1,0.01,0.16,0.02c-3.86-35.21-23.33-56.21-52.18-56.21
		c-29.92,0-47.58,17.61-57.16,57.08c1.24-0.44,2.55-0.74,3.89-0.88c0.16-0.89,0.56-1.69,1.18-2.35c0.85-0.9,2-1.42,3.24-1.45
		L164.88,108.72z"/>
</g>
<g>
	<path class="st0" d="M151.38,119.02c2.5-2.64,5.81-4.22,9.39-4.55l0.82,29.49c-3.61-0.13-6.99-1.52-9.63-4.02
		c-2.87-2.72-4.51-6.39-4.62-10.34C147.23,125.64,148.66,121.89,151.38,119.02z"/>
</g>
<g>
	<path d="M150.04,140.07c0.29,0.32,0.58,0.64,0.9,0.94c2.94,2.78,6.73,4.33,10.74,4.43c0.14,0.91,0.55,1.75,1.23,2.39
		c0.78,0.73,1.78,1.13,2.84,1.13c0.04,0,0.08,0,0.12,0c1.1-0.03,2.13-0.49,2.89-1.3c0.02-0.02,0.03-0.05,0.05-0.07
		c2.91,11.57,9.32,20.32,16.64,26.53c0.18,1.8,1.15,11.74,1.42,19.8c-6-0.34-15.08-4.04-22.48-11.8
		C157.73,175.15,149.97,162.21,150.04,140.07z"/>
	<path d="M187.39,194.46l-0.55-0.03c-5.57-0.31-14.88-3.63-22.81-11.95c-6.65-6.97-14.57-19.99-14.49-42.41l0-1.29l0.87,0.96
		c0.28,0.31,0.57,0.62,0.87,0.91c2.82,2.67,6.52,4.19,10.41,4.29l0.42,0.01l0.06,0.42c0.12,0.82,0.5,1.55,1.08,2.1
		c0.68,0.64,1.57,1,2.49,1l0.11,0c0.97-0.03,1.87-0.43,2.53-1.14l0.63-0.67l0.28,0.82c2.58,10.22,8.27,19.3,16.48,26.27l0.15,0.13
		l0.02,0.2c0.19,1.9,1.15,11.77,1.43,19.83L187.39,194.46z M150.55,141.33c0.22,21.32,7.81,33.75,14.21,40.46
		c7.48,7.84,16.16,11.12,21.6,11.6c-0.29-7.67-1.16-16.76-1.38-19.01c-8.07-6.9-13.74-15.82-16.44-25.85
		c-0.78,0.6-1.69,0.92-2.65,0.94l-0.13,0c-1.18,0-2.31-0.45-3.18-1.27c-0.65-0.62-1.1-1.4-1.31-2.27c-3.99-0.2-7.77-1.81-10.67-4.55
		C150.58,141.36,150.56,141.34,150.55,141.33z"/>
</g>
<g>
	<path class="st4" d="M186.95,197.14c0,0.41,0,0.8,0,1.19l-0.92,0.25c2.13,7.93,21.73,26.75,26.43,26.75
		c4.7,0,25.64-20.56,27.08-27.94c2.87,3.43,6.58,11.78,6.27,15c-0.4,4.21-9.6,29.22-12.84,30.59c-1.99,0.84-11.9-7.97-19.98-16.58
		l-0.54-0.58l-0.54,0.58c-8.07,8.62-17.97,17.42-19.97,16.58c-3.25-1.37-12.44-26.38-12.84-30.59c-0.05-0.52,0.03-1.16,0.19-1.88
		c0.02,0,0.05,0,0.08-0.01l-0.01-0.23C180.39,206.01,184.43,199.2,186.95,197.14z"/>
</g>
<g>
	<path class="st5" d="M322.9,274.24c-0.23-0.5-0.6-1.35-1.09-2.47c-12.17-27.74-22.06-44.04-29.41-48.44
		c-11.94-7.16-35.7-12-45.83-12.75c0.13,0.76,0.17,1.43,0.12,1.98c-0.32,3.39-9.42,30-13.74,31.82
		c-3.68,1.55-16.44-11.44-21.09-16.36c-4.39,4.65-16.01,16.49-20.39,16.49c-0.26,0-0.49-0.04-0.7-0.13
		c-4.32-1.82-13.42-28.42-13.74-31.82c-0.05-0.53,0-1.18,0.14-1.9c-10.6,0.96-33.31,5.73-44.89,12.67
		c-4.94,2.96-13.81,13.24-28.04,45.33h128.71c7.58,0,13.74,6.16,13.74,13.74v81.51c9.53-1.06,19.86-3.16,29.98-5.3
		c0-0.02,0.01-0.03,0.01-0.05l-1.42-0.18c5.14-40.08,6.63-50.56,6.65-50.66l1.47,0.21c-0.01,0.04-0.29,2.07-1.04,7.66
		c6.58-7.03,23.78-20.34,37.96-29.2C324.29,283.9,325.26,279.36,322.9,274.24z"/>
	<path class="st5" d="M246.19,364.47V282.4c0-7.3-5.94-13.24-13.24-13.24H103.47l0.31-0.7c14.3-32.24,23.25-42.57,28.24-45.56
		c12.02-7.2,35.31-11.85,45.1-12.74l0.66-0.06l-0.13,0.65c-0.13,0.7-0.18,1.29-0.14,1.76c0.31,3.3,9.38,29.7,13.44,31.4
		c0.14,0.06,0.31,0.09,0.5,0.09c2.89,0,10.37-6.11,20.03-16.33l0.36-0.38l0.36,0.38c10.38,10.98,18.23,17.2,20.53,16.24
		c4.05-1.71,13.12-28.1,13.43-31.4c0.05-0.48,0.01-1.1-0.12-1.85l-0.1-0.63l0.63,0.05c10.09,0.74,34.11,5.66,46.05,12.82
		c7.44,4.46,17.41,20.83,29.61,48.67c0.49,1.12,0.86,1.96,1.09,2.46c2.48,5.37,1.43,10.15-2.8,12.79
		c-13.85,8.66-31.18,21.99-37.86,29.12l-1.07,1.14l0.21-1.55c0.55-4.1,0.85-6.28,0.97-7.17l-0.48-0.07
		c-0.35,2.48-2.05,14.85-6.51,49.66l1.41,0.18l-0.09,0.85l-0.36,0.12c-9.94,2.1-20.44,4.23-30.03,5.31L246.19,364.47z
		 M105.01,268.16h127.94c7.85,0,14.24,6.39,14.24,14.24v80.95c8.81-1.02,18.38-2.92,27.55-4.84l0.02-0.19
		c5.14-40.06,6.64-50.59,6.65-50.67l0.07-0.49l2.45,0.35l-0.06,0.49c-0.06,0.4-0.3,2.16-0.84,6.16
		c7.36-7.38,23.77-19.91,36.99-28.18c3.76-2.35,4.67-6.66,2.42-11.53v0c-0.23-0.5-0.6-1.35-1.09-2.46
		c-12.13-27.66-21.96-43.88-29.22-48.23c-11.57-6.93-34.65-11.75-44.99-12.63c0.07,0.57,0.08,1.06,0.04,1.47
		c-0.3,3.17-9.37,30.26-14.04,32.23c-3.72,1.56-14.77-9.23-21.29-16.09c-5.93,6.25-16.1,16.26-20.39,16.26
		c-0.33,0-0.63-0.06-0.89-0.17c-4.68-1.97-13.74-29.06-14.04-32.23c-0.04-0.4-0.02-0.87,0.04-1.39
		c-10.06,1.02-32.41,5.57-44.04,12.54C127.71,226.65,119.02,236.72,105.01,268.16z"/>
</g>
<g>
	<path class="st3" d="M309.79,245.57c-6.56-12.04-12.18-19.51-16.8-22.28c-11.94-7.16-35.7-12-45.83-12.75
		c0.13,0.76,0.17,1.43,0.12,1.98c-0.05,0.52-0.31,1.58-0.72,3.01c18.1,1.07,36.19,3.4,49.89,14.53
		C301.71,234.62,305.98,239.92,309.79,245.57z"/>
</g>
<g>
	<path class="st3" d="M142.45,225.06c11.63-5.09,23.78-7.53,36.08-8.87c-0.52-1.76-0.85-3.08-0.91-3.68c-0.05-0.53,0-1.18,0.14-1.9
		c-10.6,0.96-33.31,5.73-44.89,12.67c-4.94,2.96-13.81,13.24-28.04,45.33h2.45C115.42,250.96,125.22,232.82,142.45,225.06z"/>
</g>
<g>
	<path class="st3" d="M67.99,398.47c-6.76,0-12.26-5.5-12.26-12.26V281.62c0-6.76,5.5-12.26,12.26-12.26h165.55
		c6.76,0,12.26,5.5,12.26,12.26v104.59c0,6.76-5.5,12.26-12.26,12.26H67.99z"/>
</g>
<g>
	<path class="st0" d="M67.99,399.21c-4.33-0.1-2.85-0.03-6.31-1.63s-5.96-7.34-5.96-7.34c0-0.52,190.07-0.52,190.07,0l-6.06,8.03
		c0,0.52,0.56,0.94-6.19,0.94H67.99z"/>
</g>
<g>
	<path class="st3" d="M344.29,387c-4.46,6.46-12.49,10.6-18.11,11.36c-5.5,0.73-25.09,0.52-47.77,0.28
		c-11.67-0.12-24.77-0.26-37.21-0.28c3.67-2.47,6.08-6.66,6.08-11.4v-21.59c10.6-1.17,22.14-3.61,33.31-5.98
		c14.5-3.07,29.5-6.25,41.95-6.48l-0.03-1.48c-7.81,0.14-16.58,1.43-25.59,3.12l0.57-0.24c-0.12-0.28-12.56-26.05-14.26-34.83
		l-0.48-1.48c4.66-5.74,22.16-19.87,38.68-30.23c2.67,8.09,22.07,67.17,25.8,83.18C348.6,376.8,347.61,382.2,344.29,387z"/>
	<path class="st3" d="M307.77,399.37c-8.25,0-18.43-0.11-29.33-0.23l-0.32,0c-11.53-0.12-24.59-0.26-36.92-0.28l-1.63,0l1.35-0.91
		c3.67-2.47,5.86-6.58,5.86-10.99v-22.04l0.45-0.05c10.63-1.17,22.13-3.61,33.26-5.97c14.34-3.04,29.15-6.18,41.54-6.48l-0.01-0.48
		c-6.66,0.16-14.62,1.15-25,3.1l-4.51,0.85l4.31-1.84c-3.77-7.93-12.65-27.08-14.08-34.48l-0.55-1.68l0.17-0.21
		c4.69-5.78,22.28-19.98,38.8-30.34l0.54-0.34l0.2,0.61c2.24,6.81,22.03,66.98,25.81,83.22c1.4,6,0.38,11.54-3.01,16.46l-0.41-0.28
		l0.41,0.28c-4.54,6.58-12.72,10.8-18.46,11.57C323.38,399.24,316.7,399.37,307.77,399.37z M242.69,397.86
		c11.9,0.03,24.38,0.16,35.44,0.28l0.28,0c22.69,0.24,42.24,0.45,47.7-0.28c5.51-0.74,13.39-4.8,17.77-11.15l0,0
		c3.23-4.68,4.19-9.95,2.86-15.66c-3.68-15.79-22.57-73.35-25.59-82.52c-16.08,10.15-33.01,23.79-37.84,29.57l0.4,1.22
		c1.43,7.36,10.29,26.46,14.03,34.33c0.04,0.08,0.07,0.16,0.1,0.22c10.21-1.88,18.06-2.82,24.66-2.94l0.5-0.01l0.05,2.48l-0.5,0.01
		c-12.4,0.22-27.37,3.4-41.84,6.46c-11,2.33-22.37,4.74-32.92,5.94v21.14C247.78,391.19,245.9,395.16,242.69,397.86z"/>
</g>
<g>
	<path class="st5" d="M252.72,399.14l19.61-38.78l-25.79,4.9c0,0,0,12.06,0,21.69c0,9.63-13.61,12.66-13.61,12.66L252.72,399.14z"/>
</g>
<g>
	<path d="M98.8,154.11H14.43c-7.4,0-13.43-6.02-13.43-13.43V65.25c0-7.4,6.02-13.43,13.43-13.43H98.8c7.41,0,13.43,6.02,13.43,13.43
		v36.99c0,0.94,0.28,1.84,0.81,2.61l15.14,21.98c0.44,0.65,0.49,1.48,0.13,2.17c-0.37,0.69-1.08,1.13-1.86,1.13h-12.47
		c-0.96,0-1.74,0.78-1.74,1.74v8.81C112.23,148.08,106.21,154.11,98.8,154.11z M14.43,52.82C7.58,52.82,2,58.39,2,65.25v75.43
		c0,6.85,5.58,12.43,12.43,12.43H98.8c6.85,0,12.43-5.58,12.43-12.43v-8.81c0-1.51,1.23-2.74,2.74-2.74h12.47
		c0.42,0,0.78-0.22,0.98-0.59s0.17-0.8-0.07-1.14l-15.14-21.98c-0.65-0.94-0.99-2.04-0.99-3.18V65.25c0-6.85-5.58-12.43-12.43-12.43
		H14.43z"/>
</g>
<g>
	<g>
		<path class="st3" d="M476.19,384.22c0.3-6.68,3.7-21.83,6.16-25.45c2.46-3.62,13.01-24.24,13.01-24.24l-94.56-78.99
			c-0.89-2.98-4.06-16.25-14.46-27.81c-10.41-11.56-22.74-3.53-22.22-0.79c0.52,2.74,5.52,15.65,5.85,19.05
			c0.34,3.4,2.23,9.98,2.32,13.74c0.09,3.77,4.27,12.42,7.12,20.7c2.85,8.28,6.33,28.1,6.99,36.49c0.66,8.38,7.67,20.28,10.71,26.32
			c3.05,6.04,3.59,13.81,3.25,18.61c-0.2,2.81-4.31,20.93-8.38,38.78h83.44C475.85,391.9,476.11,386.06,476.19,384.22z"/>
	</g>
	<g>
		<path d="M392.47,400.07l-0.97-0.23c3.91-16.53,8.16-35.2,8.36-38.01c0.37-5.09-0.28-12.58-3.19-18.35
			c-0.49-0.97-1.08-2.1-1.74-3.33c-3.37-6.39-8.47-16.04-9.03-23.17c-0.63-8.06-4.08-27.97-6.96-36.37c-1-2.92-2.16-5.85-3.28-8.69
			c-2.04-5.18-3.81-9.65-3.87-12.17c-0.05-2.13-0.68-5.15-1.3-8.08c-0.45-2.14-0.87-4.16-1.02-5.62c-0.19-1.94-2.04-7.36-3.53-11.71
			c-1.12-3.29-2.09-6.13-2.32-7.3c-0.25-1.29,1.37-3.08,3.93-4.35c4.98-2.47,12.63-2.53,19.15,4.72
			c6.73,7.48,11.79,16.84,15.02,27.83l0.1,0.32l-0.96,0.29l-0.1-0.33c-3.19-10.84-8.17-20.07-14.8-27.44
			c-6.15-6.83-13.31-6.8-17.97-4.49c-2.39,1.19-3.5,2.66-3.39,3.27c0.21,1.1,1.22,4.04,2.28,7.16c1.58,4.63,3.38,9.89,3.58,11.94
			c0.14,1.41,0.56,3.41,1,5.52c0.62,2.97,1.27,6.04,1.32,8.26c0.06,2.34,1.79,6.74,3.8,11.82c1.12,2.84,2.28,5.78,3.29,8.73
			c2.91,8.46,6.37,28.5,7.01,36.61c0.54,6.93,5.58,16.47,8.92,22.78c0.66,1.24,1.25,2.37,1.75,3.35c3,5.95,3.67,13.65,3.3,18.87
			C400.6,365.51,394.37,392.03,392.47,400.07z"/>
	</g>
	<g>
		<path d="M475.92,399.98l-1-0.05c0.3-5.9,0.71-14.22,0.77-15.73c0.3-6.82,3.77-22.06,6.25-25.71c2.41-3.56,12.88-23.98,12.98-24.19
			l0.89,0.46c-0.43,0.84-10.59,20.69-13.04,24.29c-2.41,3.55-5.78,18.49-6.08,25.19C476.62,385.75,476.22,394.08,475.92,399.98z"/>
	</g>
	<g>
		<path class="st3" d="M493.13,161.56c3.64-3.22,10.51-6.08,14.31-2.71s6.13,12.87-7.73,28.6"/>
	</g>
	<g>
		<path d="M500.09,187.78l-0.75-0.66c12.69-14.41,12.12-24.04,7.77-27.9c-3.6-3.2-10.27-0.27-13.64,2.71l-0.66-0.75
			c3.75-3.31,10.87-6.35,14.97-2.71C512.46,162.64,513.26,172.81,500.09,187.78z"/>
	</g>
	<g>
		<path d="M435.84,349.73l88.43-22.47c5.69-1.45,9.13-7.23,7.69-12.92l-48.09-189.24c-1.45-5.69-7.23-9.13-12.92-7.69l-88.43,22.47
			c-5.69,1.45-9.13,7.23-7.69,12.92l48.09,189.24C424.36,347.73,430.15,351.17,435.84,349.73z"/>
	</g>
	<g>
		<path class="st3" d="M436.8,343.54l83.67-21.26c3.6-0.92,5.78-4.58,4.86-8.18l-47.19-185.71c-0.92-3.6-4.58-5.78-8.18-4.86
			l-83.67,21.26c-3.6,0.92-5.78,4.58-4.86,8.18l47.19,185.71C429.54,342.28,433.2,344.46,436.8,343.54z"/>
	</g>
	<g>
		<path class="st6" d="M419.28,188.64c-5.35,8.61-6.82,19.51-3.03,29.75c6.51,17.61,26.06,26.61,43.67,20.1s26.61-26.06,20.1-43.67
			c-6.51-17.61-26.06-26.61-43.67-20.1c-3.95,1.46-7.47,3.58-10.47,6.18"/>
	</g>
	<g>
		<path d="M435.06,347.06l-8.55-0.19l-8.35-36.91l-3.81-9.44c-0.4-4.33-1.01-9.21-1.01-9.21l-8.59-35.61l-1.94-5.45l-2.93,1.15
			c1.17,5.05,2.02,17.24,1.63,21.64c-0.34,3.81,6.46,14.4,10.28,25.33c2.99,15.68,3.3,34.21,2.75,41.45
			c-0.69,9.07,1.47,23.37,7.69,24.89c6.22,1.52,21.95-5.21,25.9-7.35c3.94-2.14,32.58-10.3,44.51-17.54l4.39-8.88L435.06,347.06z"/>
	</g>
	<g>
		<path class="st3" d="M488.6,226.76c4.6,4.07,11.86,5.14,14.68,1.76c2.82-3.38,11-12.51,11.49-13.23
			c0.49-0.72,6.33-8.93-5.12-16.04c-11.45-7.11-14.42,3.71-15.95,5.58C492.17,206.69,478.93,218.21,488.6,226.76z"/>
	</g>
	<g>
		<path class="st3" d="M497.65,260.02c4.81,3.11,11.44,3.8,16.1-1.51c4.66-5.3,13.55-12.37,15.41-16.66s3.28-11.66-5.38-17.41
			c-8.67-5.75-14.75,2.82-16.93,6.24c-2.18,3.41-12.48,15.47-12.9,18.23C493.53,251.66,493.69,257.46,497.65,260.02z"/>
	</g>
	<g>
		<path class="st3" d="M536.47,260.31c-5.49-8.09-14.72-3.64-18.45-0.88c-3.73,2.76-19.17,11.08-20.27,13.97
			c-1.09,2.89-1.08,6.78,0.83,8.82c3.51,3.74,6.51,6,13.64,2.91c3.42-1.48,7.99-3.02,11.24-4.2l1.39,7.77
			C537.43,276.83,541.96,268.4,536.47,260.31z"/>
	</g>
	<g>
		<path d="M498.11,231.03c-3.33,0-7.11-1.48-9.84-3.9c-2.33-2.06-3.56-4.45-3.67-7.13c-0.25-6.15,5.44-12.07,7.88-14.6
			c0.38-0.4,0.68-0.7,0.84-0.9c0.21-0.26,0.48-0.77,0.8-1.36c1.12-2.08,3-5.57,6.62-6.54c2.61-0.7,5.7,0.05,9.18,2.21
			c4.01,2.49,6.39,5.4,7.08,8.63c0.8,3.77-0.98,6.91-1.78,8.08c-0.27,0.4-2.03,2.41-4.88,5.64c-2.46,2.8-5.25,5.97-6.67,7.66
			c-1.05,1.26-2.69,2.01-4.75,2.16C498.65,231.02,498.39,231.03,498.11,231.03z M502.72,197.35c-0.6,0-1.18,0.07-1.72,0.22
			c-3.21,0.86-4.88,3.98-6,6.05c-0.36,0.66-0.64,1.19-0.91,1.52c-0.17,0.21-0.48,0.53-0.89,0.96c-2.34,2.44-7.83,8.15-7.6,13.87
			c0.1,2.39,1.22,4.55,3.33,6.42c2.77,2.45,6.66,3.86,9.91,3.62c1.78-0.13,3.18-0.76,4.05-1.81c1.42-1.71,4.22-4.88,6.68-7.68
			c2.24-2.55,4.55-5.18,4.78-5.51c0.75-1.1,2.37-3.95,1.65-7.35c-0.63-2.96-2.85-5.65-6.62-7.99
			C506.91,198.13,504.67,197.35,502.72,197.35z"/>
	</g>
	<g>
		<path d="M505.39,262.92c-2.93,0-5.78-1.05-8.01-2.49l0,0c-4.08-2.64-4.39-8.54-3.93-11.61c0.27-1.8,3.9-6.56,8.6-12.61
			c1.95-2.5,3.63-4.66,4.37-5.82c3.02-4.72,6.29-7.48,9.73-8.21c2.59-0.55,5.25,0.07,7.9,1.82c9.03,5.99,7.36,13.86,5.56,18.02
			c-1.22,2.81-5.3,6.72-9.25,10.51c-2.24,2.14-4.55,4.36-6.25,6.29C511.52,261.81,508.41,262.92,505.39,262.92z M517.99,223.01
			c-0.55,0-1.09,0.06-1.63,0.17c-3.17,0.67-6.23,3.28-9.1,7.77c-0.76,1.19-2.46,3.37-4.42,5.89c-3.44,4.42-8.15,10.46-8.41,12.15
			c-0.43,2.83-0.18,8.26,3.48,10.62l0,0c4.18,2.7,10.74,3.95,15.46-1.42c1.72-1.96,4.05-4.19,6.3-6.35
			c3.88-3.71,7.88-7.55,9.02-10.18c2.04-4.73,2.8-11.49-5.2-16.8C521.65,223.62,519.8,223.01,517.99,223.01z"/>
	</g>
	<g>
		<path d="M525.2,289.06l-0.69-0.73c13.32-12.57,16.56-20.35,11.55-27.74c-1.63-2.4-3.72-3.83-6.24-4.26
			c-5.26-0.89-10.5,2.76-11.5,3.5c-1.22,0.9-3.62,2.36-6.41,4.05c-5.18,3.14-13.01,7.89-13.69,9.69c-1.01,2.67-1.08,6.38,0.73,8.31
			c3.41,3.64,6.16,5.79,13.07,2.79c2.54-1.11,5.14-2.02,7.64-2.9c4.46-1.57,8.68-3.06,11.57-5.3l0.61,0.79
			c-3.02,2.34-7.31,3.86-11.85,5.46c-2.49,0.88-5.07,1.78-7.58,2.88c-7.48,3.25-10.73,0.68-14.2-3.02
			c-2.09-2.23-2.05-6.39-0.93-9.34c0.74-1.96,6.57-5.62,14.11-10.19c2.76-1.68,5.15-3.12,6.33-4c3.06-2.27,7.88-4.42,12.27-3.68
			c2.79,0.47,5.11,2.05,6.9,4.68C542.18,267.82,538.79,276.23,525.2,289.06z"/>
	</g>
	<g>
		<path d="M493.13,229.51l11.71,3.93l-0.61-6.04c0,0-1.51,2.66-3.33,3.02c-1.82,0.36-4.34,0-4.34,0L493.13,229.51z"/>
	</g>
	<g>
		<path d="M500.89,261.62l8.33,3.31l5.43-3.31l-1.36-2.62c0,0-1.97,1.71-3.33,2.41c-0.96,0.49-5.13,1.01-5.13,1.01L500.89,261.62z"
			/>
	</g>
	<g>
		<path d="M504.85,286.44l18.61,11.67l-1.65-6.99l6.95-6.26c0,0,3.6-8.36,1.81-7.29s-8.37,4.13-10.51,5.1
			c-2.14,0.97-8.06,3.3-10.3,3.89S504.85,286.44,504.85,286.44z"/>
	</g>
	<g>
		<circle class="st1" cx="445.52" cy="266.27" r="11.64"/>
	</g>
	<g id="handset_7_">
		<path class="st3" d="M443.19,268.22c0.02,0.02,0.03,0.04,0.05,0.06c0.02,0.02,0.03,0.04,0.05,0.06c2.99,3.53,7.32,5.13,7.82,3.78
			l0.59-1.9c0.05-0.16,0-0.34-0.12-0.49c0,0-0.01-0.01-0.01-0.01c-0.17-0.23-0.29-0.21-1.04-0.53c-0.39-0.2-0.82-0.41-1.1-0.58
			c-0.27-0.16-0.61-0.11-0.77,0.11l-0.31,0.44c-0.11,0.15-0.27,0.25-0.45,0.28c-0.54,0.09-1.85-1.18-2.59-1.97
			c-0.21-0.23-0.38-0.42-0.48-0.53c-0.1-0.12-0.26-0.31-0.45-0.56c-0.66-0.86-1.7-2.36-1.52-2.88c0.06-0.17,0.19-0.32,0.35-0.4
			l0.49-0.23c0.25-0.12,0.35-0.45,0.24-0.74c-0.12-0.31-0.26-0.76-0.39-1.18c-0.19-0.79-0.16-0.91-0.35-1.11
			c0,0-0.01-0.01-0.01-0.01c-0.13-0.15-0.3-0.22-0.46-0.2l-1.97,0.27C439.33,260.15,440.2,264.69,443.19,268.22z"/>
	</g>
	<g>
		<circle class="st5" cx="481.25" cy="257.09" r="11.64"/>
	</g>
	<g id="handset_4_">
		<path class="st3" d="M480.44,254.16c-0.02,0.01-0.05,0.01-0.07,0.02c-0.02,0.01-0.05,0.01-0.07,0.02
			c-4.45,1.26-7.69,4.55-6.67,5.56l1.49,1.33c0.13,0.11,0.31,0.14,0.5,0.09c0,0,0.01-0.01,0.01-0.01c0.28-0.06,0.31-0.18,0.91-0.73
			c0.34-0.28,0.71-0.57,0.98-0.76c0.26-0.18,0.36-0.51,0.22-0.75l-0.28-0.46c-0.09-0.16-0.12-0.35-0.07-0.53
			c0.14-0.53,1.84-1.2,2.87-1.55c0.29-0.1,0.54-0.17,0.68-0.22c0.15-0.04,0.39-0.11,0.69-0.18c1.06-0.25,2.85-0.57,3.25-0.2
			c0.13,0.13,0.21,0.3,0.22,0.49l0.01,0.54c0.01,0.27,0.26,0.5,0.58,0.52c0.33,0.02,0.8,0.07,1.24,0.13
			c0.8,0.15,0.89,0.23,1.16,0.14c0,0,0.01,0,0.02,0c0.19-0.05,0.33-0.18,0.38-0.34l0.57-1.91
			C489.38,253.98,484.89,252.9,480.44,254.16z"/>
	</g>
	<g>
		<g>
			<path class="st1" d="M438.15,219.95l19.13-28.61c0.56-0.84-0.29-1.91-1.24-1.55l-24.55,9.46c-0.5,0.19-0.77,0.74-0.63,1.25
				l5.42,19.15C436.53,220.51,437.66,220.69,438.15,219.95z"/>
		</g>
		<g>
			<path class="st7" d="M448.52,225.1l19.13-28.61c0.56-0.84-0.29-1.91-1.24-1.55l-24.55,9.46c-0.5,0.19-0.77,0.74-0.63,1.25
				l5.42,19.15C446.9,225.65,448.03,225.83,448.52,225.1z"/>
		</g>
		<g>
			<path class="st8" d="M441.87,204.4c-0.5,0.19-0.77,0.74-0.63,1.25l1.92,6.8l7.71-11.52L441.87,204.4z"/>
		</g>
	</g>
</g>
<g>
	<path d="M213.6,54.34c-31.08,0-50.02,19.3-59.6,60.73c-0.98,0.56-1.89,1.24-2.75,2.01c0.02-0.22,0.04-0.42,0.06-0.63
		c3.36-41.8,24.47-58.29,36.94-64.42c14.23-6.99,31.08-7.19,40.97-0.47l0.19,0.13l0.24,0c22.63-0.42,39.63,30.76,43.6,61.95
		l0.25,2.54c-0.12-0.09-0.22-0.19-0.34-0.28c-1.61-1.13-3.39-1.98-5.29-2.47C264.18,76.42,243.9,54.34,213.6,54.34z"/>
	<path d="M150.67,118.28l0.15-1.88c3.39-42.16,24.77-58.71,37.22-64.83c14.38-7.07,31.44-7.25,41.47-0.44l0.06,0.04l0.08,0
		c0.16,0,0.31,0,0.47,0c23.19,0,39.77,32.02,43.64,62.39l0.36,3.68l-0.91-0.67c-0.06-0.05-0.12-0.1-0.18-0.15
		c-0.05-0.04-0.1-0.08-0.15-0.12c-1.62-1.13-3.34-1.94-5.13-2.39l-0.34-0.09l-0.03-0.35c-3.66-36.71-23.76-58.63-53.77-58.63
		c-30.81,0-49.6,19.17-59.11,60.34l-0.05,0.21l-0.19,0.11c-0.93,0.53-1.82,1.19-2.66,1.95L150.67,118.28z M210.89,47.14
		c-7.3,0-15.2,1.78-22.42,5.33c-12.2,6-33.12,22.2-36.61,63.45c0.55-0.43,1.12-0.82,1.71-1.17c9.66-41.56,28.74-60.91,60.04-60.91
		c30.48,0,50.92,22.12,54.73,59.19c1.58,0.44,3.11,1.14,4.56,2.08l-0.14-1.43c-3.81-29.92-20.03-61.5-42.64-61.5
		c-0.15,0-0.3,0-0.45,0l-0.4,0.01l-0.32-0.22C224.2,48.74,217.81,47.14,210.89,47.14z"/>
</g>
<g>
	<path d="M186.92,178.73c12.62,23,43.4,17.3,50.68,10.45l0.75-13.72c-12.22,9.47-18.09,9.19-25.18,9.19
		c-7.09,0-26.64-8.58-27.72-10.51C184.37,172.2,186.92,178.73,186.92,178.73z"/>
	<path d="M216.78,195.71c-2.17,0-4.38-0.16-6.58-0.51c-7.39-1.17-17.5-4.93-23.71-16.24l-0.03-0.06c-2.07-5.3-1.97-5.35-1.48-5.59
		c0.47-0.22,0.73,0.25,0.9,0.57c0.95,1.7,20.24,10.26,27.29,10.26l0.6,0c6.72,0,12.54,0.01,24.28-9.08l0.87-0.67l-0.82,15.01
		l-0.15,0.14C234.39,192.89,225.95,195.71,216.78,195.71z M187.38,178.51c6.01,10.93,15.81,14.58,22.97,15.71
		c11.07,1.75,22.43-1.36,26.77-5.28l0.68-12.43c-11.44,8.65-17.3,8.62-24.03,8.63l-0.59,0c-6.03,0-22.3-6.6-26.96-9.72
		C186.54,176.32,186.96,177.45,187.38,178.51z"/>
</g>
<g>
	<path d="M196.62,211.08c6.73,7.51,21.41,10.44,28.05,4.56c0,0-9.83,10.44-12.89,8.82s-13.68-10.83-13.68-10.83L196.62,211.08z"/>
</g>
<g>
	<g>
		<path class="st1" d="M51.42,126.54l-21-21l10.85-10.85l10.15,10.15L75.1,81.15l10.85,10.85L51.42,126.54z M31.83,105.54
			l19.59,19.59l33.12-33.12l-9.44-9.44l-23.68,23.68L41.27,96.1L31.83,105.54z"/>
	</g>
</g>
<g>
	<g>
		<circle class="st3" cx="407.38" cy="74.68" r="39.5"/>
	</g>
	<g>
		<g>
			<rect x="394.38" y="88.18" width="7" height="1"/>
		</g>
		<g>
			<path d="M415.88,56.68h-1v-2c0-1.38-1.12-2.5-2.5-2.5h-23v-1h23c1.93,0,3.5,1.57,3.5,3.5V56.68z"/>
		</g>
		<g>
			<path d="M429.88,96.18h-27v-34.5c0-1.38-1.12-2.5-2.5-2.5s-2.5,1.12-2.5,2.5v24c0,1.93-1.57,3.5-3.5,3.5s-3.5-1.57-3.5-3.5v-31
				c0-1.38-1.12-2.5-2.5-2.5s-2.5,1.12-2.5,2.5v4.5h3.5v1h-4.5v-5.5c0-1.93,1.57-3.5,3.5-3.5s3.5,1.57,3.5,3.5v31
				c0,1.38,1.12,2.5,2.5,2.5s2.5-1.12,2.5-2.5v-24c0-1.93,1.57-3.5,3.5-3.5h26c1.93,0,3.5,1.57,3.5,3.5V96.18z M403.88,95.18h25
				v-33.5c0-1.38-1.12-2.5-2.5-2.5h-23.55c0.65,0.64,1.05,1.52,1.05,2.5V95.18z"/>
		</g>
		<g>
			<path d="M416.38,82.18c-5.24,0-9.5-4.26-9.5-9.5c0-2.34,0.86-4.59,2.42-6.33l0.75,0.67c-1.4,1.56-2.17,3.57-2.17,5.67
				c0,4.69,3.81,8.5,8.5,8.5c1.69,0,3.32-0.5,4.72-1.43l0.56,0.83C420.1,81.62,418.27,82.18,416.38,82.18z"/>
		</g>
		<g>
			<path d="M423.77,78.65l-0.78-0.63c1.22-1.5,1.89-3.4,1.89-5.34c0-1.37-0.32-2.68-0.94-3.89l0.89-0.46
				c0.69,1.34,1.05,2.84,1.05,4.35C425.88,74.84,425.13,76.96,423.77,78.65z"/>
		</g>
		<g>
			<path d="M422.04,66.34c-1.56-1.39-3.57-2.16-5.67-2.16c-1.69,0-3.32,0.49-4.72,1.43l-0.56-0.83c1.56-1.05,3.39-1.6,5.28-1.6
				c2.34,0,4.59,0.86,6.33,2.42L422.04,66.34z"/>
		</g>
		<g>
			<rect x="406.38" y="86.18" width="11" height="1"/>
		</g>
		<g>
			<rect x="406.38" y="90.18" width="5" height="1"/>
		</g>
		<g>
			<g>
				<path d="M415.33,77.5l-4.34-4.34l2.52-2.52l1.82,1.82l4.24-4.24l2.52,2.52L415.33,77.5z M412.4,73.16l2.93,2.93l5.35-5.35
					l-1.11-1.11l-4.24,4.24l-1.82-1.82L412.4,73.16z"/>
			</g>
		</g>
	</g>
</g>
<g>
	<g>
		<circle class="st3" cx="318.95" cy="39.96" r="31"/>
	</g>
	<g>
		<path d="M289.22,33.15l-0.97-0.22c3.29-14.4,15.92-24.46,30.71-24.46c4.13,0,8.14,0.79,11.92,2.33l-0.38,0.93
			c-3.67-1.5-7.55-2.26-11.54-2.26C304.63,9.46,292.4,19.2,289.22,33.15z"/>
	</g>
	<g>
		<g>
			<path d="M318.95,50.6c-7.27,0-14.06-3.84-17.71-10.02l-0.37-0.62l0.37-0.62c3.65-6.18,10.44-10.02,17.71-10.02
				c7.27,0,14.06,3.84,17.71,10.02l0.37,0.62l-0.37,0.62C333.01,46.76,326.22,50.6,318.95,50.6z M302.03,39.96l0.07,0.11
				c3.47,5.88,9.93,9.53,16.85,9.53c6.92,0,13.38-3.65,16.85-9.53l0.07-0.11l-0.07-0.11c-3.47-5.88-9.93-9.53-16.85-9.53
				c-6.92,0-13.38,3.65-16.85,9.53L302.03,39.96z M318.95,49.15c-5.07,0-9.19-4.12-9.19-9.19s4.12-9.19,9.19-9.19
				s9.19,4.12,9.19,9.19S324.02,49.15,318.95,49.15z M318.95,31.77c-4.52,0-8.19,3.67-8.19,8.19s3.67,8.19,8.19,8.19
				s8.19-3.67,8.19-8.19S323.47,31.77,318.95,31.77z"/>
		</g>
		<g>
			<path d="M318.95,44.81c-2.67,0-4.85-2.17-4.85-4.85s2.17-4.85,4.85-4.85s4.85,2.17,4.85,4.85S321.62,44.81,318.95,44.81z
				 M318.95,36.12c-2.12,0-3.85,1.73-3.85,3.85s1.73,3.85,3.85,3.85s3.85-1.73,3.85-3.85S321.07,36.12,318.95,36.12z"/>
		</g>
	</g>
</g>
<g>
	<g>
		<circle class="st3" cx="59.13" cy="217.3" r="32.35"/>
	</g>
	<g>
		<path d="M48.64,248.44c-13.38-4.5-22.36-17.02-22.36-31.14c0-18.12,14.74-32.85,32.85-32.85c11.48,0,21.94,5.84,27.98,15.62
			l-0.85,0.53c-5.85-9.49-15.99-15.15-27.13-15.15c-17.56,0-31.85,14.29-31.85,31.85c0,13.69,8.71,25.83,21.68,30.2L48.64,248.44z"
			/>
	</g>
	<g>
		<g>
			<g>
				<path d="M61.27,232.03l-13.28,0l-0.11-0.05c-0.36-0.18-0.7-0.82-0.78-1.2c-0.65-2.96-1.8-8.72-3.22-16.23l-0.07-0.36l-2.43-8.24
					c-0.37-1.26,0.36-2.64,1.6-3.01c1.24-0.36,2.59,0.38,2.95,1.6l1.58,5.33l-0.88-8.51c-0.1-0.6,0.05-1.23,0.43-1.74
					c0.37-0.51,0.92-0.85,1.55-0.95c1.32-0.21,2.51,0.69,2.72,1.97l1.25,7.84l0.17-9.38c-0.02-0.61,0.21-1.21,0.64-1.67
					c0.43-0.46,1.02-0.73,1.65-0.75c0,0,0,0,0,0c1.37,0,2.41,1.01,2.45,2.29l0.32,9.15c0.34-0.4,0.62-0.79,0.91-1.14
					c0.73-0.85,2.32-2.29,4.76-2.29h0c1.64,0,3.32,0.65,5,1.94c0.53,0.4,0.86,0.98,0.95,1.64c0.09,0.66-0.08,1.31-0.49,1.83
					c-0.47,0.62-1.19,0.97-1.97,0.97c0,0,0,0,0,0c-0.55,0-1.07-0.18-1.5-0.51c-0.78-0.6-1.45-0.9-1.97-0.9c-0.55,0-0.84,0.33-1,0.53
					c-1.26,1.47-1.47,5.1-0.01,6.54c0.71,0.92,1.93,1.22,2.78,0.7c0.63-0.39,2.02-1.49,1.45-3.38c-0.19-0.63-0.13-1.3,0.19-1.89
					c0.31-0.58,0.83-1.01,1.47-1.2c1.3-0.39,2.71,0.39,3.09,1.66l0,0c1.41,4.67-1.8,8.61-2.82,9.71c-0.34,0.3-1.34,1.78-2.31,3.21
					c-1.28,1.89-2.73,4.03-3.83,5.33c-0.17,0.24-0.74,1.03-1.19,1.13L61.27,232.03z M48.31,231.03l12.8,0
					c0.04-0.05,0.27-0.27,0.57-0.71l0.06-0.08c1.07-1.26,2.5-3.38,3.77-5.25c1.3-1.93,2.06-3.03,2.44-3.36
					c0.89-0.96,3.81-4.55,2.56-8.71v0c-0.23-0.76-1.07-1.22-1.85-0.99c-0.38,0.11-0.69,0.37-0.88,0.72s-0.23,0.75-0.11,1.13
					c0.79,2.63-1.24,4.13-1.88,4.52c-1.28,0.79-3.11,0.35-4.05-0.89c-1.82-1.78-1.56-6.02,0-7.85c0.23-0.26,0.75-0.88,1.77-0.88
					c0.76,0,1.6,0.36,2.58,1.11c0.26,0.2,0.57,0.3,0.9,0.3h0c0.47,0,0.9-0.21,1.18-0.58c0.24-0.31,0.34-0.7,0.29-1.09
					c-0.05-0.39-0.25-0.74-0.57-0.98c-1.5-1.15-2.98-1.73-4.39-1.73h0c-2.04,0-3.38,1.21-4,1.94c-0.26,0.3-0.5,0.64-0.72,1.02
					c-0.23,0.4-0.71,0.6-1.16,0.49c-0.45-0.11-0.78-0.52-0.79-0.98l-0.32-9.15c-0.03-0.74-0.63-1.33-1.38-1.33
					c-0.41,0.01-0.75,0.17-1,0.44c-0.25,0.27-0.38,0.62-0.37,0.98l-0.23,12.7c0.01,0.34-0.23,0.63-0.59,0.67
					c-0.39,0.03-0.77-0.27-0.84-0.68l-1.75-10.98c-0.12-0.75-0.83-1.26-1.58-1.14c-0.36,0.06-0.68,0.25-0.9,0.55
					c-0.21,0.3-0.3,0.66-0.24,1.02l1.17,11.32c0.06,0.36-0.19,0.73-0.58,0.81c-0.38,0.08-0.75-0.13-0.86-0.5l-2.39-8.04
					c-0.21-0.71-0.99-1.14-1.71-0.93c-0.72,0.21-1.15,1.02-0.93,1.76l2.52,8.69c1.43,7.5,2.57,13.25,3.22,16.2
					C48.11,230.71,48.22,230.91,48.31,231.03z M47.8,212.66c0,0.01,0,0.02,0,0.02L47.8,212.66z M52.52,211.79c0,0.01,0,0.02,0,0.02
					L52.52,211.79z"/>
			</g>
			<g>
				<path d="M61.5,236.42l-14.11,0c-0.52,0-0.94-0.42-0.94-0.94v-3.5c0-0.52,0.42-0.94,0.94-0.94l14.11,0
					c0.52,0,0.94,0.42,0.94,0.94l0,3.5C62.44,236,62.01,236.42,61.5,236.42z M47.45,235.42l14.05,0l-0.06-3.44l-14.05,0.06
					L47.45,235.42z"/>
			</g>
		</g>
		<g>
			<g>
				<rect x="70.31" y="202.25" transform="matrix(0.1045 -0.9945 0.9945 0.1045 -136.8765 253.4735)" width="4.01" height="1"/>
			</g>
			<g>
				<rect x="77.01" y="211.84" transform="matrix(0.5873 -0.8094 0.8094 0.5873 -141.1067 150.9894)" width="1" height="4.06"/>
			</g>
			<g>
				<rect x="76.57" y="208.7" transform="matrix(0.9975 -0.0703 0.0703 0.9975 -14.5208 6.0528)" width="4.21" height="1"/>
			</g>
			<g>
				<rect x="74.3" y="204.46" transform="matrix(0.7187 -0.6953 0.6953 0.7187 -120.9743 110.8717)" width="4.49" height="1"/>
			</g>
		</g>
	</g>
</g>
<g>
	<g>
		<path d="M233.54,399.71H67.99c-7.44,0-13.5-6.06-13.5-13.5V281.62c0-7.44,6.06-13.5,13.5-13.5h165.55c7.44,0,13.5,6.06,13.5,13.5
			v104.59C247.04,393.66,240.98,399.71,233.54,399.71z M67.99,269.12c-6.89,0-12.5,5.61-12.5,12.5v104.59
			c0,6.89,5.61,12.5,12.5,12.5h165.55c6.89,0,12.5-5.61,12.5-12.5V281.62c0-6.89-5.61-12.5-12.5-12.5H67.99z"/>
	</g>
	<g>
		<g>
			<path class="st0" d="M142.43,346.36c-0.07,0-0.15-0.01-0.22-0.02c-0.54-0.08-0.96-0.46-1.11-0.98l-4.57-16.15
				c-0.19-0.69,0.16-1.4,0.83-1.66l20.7-7.97c0.57-0.22,1.19-0.05,1.57,0.42c0.38,0.48,0.41,1.12,0.07,1.62l-16.13,24.13
				C143.31,346.13,142.88,346.36,142.43,346.36z M158.56,320.48c-0.04,0-0.09,0.01-0.14,0.03l-20.7,7.97
				c-0.18,0.07-0.28,0.26-0.23,0.45l4.57,16.15c0.06,0.21,0.23,0.26,0.3,0.27c0.07,0.01,0.25,0.02,0.37-0.16l16.13-24.13
				c0.14-0.21,0.02-0.39-0.02-0.44C158.82,320.58,158.72,320.48,158.56,320.48z"/>
		</g>
		<g>
			<path class="st0" d="M151.17,350.69c-0.07,0-0.15-0.01-0.22-0.02c-0.54-0.08-0.96-0.46-1.11-0.98l-4.57-16.15
				c-0.19-0.69,0.16-1.4,0.83-1.66l20.7-7.97c0.57-0.22,1.19-0.05,1.57,0.42c0.38,0.48,0.41,1.12,0.07,1.62l-16.13,24.13
				C152.05,350.47,151.63,350.69,151.17,350.69z M167.31,324.81c-0.04,0-0.09,0.01-0.14,0.03l-20.7,7.97
				c-0.18,0.07-0.28,0.26-0.23,0.45l4.57,16.15c0.06,0.21,0.23,0.26,0.3,0.27c0.07,0.01,0.25,0.02,0.37-0.16l16.13-24.13
				c0.14-0.21,0.02-0.39-0.02-0.44C167.56,324.92,167.46,324.81,167.31,324.81z"/>
		</g>
	</g>
	<g>
		<path d="M306.61,400.11c-9.02,0-20.23-0.11-32.23-0.23c-13.68-0.14-27.83-0.28-40.92-0.28v-1c13.08,0,27.24,0.14,40.92,0.28
			c24.83,0.25,46.27,0.47,51.83-0.28c5.68-0.76,13.78-4.94,18.28-11.46c3.35-4.86,4.35-10.33,2.97-16.25
			c-3.99-17.12-25.89-83.45-26.11-84.12l0.95-0.31c0.22,0.67,22.13,67.05,26.14,84.21c1.45,6.21,0.4,11.95-3.12,17.05
			c-4.67,6.76-13.07,11.09-18.96,11.88C323.43,399.98,316.28,400.11,306.61,400.11z"/>
	</g>
	<g>
		<path d="M296.61,355.47c-0.52-1.2-12.85-29.38-14.58-38.28l0.98-0.19c1.7,8.8,14.38,37.78,14.51,38.07L296.61,355.47z"/>
	</g>
	<g>
		<path d="M276.94,359.57l-0.99-0.13c5.14-40.08,6.77-51.61,6.79-51.72l0.99,0.14C283.71,307.97,282.09,319.5,276.94,359.57z"/>
	</g>
	<g>
		<path d="M282.26,318.2l-0.79-0.61c4.78-6.24,24-21.32,39.54-31.03c4.11-2.57,5.12-7.23,2.7-12.46c-0.23-0.5-0.6-1.35-1.09-2.47
			c-12.19-27.78-22.12-44.12-29.51-48.55c-12.23-7.32-36.83-12.25-46.6-12.83l0.06-1c10.13,0.61,34.51,5.46,47.05,12.98
			c11.42,6.84,25.34,38.58,29.91,49c0.49,1.11,0.85,1.95,1.09,2.45c2.61,5.65,1.43,10.91-3.08,13.73
			C304.6,298,286.51,312.66,282.26,318.2z"/>
	</g>
	<g>
		<path d="M104.4,268.98l-0.91-0.4c11.63-26.3,21.3-41.89,28.74-46.35c12.54-7.51,36.92-12.37,47.05-12.98l0.06,1
			c-9.76,0.59-34.37,5.51-46.6,12.83C127.76,226.07,118.79,236.46,104.4,268.98z"/>
	</g>
	<g>
		<path d="M232.81,244.22c-4.39,0-16.95-12.98-20.36-16.6c-3.41,3.62-15.97,16.6-20.36,16.6c-0.24,0-0.45-0.04-0.63-0.12
			c-3.88-1.63-13.2-27.48-13.59-31.62c-0.39-4.1,5.93-15.56,9.39-17.03l0.39,0.92c-2.8,1.19-9.16,12.07-8.79,16.01
			c0.4,4.23,9.7,29.41,12.99,30.79c2.43,1.03,13.71-9.66,20.24-16.64l0.37-0.39l0.37,0.39c6.54,6.98,17.83,17.67,20.24,16.64
			c3.29-1.38,12.58-26.56,12.99-30.79c0.38-3.93-5.18-15.45-8.04-16.66l0.39-0.92c3.52,1.49,9.03,13.65,8.64,17.68
			c-0.39,4.14-9.71,29.98-13.59,31.62C233.26,244.19,233.05,244.22,232.81,244.22z"/>
	</g>
	<g>
		<path d="M212.45,225.08c-4.5,0-24.16-18.97-26.2-26.57l0.96-0.26c1.93,7.19,21.12,25.83,25.23,25.83
			c3.63,0,24.72-19.64,25.9-27.08l0.99,0.16C238.2,204.34,217.14,225.08,212.45,225.08z"/>
	</g>
	<g>
		<path d="M238.66,197.88l-1-0.01c0-0.22,0.25-22.32,1.46-23.84l0.78,0.63C239.37,175.55,238.78,186.41,238.66,197.88z"/>
	</g>
	<g>
		<path d="M238.34,194.17l-0.21-0.98c24.78-5.34,39.63-26.6,38.73-55.47l1-0.03C278.77,167.08,263.62,188.72,238.34,194.17z"/>
	</g>
	<g>
		<path d="M213.17,185.88c-12.18,0-38.62-12.16-44.59-40.26l0.98-0.21c5.84,27.55,31.71,39.47,43.61,39.47
			c10.92,0,20.66-4.69,28.95-13.94c6.57-7.33,7.62-9.56,7.63-9.59l0.92,0.4c-0.04,0.09-1.04,2.32-7.8,9.85
			C234.38,181.08,224.39,185.88,213.17,185.88z"/>
	</g>
	<g>
		<path d="M188.13,200.58l-1-0.05c0.43-8.34-1.45-26.54-1.47-26.73l0.99-0.1C186.67,173.89,188.56,192.17,188.13,200.58z"/>
	</g>
	<g>
		<path d="M168.7,120.82l-0.46-0.89c0.39-0.21,0.91-0.47,1.54-0.79c25.28-12.74,42.54-28.62,51.32-47.19l0.14-0.29h1.83l0.12,0.34
			c5.6,16.51,13.63,33.48,34.31,45.81l-0.51,0.86c-20.81-12.41-28.97-29.43-34.63-46.01h-0.48c-8.91,18.66-26.29,34.59-51.64,47.37
			C169.61,120.36,169.09,120.62,168.7,120.82z"/>
	</g>
	<g>
		<path d="M187.44,195.22c-6.23-0.14-16.05-3.97-23.94-12.23c-7.04-7.38-15.3-21.18-14.69-45.04l1,0.03
			c-0.6,23.52,7.51,37.09,14.41,44.32c7.69,8.06,17.21,11.79,23.24,11.92L187.44,195.22z"/>
	</g>
	<g>
		<path d="M150.87,119.06l-1-0.06c2.7-44.39,24.87-61.71,37.84-68.09c14.54-7.15,31.82-7.34,42.08-0.47c0.1,0,0.21,0,0.31,0
			c23.65,0,41.26,33.15,44.67,65.46l-0.99,0.11c-3.37-31.86-20.6-64.56-43.68-64.56c-0.15,0-0.3,0-0.45,0l-0.16,0l-0.13-0.09
			c-9.97-6.76-26.91-6.57-41.21,0.46C175.37,58.09,153.54,75.18,150.87,119.06z"/>
	</g>
	<g>
		<path d="M225.31,174.08c-1.79,0-3.24-1.46-3.24-3.24c0-1.79,1.46-3.24,3.24-3.24s3.24,1.46,3.24,3.24
			C228.55,172.63,227.1,174.08,225.31,174.08z M225.31,168.6c-1.24,0-2.24,1.01-2.24,2.24s1.01,2.24,2.24,2.24s2.24-1.01,2.24-2.24
			S226.54,168.6,225.31,168.6z"/>
	</g>
	<g>
		<path d="M228.18,171.32l-0.26-0.96c19.4-5.29,29.77-12.56,31.7-22.23l0.98,0.2C258.59,158.4,247.98,165.92,228.18,171.32z"/>
	</g>
	<g>
		<path d="M260.21,148.73c-0.04,0-0.07,0-0.11,0l0,0c-1.04-0.03-2-0.46-2.72-1.22s-1.1-1.75-1.07-2.78l0.88-31.48
			c0.03-1.04,0.46-2,1.22-2.72s1.74-1.09,2.78-1.07c1.04,0.03,2,0.46,2.72,1.22s1.1,1.75,1.07,2.78l-0.88,31.48
			c-0.03,1.04-0.46,2-1.22,2.72C262.15,148.35,261.2,148.73,260.21,148.73z M261.08,110.46c-0.74,0-1.44,0.28-1.98,0.79
			c-0.56,0.53-0.89,1.25-0.91,2.02l-0.88,31.48c-0.02,0.77,0.26,1.5,0.79,2.07c0.53,0.56,1.25,0.89,2.02,0.91l0,0
			c0.77,0.02,1.5-0.26,2.07-0.79c0.56-0.53,0.89-1.25,0.91-2.02l0.88-31.48c0.02-0.77-0.26-1.5-0.79-2.07
			c-0.53-0.56-1.25-0.89-2.02-0.91C261.14,110.46,261.11,110.46,261.08,110.46z"/>
	</g>
	<g>
		<path d="M263.84,145.22c-0.15,0-0.3,0-0.46-0.01l0.03-1c4,0.12,7.83-1.35,10.75-4.11c2.92-2.76,4.59-6.49,4.7-10.51
			c0.11-4.02-1.35-7.83-4.11-10.75c-2.76-2.92-6.49-4.59-10.51-4.7l0.03-1c4.28,0.12,8.26,1.9,11.21,5.01
			c2.94,3.11,4.5,7.19,4.38,11.47c-0.12,4.28-1.9,8.26-5.01,11.21C271.85,143.68,267.96,145.22,263.84,145.22z"/>
	</g>
	<g>
		<path d="M165.75,148.73c-2.1,0-3.83-1.68-3.89-3.79l-0.88-31.48c-0.03-1.04,0.35-2.02,1.07-2.78c0.72-0.76,1.68-1.19,2.72-1.22
			c1.06-0.03,2.03,0.35,2.78,1.07c0.76,0.72,1.19,1.68,1.22,2.72l0.88,31.48c0.03,1.04-0.35,2.02-1.07,2.78
			c-0.72,0.76-1.68,1.19-2.72,1.22C165.83,148.73,165.79,148.73,165.75,148.73z M164.88,110.46c-0.03,0-0.05,0-0.08,0
			c-1.59,0.04-2.86,1.38-2.81,2.97l0.88,31.48c0.04,1.6,1.38,2.88,2.97,2.81l0,0c1.59-0.04,2.86-1.38,2.81-2.97l-0.88-31.48
			c-0.02-0.77-0.34-1.49-0.91-2.02C166.32,110.74,165.62,110.46,164.88,110.46z"/>
	</g>
	<g>
		<path d="M162.12,145.22c-4.12,0-8.01-1.55-11.01-4.39c-3.11-2.94-4.89-6.92-5.01-11.21c-0.12-4.28,1.44-8.35,4.38-11.47
			c2.94-3.11,6.92-4.89,11.21-5.01l0.03,1c-4.02,0.11-7.75,1.78-10.51,4.7c-2.76,2.92-4.22,6.74-4.11,10.75
			c0.11,4.02,1.78,7.75,4.7,10.51c2.92,2.76,6.76,4.24,10.75,4.11l0.03,1C162.42,145.22,162.27,145.22,162.12,145.22z"/>
	</g>
	<g>
		<path d="M155.38,115.73l-1.46-0.33c4.81-20.98,11.82-36.02,21.43-45.98c9.79-10.15,22.31-15.09,38.26-15.09
			c30.35,0,50.64,22.15,54.29,59.24l-1.49,0.15c-3.57-36.25-23.3-57.89-52.8-57.89C182.84,55.83,164.88,74.3,155.38,115.73z"/>
	</g>
	<g>
		<path d="M246.59,365.2l-0.11-0.99c10.71-1.13,22.48-3.63,33.85-6.04c14.56-3.08,29.61-6.27,42.18-6.5l0.02,1
			c-12.47,0.23-27.48,3.4-41.99,6.48C269.15,361.57,257.36,364.06,246.59,365.2z"/>
	</g>
</g>
</svg>
