<svg xmlns="http://www.w3.org/2000/svg" xmlns:xlink="http://www.w3.org/1999/xlink" width="528.0181mm" height="563.9939mm" viewBox="0 0 1496.7442 1598.7228"><defs><style>.a,.au{fill:none;}.b{clip-path:url(#a);}.c{fill:#fff8f0;}.d{fill:#f29103;}.e{fill:#d7d7d7;}.f{fill:#edf2f0;}.g{fill:#353b42;}.h{fill:#f4a285;}.i{fill:#40454f;}.j{fill:#e5941f;}.k{fill:#eba13f;}.l{fill:#b7bac0;}.m{fill:#f08b72;}.n{fill:#e8ebf0;}.o{clip-path:url(#c);}.p{fill:#733829;}.q{fill:#5c2821;}.r{fill:#e0b055;}.s{fill:#8a4a3e;}.t{fill:#fdede3;}.u{fill:#f49d83;}.v{fill:#fae1da;}.w{fill:#f39b80;}.x{fill:#f3977b;}.y{fill:#f29378;}.z{fill:#f28e75;}.aa{fill:#f18b72;}.ab{fill:#f18770;}.ac{fill:#f0856b;}.ad{fill:#ee8068;}.ae{fill:#ee7b66;}.af{fill:#ee7964;}.ag{fill:#f08b70;}.ah{fill:#b32a29;}.ai{fill:#fff;}.aj{fill:#d3745e;}.ak{fill:#754539;}.al{fill:#493321;}.am{fill:#3b261c;}.an{fill:#674d3b;}.ao{fill:#d3a13b;}.ap{fill:#555a66;}.aq{fill:#a1615a;}.ar{fill:#4e2e26;}.as{fill:#dc7d66;}.at{fill:#023035;}.au{stroke:#023035;stroke-width:6.0954px;}</style><clipPath id="a" transform="translate(-81.6672 97.0013)"><rect class="a" x="81.6663" y="-97.0013" width="1496.7439" height="1598.7234"/></clipPath><clipPath id="c" transform="translate(-81.6672 97.0013)"><path class="a" d="M1116.0905,559.4151a193.909,193.909,0,0,1-30.4558,2.1638c-17.8321,0-34.8292-1.7646-46.9012-2.8069-9.3809-.8046-13.6934-4.4558-13.6934-4.4558,1.7463,18.0791,26.2743,19.5023,53.9689,19.5023,2.5875,0,5.2085-.0152,7.8387-.0244,2.6241-.0151,5.2634-.0243,7.8966-.0243,2.938,0,5.873.0121,8.78.0579.36.006.7163.0122,1.07.0122,35.0122,0,40.0714-28.85,40.0714-28.85-8.6495,6.7812-17.0947,12.578-28.5754,14.4249"/></clipPath></defs><g class="b"><path class="c" d="M546.5985,69.8905C242.7416-109.2692,310.73,420.024,304.8722,759.143c-6.1167,354.3057,476.3971,460.4362,587.66,511.3C1212.74,1416.818,1417.455,864.9382,1321.9305,533.4171c-95.5275-331.5179-669.3386-401.03-775.332-463.5266" transform="translate(-81.6672 97.0013)"/></g><polygon class="d" points="250.367 0 0 319.068 319.071 569.422 250.367 0"/><polygon class="e" points="1282.149 512.373 1496.744 533.494 1303.266 297.781 1282.149 512.373"/><polygon class="f" points="483.648 1271.03 528.718 1598.723 811.332 1225.969 811.332 1225.96 483.648 1271.03"/><g class="b"><path class="g" d="M1120.1665,1114.5949s-19.7706,71.4232-12.5048,72.5143h39.4953s5.8973,1.9627-.5059-71.07l-14.3882-1.7159Z" transform="translate(-81.6672 97.0013)"/><path class="h" d="M1120.1665,1114.1061l-6.5892,54.0451c3.4318.7253,21.6662-2.8557,28.49,2.1791a408.1975,408.1975,0,0,0,4.5838-56.1693l-12.2091-16.351Z" transform="translate(-81.6672 97.0013)"/><path class="g" d="M1028.5769,1114.1061c-8.9877,25.7623-32.2205,54.0451-32.2205,54.0451l-20.2367,2.3132-20.2673,4.9891s-5.0745,5.1171-.6309,12.7455h51.4972l17.6066-43.8749-1.1947,43.8749h5.3793l10.9778-54.42s-1.1063-12.9772-10.9108-19.673" transform="translate(-81.6672 97.0013)"/><path class="h" d="M1028.5769,1114.0375l-12.9376-11.7672-14.5559,11.7489s-15.7017,49.9094-24.9637,56.4467l18.5-.1341s24.97-30.532,33.9577-56.2943" transform="translate(-81.6672 97.0013)"/><path class="i" d="M1047.516,638.8951l95.3447,1.2648c55.9285,59.5584,29.0538,189.6958,11.883,286.357,0,0,21.8155,44.8654-6.3179,187.5928h-30.9739s-2.6333-156.5031-6.6715-175.7494c-5.0653-24.1257-14.19-139.5669-16.1589-173.875l-6.9946-.4785s-12.7333,83.58-29.8706,157.9263c0,0,10.6,43.7743-2.8679,92.1629-6.0406,21.7119-18.7069,72.7763-19.1731,100.0137H996.2382s14.3182-136.5772,12.8461-166.7922c-12.8461-263.9044,38.4317-308.4224,38.4317-308.4224" transform="translate(-81.6672 97.0013)"/><path class="g" d="M1008.8869,943.1523c.0669,1.3928.131,2.7582.198,4.1632,1.4691,30.218-12.8491,166.7952-12.8491,166.7952h39.48c.4633-27.24,13.1327-78.2988,19.1732-100.0107,13.4679-48.3916,2.8679-92.1781,2.8679-92.1781-25.6252,43.07-48.8244,21.273-48.87,21.23" transform="translate(-81.6672 97.0013)"/><path class="g" d="M1111.7066,946.374v.11c3.2671,37.045,5.7449,167.6273,5.7449,167.6273h30.9739c28.1335-142.7275,6.2722-187.541,6.2722-187.541-20.182,36.28-42.991,19.804-42.991,19.804" transform="translate(-81.6672 97.0013)"/><path class="g" d="M1087.6264,764.0141s-17.4787-5.8272-29.825-14.33c0,0,15.3269,40.114,24.1867,48.8548Z" transform="translate(-81.6672 97.0013)"/><path class="h" d="M876.8112,465.8049c2.0541-10.06,5.9826-17.7529,16.0462-15.6987l8.5122,1.7371a95.6154,95.6154,0,0,1-3.8035-12.4986c-1.4355-8.0124,2.28-11.0358,4.2759-11.8252,1.9932-.7893,6.7263-.6,6.0527,6.7965-.7009,7.7015,10.789,21.8673,10.789,21.8673,4.4466,3.0721,8.3232,9.8105,6.3,19.7218a18.3794,18.3794,0,0,1-21.8886,14.248l-16.61-3.3952c-10.0605-2.0541-11.7276-10.8925-9.6734-20.953" transform="translate(-81.6672 97.0013)"/><path class="j" d="M1042.0761,476.2293s-18.4692,15.2081-68.0158,67.4795c0,0-30.7179-48.477-43.756-70.21,0,0-23.0743,4.0657-28.2523,18.89,0,0,14.4,53.4416,42.15,87.1737,0,0,31.7663,43.4969,95.9511-33.7321,0,0,4.6752-40.9094,1.9231-69.6006" transform="translate(-81.6672 97.0013)"/><path class="k" d="M1131.3071,467.9827s-19.8894-4.4191-30.7819-4.5441c-10.8956-.1158-27.5971,3.895-27.5971,3.895-16.7076,4.4588-30.8185,8.8963-30.8185,8.8963l-4.3551,28.9593c-17.0825,21.8582-18.0333,29.0722-18.0333,38.7487,0,16.7441,14.818,29.188,14.818,29.188l12.98,65.77c56.8062,22.0806,95.6036,1.2648,95.6036,1.2648,6.3-42.921,23.0621-97.9414,23.0621-97.9414V478.4365c-8.7165-3.9865-26.0214-7.9-34.878-10.4538" transform="translate(-81.6672 97.0013)"/><path class="l" d="M1077.2312,504.2085l16.5247-15.4336,8.64,19.0665s26.61-15.5372,28.5906-39.8733c-1.1887-.2621-20.0449-4.41-30.593-4.5258-10.8926-.1219-27.53,3.8919-27.53,3.8919-.2041.0549-.4022.11-.6065.1646-.7375,7.1042-1.3044,22.419,4.9739,36.71" transform="translate(-81.6672 97.0013)"/><path class="h" d="M1085.83,454.7182l-.1067,26.9662,32.9945.128.1372-35.0792a50.1214,50.1214,0,0,1-33.025,7.985" transform="translate(-81.6672 97.0013)"/><path class="m" d="M1118.8563,446.735l.1066-27.024-32.9945-.1281-.1372,35.1341a50.1179,50.1179,0,0,0,33.0251-7.982" transform="translate(-81.6672 97.0013)"/><path class="n" d="M1085.83,454.7182s-.6889,16.97,10.161,23.2175c0,0,21.3065-5.815,22.8335-23.2175l12.2243,13.2637s-7.7411,22.6963-27.6245,31.9583l-8.1129-18.1887-16.7228,16.5247s-6.7812-19.2951-5.65-31.9706Z" transform="translate(-81.6672 97.0013)"/><path class="j" d="M1144.6659,544.99c-8.6495,6.7812-17.0947,12.5779-28.5754,14.4248a193.8971,193.8971,0,0,1-30.4558,2.164c-17.8321,0-34.8293-1.7616-46.9013-2.804-9.3808-.8076-13.6933-4.4587-13.6933-4.4587,1.7463,18.0789,26.2743,19.5022,53.9689,19.5022,2.5905,0,5.2085-.0121,7.8387-.0243,2.6241-.0153,5.2634-.0275,7.8966-.0275,2.938,0,5.873.0184,8.78.064q.54.0093,1.07.0091c35.0151,0,40.0714-28.85,40.0714-28.85" transform="translate(-81.6672 97.0013)"/></g><g class="o"><rect class="j" x="943.3729" y="641.9916" width="119.6258" height="28.8497"/></g><g class="b"><path class="p" d="M1052.0422,374.372s-28.0177,15.8908-9.1309,40.2938c0,0-5.3427-24.1165,9.1309-40.2938" transform="translate(-81.6672 97.0013)"/><path class="q" d="M1128.0439,288.5279s21.0474-39.2941,54.4534-9.7282c0,0,26.1037,20.0387,16.1651,33.9515-9.9416,13.91,26.0092,30.0839.0823,59.8571-25.9238,29.7731,29.7609,37.1089-11.8129,73.3157,0,0-11.8557,11.7886-1.42,27.0729,0,0-42.3357-5.9308-37.74-41.202,0,0-6.6105,13.0106-.829,26.6583,0,0-22.66-21.6358-14.9886-41.4276,7.6649-19.7888,7.5-38.5383.3779-46.4349s-23.9063-44.1157-4.2881-82.0628" transform="translate(-81.6672 97.0013)"/><path class="r" d="M1119.1885,287.8187s8.2775-11.9622,23.1992-.963c14.9246,10.9992,4.1479,18.8745,4.1479,18.8745Z" transform="translate(-81.6672 97.0013)"/><path class="p" d="M1048.773,375.4612l-2.4657-8.7377s-6.62-.5151-10.7066.2986c0,0-23.2876-57.2055,29.4135-67.3179,0,0,30.5258-27.3867,71.5694-7.0462,0,0,47.6023,18.6976,24.7383,78.5944l-32.3393,28.1791Z" transform="translate(-81.6672 97.0013)"/><path class="s" d="M1150.0871,333.3336c-54.3773,9.6-89.5785-16.9239-101.431-27.853-14.4766,8.2959-18.25,22.3275-18.1766,34.8963,68.2871,19.9626,119.6076-7.0433,119.6076-7.0433" transform="translate(-81.6672 97.0013)"/><path class="h" d="M1150.58,370.904l-.8717.2926s-22.355,13.797-25.6222-41.22c-8.7164,9.8014-8.8536,33.9-8.8536,33.9-11.3893-2.3192-34.8231-.5638-34.8231-.5638-4.0505-39.221,6.8086-51.9573,6.8086-51.9573-19.8712,9.3564-15.0192,51.8293-15.0192,51.8293a33.8554,33.8554,0,0,0-15.3178,1.8043l-7.9423.8443s-.2133,25.7318.7527,36.31c1.8957,20.7,12.6542,35.8442,32.9581,40.6321,48.9645,11.5448,62.7676-34.9724,62.7676-34.9724s18.4051.39,20.5416-23.4187c1.7463-19.4657-15.3787-13.48-15.3787-13.48" transform="translate(-81.6672 97.0013)"/><path class="m" d="M1141.1116,402.7559s-13.2728,34.3935-40.7174,38.1057c-16.7076,2.2583-31.0715-4.8733-39.76-10.7981,5.367,6.1137,12.6785,10.5116,22.0167,12.712,48.9645,11.5416,62.7646-34.9725,62.7646-34.9725s14.58.192,19.28-16.351c-12.24,16.9789-23.5832,11.3039-23.5832,11.3039" transform="translate(-81.6672 97.0013)"/><path class="c" d="M1049.2258,393.8511a19.8182,19.8182,0,0,0,4.9769,26.186q-.8229-1.81-1.5056-3.7274a18.1018,18.1018,0,0,1-3.322-18.9111c-.0579-1.1245-.1067-2.3131-.1493-3.5475" transform="translate(-81.6672 97.0013)"/><path class="h" d="M1066.1165,384.3953a19.7973,19.7973,0,0,0-16.89,9.4571c.0427,1.2312.0914,2.4229.1494,3.5475a18.0733,18.0733,0,0,1,16.7411-11.2643h.1036a18.0715,18.0715,0,0,1-.1036,36.1428h-.0976a18.0259,18.0259,0,0,1-13.3215-5.97q.681,1.92,1.5055,3.73a19.7292,19.7292,0,0,0,11.8069,3.98h.1067a19.8118,19.8118,0,0,0,.1127-39.6233h-.1127" transform="translate(-81.6672 97.0013)"/><path class="t" d="M1049.3743,397.4a18.095,18.095,0,0,0,3.3249,18.9111,52.0489,52.0489,0,0,1-1.731-6.0009,16.2917,16.2917,0,0,1-1.1795-6.193c.0031-.2591.0091-.5181.0213-.7772q-.0639-.5943-.1189-1.1977c-.1249-1.3593-.2285-2.9686-.3168-4.7423" transform="translate(-81.6672 97.0013)"/><path class="u" d="M1066.1159,386.1358A18.0735,18.0735,0,0,0,1049.3748,397.4c.0884,1.7738.192,3.383.317,4.7423q.0547.6033.1189,1.1977a16.331,16.331,0,0,1,16.3052-15.4641h.0944a16.3313,16.3313,0,0,1-.0944,32.6624h-.0884a16.3375,16.3375,0,0,1-15.0618-10.2312,53.084,53.084,0,0,0,1.7311,6.001,18.0262,18.0262,0,0,0,13.3216,5.97h.1005a18.0716,18.0716,0,0,0,.1007-36.1429h-.1037" transform="translate(-81.6672 97.0013)"/><path class="v" d="M1049.8113,403.34c-.0123.2561-.0214.5151-.0214.7772a16.26,16.26,0,0,0,1.1765,6.19,61.4749,61.4749,0,0,1-1.1551-6.9671" transform="translate(-81.6672 97.0013)"/><path class="w" d="M1066.1165,387.8776a16.3286,16.3286,0,0,0-16.3053,15.461,61.6721,61.6721,0,0,0,1.1551,6.97,16.3343,16.3343,0,0,0,15.0617,10.2281h.0885a16.33,16.33,0,0,0,.0914-32.6593h-.0914m.0031,30.919h-.0793a14.5895,14.5895,0,0,1,.0731-29.1787h.0853a14.5895,14.5895,0,0,1-.0791,29.1787" transform="translate(-81.6672 97.0013)"/><path class="x" d="M1066.1134,389.6179a14.59,14.59,0,0,0-.0732,29.1788h.0793a14.59,14.59,0,0,0,.0792-29.1788h-.0853m.0031,27.4385h-.07a12.8492,12.8492,0,0,1,.07-25.6982h.0731a12.8492,12.8492,0,0,1-.0731,25.6982" transform="translate(-81.6672 97.0013)"/><path class="y" d="M1066.119,391.3572a12.8493,12.8493,0,0,0-.0732,25.6983h.07a12.8492,12.8492,0,0,0,.0731-25.6983h-.07m0,23.958h-.061a11.109,11.109,0,0,1,.0579-22.2178.4432.4432,0,0,1,.064.0031,11.1074,11.1074,0,0,1-.0609,22.2147" transform="translate(-81.6672 97.0013)"/><path class="z" d="M1066.1147,393.1a11.1075,11.1075,0,0,0-.0579,22.2148h.061a11.1075,11.1075,0,0,0,.0609-22.2148h-.064m.0031,20.4745h-.0488a9.3672,9.3672,0,0,1,.0457-18.7342h.0549a9.3672,9.3672,0,0,1-.0518,18.7342" transform="translate(-81.6672 97.0013)"/><path class="aa" d="M1066.1156,394.84a9.3672,9.3672,0,0,0-.0489,18.7343h.0519a9.3672,9.3672,0,0,0,.0518-18.7343h-.0548m.003,16.994h-.0427a7.6269,7.6269,0,0,1,.0427-15.2537h.0426a7.6269,7.6269,0,0,1-.0426,15.2537" transform="translate(-81.6672 97.0013)"/><path class="ab" d="M1066.12,396.5822a7.6255,7.6255,0,0,0-.0457,15.2508h.0427a7.6255,7.6255,0,0,0,.0426-15.2508h-.04m-.003,13.51h-.0305a5.8852,5.8852,0,0,1,.0305-11.77h.0335a5.8852,5.8852,0,0,1-.0335,11.77" transform="translate(-81.6672 97.0013)"/><path class="ac" d="M1066.1171,398.3221a5.8852,5.8852,0,0,0-.03,11.77h.03a5.8852,5.8852,0,0,0,.0335-11.77h-.0335m.0031,10.03h-.0244a4.1449,4.1449,0,0,1,.0183-8.29h.0274a4.1449,4.1449,0,0,1-.0213,8.29" transform="translate(-81.6672 97.0013)"/><path class="ad" d="M1066.1138,400.0615a4.1449,4.1449,0,0,0-.0183,8.29h.0243a4.1449,4.1449,0,0,0,.0214-8.29h-.0274m.0031,6.5495h-.0123a2.4046,2.4046,0,0,1,.0123-4.8092h.0151a2.4046,2.4046,0,0,1-.0151,4.8092" transform="translate(-81.6672 97.0013)"/><path class="ae" d="M1066.1165,401.8017a2.4047,2.4047,0,0,0-.0122,4.8093h.0122a2.4047,2.4047,0,0,0,.0153-4.8093h-.0153m.0031,3.069h-.0031a.6644.6644,0,0,1-.0031-1.3287h.0091a.6644.6644,0,0,1-.0029,1.3287" transform="translate(-81.6672 97.0013)"/><path class="af" d="M1066.1144,403.5432a.6644.6644,0,0,0,0,1.3288h.006a.6644.6644,0,0,0,.0031-1.3288h-.0091" transform="translate(-81.6672 97.0013)"/><path class="h" d="M1118.4162,380.5256a22.8794,22.8794,0,0,0-.1219,45.7584h.1279a22.7945,22.7945,0,0,0,9.6461-2.1273c1.3226-1.5513,2.5448-3.1269,3.6633-4.6782a20.785,20.785,0,0,1-13.3063,4.7971h-.1189a20.8694,20.8694,0,0,1,.11-41.7385h.1188a20.8832,20.8832,0,0,1,20.31,25.1864c1.5148-3.02,2.2676-4.9678,2.2676-4.9678s.0609.0305.1828.0823a22.8835,22.8835,0,0,0-22.7481-22.3124h-.131" transform="translate(-81.6672 97.0013)"/><path class="m" d="M1141.1116,402.7559s-.75,1.9476-2.2675,4.9649a20.8565,20.8565,0,0,1-7.1133,11.758c-1.1186,1.5512-2.3407,3.1239-3.6635,4.6782a22.878,22.878,0,0,0,13.2332-20.6268c0-.2317,0-.46-.006-.6919-.1219-.0518-.1829-.0824-.1829-.0824" transform="translate(-81.6672 97.0013)"/><path class="u" d="M1118.4177,382.5371a20.8694,20.8694,0,0,0-.1127,41.7384h.1188a20.7871,20.7871,0,0,0,13.3093-4.797,87.0638,87.0638,0,0,0,7.11-11.7551,20.8827,20.8827,0,0,0-20.3069-25.1863h-.1188m.0061,39.7269h-.1067a18.8579,18.8579,0,0,1,.1006-37.7155h.11a18.8579,18.8579,0,0,1-.1036,37.7155" transform="translate(-81.6672 97.0013)"/><path class="ag" d="M1138.845,407.7219a86.9591,86.9591,0,0,1-7.1134,11.7581,20.8668,20.8668,0,0,0,7.1134-11.7581" transform="translate(-81.6672 97.0013)"/><path class="w" d="M1118.4186,384.5459a18.8594,18.8594,0,0,0-.1036,37.7185h.11a18.8594,18.8594,0,0,0,.1006-37.7185h-.1067m.0061,35.707h-.0975a16.8494,16.8494,0,0,1,.0914-33.6985h.0945a16.8494,16.8494,0,0,1-.0884,33.6985" transform="translate(-81.6672 97.0013)"/><path class="x" d="M1118.4174,386.5568a16.8479,16.8479,0,0,0-.0884,33.6955h.0945a16.8479,16.8479,0,0,0,.0915-33.6955h-.0976m.0061,31.687h-.0853a14.8394,14.8394,0,0,1,.0792-29.6786h.0853a14.8394,14.8394,0,0,1-.0792,29.6786" transform="translate(-81.6672 97.0013)"/><path class="y" d="M1118.4186,388.5664a14.8394,14.8394,0,0,0-.0792,29.6786h.0853a14.8394,14.8394,0,0,0,.0792-29.6786h-.0853m.0061,27.6671h-.0732a12.8279,12.8279,0,0,1,.0671-25.6557h.0731a12.8279,12.8279,0,0,1-.067,25.6557" transform="translate(-81.6672 97.0013)"/><path class="z" d="M1118.4205,390.5758a12.8294,12.8294,0,0,0-.07,25.6586h.0732a12.8279,12.8279,0,0,0,.07-25.6556.5966.5966,0,0,0-.0731-.003m.003,23.6471h-.061a10.8179,10.8179,0,0,1,.061-21.6357h.0579a10.8179,10.8179,0,0,1-.0579,21.6357" transform="translate(-81.6672 97.0013)"/><path class="aa" d="M1118.4253,392.5867a10.8179,10.8179,0,0,0-.064,21.6357h.061a10.8179,10.8179,0,0,0,.0609-21.6357h-.0579m-.003,19.6272h-.0488a8.8094,8.8094,0,0,1,.0458-17.6187h.0518a8.8094,8.8094,0,0,1-.0488,17.6187" transform="translate(-81.6672 97.0013)"/><path class="ab" d="M1118.4211,394.5954a8.8095,8.8095,0,0,0-.0488,17.6188h.0488a8.8095,8.8095,0,0,0,.0488-17.6188h-.0488m0,15.6073h-.04a6.798,6.798,0,0,1,.04-13.5958h.04a6.798,6.798,0,0,1-.04,13.5958" transform="translate(-81.6672 97.0013)"/><path class="ac" d="M1118.422,396.6078a6.798,6.798,0,0,0-.04,13.5958h.04a6.798,6.798,0,0,0,.0365-13.5958h-.0365m0,11.5843h-.0275a4.7864,4.7864,0,0,1,.0275-9.5728h.0273a4.7864,4.7864,0,0,1-.0273,9.5728" transform="translate(-81.6672 97.0013)"/><path class="ad" d="M1118.4232,398.62a4.7865,4.7865,0,0,0-.0275,9.5729h.0275a4.7865,4.7865,0,0,0,.0243-9.5729h-.0243m-.0061,7.5644h-.0123a2.778,2.778,0,0,1,.0184-5.556h.0152a2.778,2.778,0,0,1-.0213,5.556" transform="translate(-81.6672 97.0013)"/><path class="ae" d="M1118.4249,400.6283a2.778,2.778,0,0,0-.0182,5.556h.0091a2.778,2.778,0,0,0,.0244-5.556h-.0153m-.0029,3.5444h-.0031a.768.768,0,0,1,.0031-1.536h.0029a.768.768,0,0,1-.0029,1.536" transform="translate(-81.6672 97.0013)"/><path class="af" d="M1118.4226,402.6376a.7681.7681,0,0,0-.0031,1.5362h.0031a.7681.7681,0,0,0,.003-1.5362h-.003" transform="translate(-81.6672 97.0013)"/><path class="ah" d="M1076.4705,413.5055s12.63,3.9438,32.86-.0609c0,0-4.8977,16.4058-18.6794,15.3453-12.2732-.9418-14.181-15.2844-14.181-15.2844" transform="translate(-81.6672 97.0013)"/><path class="ai" d="M1076.9493,414.3315s13.1326,4.4832,31.559-.0579c0,0-3.0964,6.8543-17.6066,6.4124-12.8949-.3871-13.9524-6.3545-13.9524-6.3545" transform="translate(-81.6672 97.0013)"/><path class="p" d="M1074.8842,366.8435s-9.5577-3.7243-20.0388,3.81c0,0-.1128-1.2891,2.0359-3.4865,2.1456-2.1974,8.6067-5.5194,15.3209-3.9834,0,0,4.1052,2.3223,2.682,3.66" transform="translate(-81.6672 97.0013)"/><path class="p" d="M1100.855,367.6365s10.9687-4.5838,23.23,3.6146c0,0,.1006-1.4751-2.4229-3.895-2.5235-2.4229-10.0513-5.9705-17.7742-3.98,0,0-4.7057,2.7887-3.0325,4.2607" transform="translate(-81.6672 97.0013)"/><path class="aj" d="M1091.6451,407.4049c-9.7558,4.3918-15.2813-.067-15.86-4.7392a6.7325,6.7325,0,0,1,4.1357-7.0858c5.9491-2.5906,9.8441-12.0416,9.8838-12.1422.11,2.1335-1.7342,10.2434-9.2224,15.0009-1.6184,1.0271-2.6089,2.0816-2.4261,3.5871.3231,2.621,4.276,6.4,13.4893,5.3792" transform="translate(-81.6672 97.0013)"/><path class="ak" d="M1113.69,375.834s-6.1015-.2164-6.8422-2.5418c0,0-.9264,3.1849,2.7217,4.4466a9.222,9.222,0,0,0-2.1913,5.7023c-.2072,4.3583,2.28,8.0124,5.559,8.1709,3.2793.1555,6.1046-3.2488,6.3118-7.607.2073-4.3552-2.28-8.0125-5.559-8.171" transform="translate(-81.6672 97.0013)"/><path class="ak" d="M1069.02,375.587s-6.1015-.2163-6.8422-2.5417c0,0-.9264,3.1879,2.7216,4.4466a9.2438,9.2438,0,0,0-2.1943,5.7053c-.2072,4.3552,2.2827,8.0155,5.5621,8.1679,3.2793.1585,6.1015-3.2488,6.3118-7.607.2073-4.3553-2.2827-8.0126-5.559-8.1711" transform="translate(-81.6672 97.0013)"/><path class="p" d="M1150.0871,369.4456s-22.2849,7.2414-12.0233,41.9609c0,0-25.4636-29.2428,12.0233-41.9609" transform="translate(-81.6672 97.0013)"/><path class="h" d="M1167.0394,647.0606l-10.1215-5.3152-4.8733,4.3308c-6.0954-.4571-9.4906-3.5719-12.4255-3.3159-2.935.253-8.0673-1.6366-8.0673-1.6366-1.64,4.5715,4.4649,7.5736,4.4649,7.5736l-1.2374.0457c-1.0179.04-2.0358.0732-3.0508.1158-1.2983.0548-2.5966.0884-3.8918.1493-1.2557.058-2.5114.07-3.7671.1494a22.44,22.44,0,0,0-2.8952.2895,12.3066,12.3066,0,0,0-2.8069,1.0546c-1.1429.5333-6.9306,4.3155-7.9363,4.8153-.4663.2316-1.4386.7071-1.4386.71a4.3722,4.3722,0,0,0,.9235,3.6085c1.56,1.7067,4.4253.9753,5.8212.3688a25.6588,25.6588,0,0,0,3.3525-1.9536,3.06,3.06,0,0,1,2.176-.893,25.6161,25.6161,0,0,1,2.8618-.0427q3.1178-.0594,6.2326-.0761.7086-.0047,1.4172-.0091s-9.1035,4.0473-11.8679,5.6047c-2.0663,1.1612-6.86,8.6951-6.86,8.6951-3.4774,5.3944,3.9987,5.3457,3.9987,5.3457a3.0588,3.0588,0,0,0-.4237,1.9079,1.888,1.888,0,0,0,.9418,1.0453,4.6387,4.6387,0,0,0,2.1547.5425,7.1863,7.1863,0,0,0,3.9437-.7132,8.7926,8.7926,0,0,0,.9844-.6278c.3109-.2255.6127-.4663.9113-.7132.3779-.3139.7406-.6431,1.1063-.9783a35.666,35.666,0,0,0,3.2337-3.2732c.1189-.1463.3626-.5973.5424-.6522l7.2872-2.2187c-2.1609,1.9627-3.6451,7.1042-6.5191,9.99a6.8464,6.8464,0,0,0-1.1765,1.4752,2.37,2.37,0,0,0-.3474,1.9139c.2408.6218.8808.6644,1.3685.7314a7.6174,7.6174,0,0,0,4.5288-.899,9.6187,9.6187,0,0,0,2.0572-1.4294,10.8625,10.8625,0,0,0,1.3014-1.39,6.3494,6.3494,0,0,0,.509-.704c3.2763-6.08,7.6772-9.7953,14.8911-8.0368,10.3927,2.5357,14.306-12.9924,14.306-12.9924Z" transform="translate(-81.6672 97.0013)"/><path class="k" d="M1165.664,478.4346s79.8988,78.8017,77.5277,109.4465c0,0,.0518,20.7427-71.17,74.13,0,0-15.4366,1.4111-20.34-21.4681l48.1234-58.4338-39.535-39.602s-11.1577-41.2386,5.3945-64.0721" transform="translate(-81.6672 97.0013)"/><path class="h" d="M829.6835,399.6884c-2.231-10.9291-6.4977-19.2858-17.4268-17.0549l-9.2468,1.89s3.2367-8.5763,4.13-13.5777c1.5573-8.7042-2.4778-11.9866-4.6448-12.843-2.1669-.8594-7.3084-.6552-6.5769,7.3816.7619,8.3629-11.7185,23.7508-11.7185,23.7508-4.8306,3.3372-9.0426,10.6579-6.8421,21.4254a19.9614,19.9614,0,0,0,23.7752,15.4732l18.0424-3.6846c10.9291-2.2309,12.7425-11.8343,10.5086-22.76" transform="translate(-81.6672 97.0013)"/><path class="j" d="M650.0922,410.4005s20.1331,17.1312,73.9466,73.9132c0,0,33.3725-52.6614,47.5382-76.2659,0,0,25.0644,4.4131,30.6875,20.5172,0,0-15.6409,58.0528-45.7858,94.6923,0,0-34.5062,47.2518-104.2288-36.6395,0,0-5.1445-45.0544-2.1577-76.2173" transform="translate(-81.6672 97.0013)"/><path class="al" d="M524.3146,1101.6056H462.2113s-3.6481-16.5216,9.3108-38.3128l41.8451.5273s12.0354,17.0855,10.9474,37.7855" transform="translate(-81.6672 97.0013)"/></g><rect class="am" x="381.204" y="1198.6075" width="62.1033" height="9.8045"/><g class="b"><path class="an" d="M469.8382,1084.3135c0,4.2485,10.49,7.6955,23.4248,7.6955,12.9375,0,23.4246-3.447,23.4246-7.6955s-10.4871-7.6924-23.4246-7.6924c-12.9346,0-23.4248,3.4439-23.4248,7.6924" transform="translate(-81.6672 97.0013)"/><path class="al" d="M586.1454,1059.49s-4.8124,24.6834-1.1825,42.1163H701.9066s3.9956-25.3783-46.8494-25.32l-32.6166-22.0471Z" transform="translate(-81.6672 97.0013)"/><path class="am" d="M585.9878,1111.411h38.4286l.4755-6.775a113.3655,113.3655,0,0,0,38.5139,6.5709c10.7828,0,39.16.4144,39.16.4144v-10.0148H585.9878Z" transform="translate(-81.6672 97.0013)"/><path class="an" d="M658.3414,1076.4257s1.7189,18.0181,42.0737,17.1647c0,0-5.5591-16.4028-42.0737-17.1647" transform="translate(-81.6672 97.0013)"/><path class="i" d="M644.1625,638.5565l2.1791,424.7384s-31.7785,15.9639-61.74,3.5018L573.1538,728.69l-8.8475-.4145-43.2592,338.5673s-22.8822,10.2739-56.6569-2.1791l34.2867-426.1068Z" transform="translate(-81.6672 97.0013)"/><path class="g" d="M645.5023,907.2819l.8381,156.1191s-31.7754,15.9091-61.7375,3.447l-7.0737-208.8567c16.7715,66.7114,53.2131,56.6173,67.9731,49.2906" transform="translate(-81.6672 97.0013)"/><path class="g" d="M479.7217,882.5616c22.4433,60.86,52.1311,21.8064,64.8675.04l-23.5436,184.25s-22.8792,10.3713-56.654-2.0816Z" transform="translate(-81.6672 97.0013)"/><path class="al" d="M645.9119,641.2062s-53.2161,15.5251-148.2773,0l-.6095,18.75s78.0671,14.4523,148.8868.2256Z" transform="translate(-81.6672 97.0013)"/></g><rect class="ao" x="479.2611" y="744.2759" width="27.2374" height="20.7"/><rect class="ap" x="606.21" y="645.5619" width="6.5378" height="21.7915" transform="translate(-110.4281 124.928) rotate(-2.5644)"/><rect class="ap" x="522.3154" y="652.1004" width="21.7915" height="6.5374" transform="translate(-238.8262 1239.4145) rotate(-86.0703)"/><g class="b"><path class="k" d="M472.0174,412.7265a329.7742,329.7742,0,0,1,55.3281-17.3719c33.08-5.745,42.9088-4.7392,68.4364.5669,14.0988,2.2187,40.2573,7.9148,54.31,14.48,0,0,8.3934,37.2308.0579,230.8063,0,0-54.8162,19.2554-155.7991,0,0,0-1.1368-87.6979-14.2572-140.71,0,0-3.9254-54.4474-8.0764-87.7711" transform="translate(-81.6672 97.0013)"/><path class="h" d="M582.4915,384.6135l.7436,26.954L538.58,412.7957l-.9631-35.0669c18.7648,8.5092,37.27,7.8021,44.8746,6.8847" transform="translate(-81.6672 97.0013)"/><path class="m" d="M537.6166,377.73l-.7436-27.0149,44.655-1.2283.9631,35.128c-7.604.9143-26.11,1.6245-44.8745-6.8848" transform="translate(-81.6672 97.0013)"/><path class="n" d="M582.4915,384.6135s-1.9841,18.3929-16.2749,24.7231c0,0-26.5364-7.33-28.4107-24.7231L522.7685,396.39s9.7679,28.999,30.3857,36.6852L566.04,413.43l17.5152,16.2047s16.89-20.5019,15.5037-33.1713Z" transform="translate(-81.6672 97.0013)"/><path class="h" d="M476.2808,618.1244l9.7649-6.8482,7.348,1.5025c6.9366-2.237,9.9995-6.7994,13.4739-7.33,3.4744-.5271,8.8993-4.16,8.8993-4.16,3.1849,4.8459-3.0568,10.0362-3.0568,10.0362.4815-.0945.9661-.1951,1.4507-.2927,1.1886-.2407,2.3772-.4876,3.5689-.7192,1.5208-.3017,3.0355-.6309,4.5563-.92,1.469-.2834,2.9289-.6217,4.407-.8808a26.7009,26.7009,0,0,1,3.4409-.4784,14.9684,14.9684,0,0,1,3.55.4388c1.4752.2957,9.2468,3.06,10.5512,3.3586.61.1371,1.8683.4175,1.8683.4206a5.2162,5.2162,0,0,1-.061,4.4435c-1.3318,2.4139-4.855,2.3712-6.647,2.06a30.8856,30.8856,0,0,1-4.4344-1.3287A3.6556,3.6556,0,0,0,532.188,617a31.28,31.28,0,0,0-3.3311.7528q-3.63.8093-7.2475,1.661c-.5486.128-1.0972.2621-1.6458.3871,0,0,11.688,2.1425,15.33,3.17,2.7247.768,10.3958,8.1617,10.3958,8.1617,5.5438,5.2817-3.1422,7.3237-3.1422,7.3237a3.6214,3.6214,0,0,1,1.03,2.0877,2.2454,2.2454,0,0,1-.7985,1.4751,5.4873,5.4873,0,0,1-2.3467,1.2373,8.6007,8.6007,0,0,1-4.7758.28,11.2329,11.2329,0,0,1-1.3166-.454c-.4236-.1738-.8412-.3688-1.2556-.5731-.5273-.2559-1.0393-.5364-1.5544-.8228a41.87,41.87,0,0,1-4.6691-2.8923c-.18-.1341-.5912-.5882-.8137-.6l-9.0731-.5334c3.06,1.6732,6.2174,7.217,10.3592,9.7589A8.2268,8.2268,0,0,1,529.11,648.8a2.8263,2.8263,0,0,1,.9417,2.1212c-.1036.7894-.8351,1.0179-1.3807,1.2344a9.08,9.08,0,0,1-5.5011.2255,11.4323,11.4323,0,0,1-2.7917-1.082,12.6182,12.6182,0,0,1-1.8987-1.2465,7.2818,7.2818,0,0,1-.7833-.6735c-5.5072-6.1289-11.6544-9.2041-19.5206-5.1445-11.3405,5.8516-20.2337-11.0571-20.2337-11.0571Z" transform="translate(-81.6672 97.0013)"/><path class="k" d="M472.0174,412.7265s-21.02,1.341-77.1864,107.8921c0,0-23.2937,43.5945,78.4877,115.14,0,0,19.8406-5.9918,19.8406-27.8836l-50.3147-66.3609,37.2492-41.0161s11.67-60.5306-8.0764-87.7711" transform="translate(-81.6672 97.0013)"/><path class="p" d="M492.9174,256.7835c2.38-5.7205,4.3338-9.9445,5.7693-12.8765,3.0538-7.5918,17.951-23.2022,54.3163-39.602,52.567-23.7112,62.1033,11.8038,62.1033,11.8038a44.3946,44.3946,0,0,0-3.7213-12.5322c18.4356,12.3494,7.0829,82.0811,7.0829,82.0811-51.8416,35.588-110.501,22.8791-110.501,22.8791-2.8983-14.5559-6.3483-34.6617-8.4878-47.4589a47.2494,47.2494,0,0,0-6.5617,6.6013,100.171,100.171,0,0,1,4.2485-13.8945Z" transform="translate(-81.6672 97.0013)"/><path class="s" d="M536.64,228.5475c19.5419-14.34,46.054-23.7051,64.2062-28.9167a28.53,28.53,0,0,1,14.26,16.476,44.3928,44.3928,0,0,0-3.7212-12.5292c4.7544,3.1849,7.5217,10.1855,9.0212,18.8135-49.1962-6.5769-83.7664,6.1564-83.7664,6.1564" transform="translate(-81.6672 97.0013)"/><path class="s" d="M575.166,262.7763l38.9741-6.7171a64.7978,64.7978,0,0,1,7.3237,1.5482c-.9448,15.4427-2.9959,28.0481-2.9959,28.0481-51.8416,35.5912-110.501,22.8822-110.501,22.8822-2.5783-12.95-5.5925-30.282-7.735-42.96,8.4208-5.4828,30.4344-8.7012,30.4344-8.7012Z" transform="translate(-81.6672 97.0013)"/><path class="aq" d="M601.3041,249.8839s11.9836-47.7576-26.9052-50.2537c0,0,29.63,3.95,26.9052,50.2537" transform="translate(-81.6672 97.0013)"/><path class="aq" d="M590.0873,248.1591s-4.1267-34.8657-26.7346-43.0366c0,0,18.332,14.9825,26.7346,43.0366" transform="translate(-81.6672 97.0013)"/><path class="aq" d="M575.166,243.2563s-10.9962-28.0541-49.4034-19.612c0,0,30.983-2.7246,49.4034,19.612" transform="translate(-81.6672 97.0013)"/><path class="aq" d="M556.3247,245.49s-17.631-24.4365-52.7285-6.6989c0,0,29.3281-10.347,52.7285,6.6989" transform="translate(-81.6672 97.0013)"/><path class="h" d="M513.178,299.0944l7.0188,5.9187A83.4531,83.4531,0,0,0,523.848,294.16a223.4372,223.4372,0,0,0,6.8177-37.2858c46.3069-6.4428,83.4738-.8167,83.4738-.8167-.6887,7.1408,4.3278,29.5993,4.3278,29.5993.0335,19.1518.4327,51.674-12.7334,71.1-5.55,8.1953-12.5687,15.0741-24.3451,16.9148-51.2991,8.0338-64.4835-42.15-64.4835-42.15s-16.08,4.282-19.356-19.417c-2.7186-19.63,15.6287-13.0107,15.6287-13.0107" transform="translate(-81.6672 97.0013)"/><path class="m" d="M520.8045,325.6064c4.3582,12.7121,20.6086,44.0335,55.6634,42.1287,18.969-1.0333,28.5937-13.5471,34.9177-22.285a51.3364,51.3364,0,0,1-5.6535,11.307c-5.55,8.1953-12.5688,15.0741-24.3452,16.9149-51.2991,8.0337-64.48-42.15-64.48-42.15s-12.31,3.4348-17.756-12.2457c9.57,15.909,21.654,6.33,21.654,6.33" transform="translate(-81.6672 97.0013)"/><path class="ar" d="M590.297,305.2822c.0426,4.4131,2.7215,7.7808,5.9856,7.5187,3.2611-.2621,5.87-4.05,5.8273-8.4665-.0427-4.4131-2.7247-7.7808-5.9858-7.5187-3.2641.259-5.8729,4.0534-5.8271,8.4665" transform="translate(-81.6672 97.0013)"/><path class="ar" d="M545.4572,303.9784c.0426,4.4131,2.7215,7.7808,5.9826,7.5187,3.2641-.2621,5.876-4.0534,5.83-8.4665-.0427-4.4131-2.7247-7.7808-5.9857-7.5187-3.2611.259-5.873,4.0534-5.8272,8.4665" transform="translate(-81.6672 97.0013)"/><path class="as" d="M574.3977,330.3282c9.92,4.0108,15.2659-.6582,15.6652-5.3486a6.7338,6.7338,0,0,0-4.407-6.9214c-6.0467-2.359-10.3074-11.6515-10.347-11.7489-.0274,2.1364,2.1273,10.1671,9.7953,14.6289,1.655.9631,2.6881,1.9841,2.5632,3.4927-.2225,2.63-4.0261,6.5587-13.27,5.8973" transform="translate(-81.6672 97.0013)"/><path class="p" d="M610.4545,282.5112l.4328-2.9867a77.9818,77.9818,0,0,0-22.8975-1.8256l-.1067,4.6843c9.8411-1.4568,22.4129.1189,22.5714.128" transform="translate(-81.6672 97.0013)"/><path class="p" d="M537.6453,284.0776c8.0276-3.1146,22.91-3.6907,23.05-3.7242l-.9783-4.27c-.5852.1189-14.08.5882-23.0773,5.3915Z" transform="translate(-81.6672 97.0013)"/><path class="ah" d="M557.1525,337.228s18.6641,3.8127,36.027,0c0,0-3.0752,15.967-18.0151,15.9335-14.08-.0305-17.8474-12.8492-18.0119-15.9335" transform="translate(-81.6672 97.0013)"/><path class="ai" d="M575.564,344.8549c11.4808,0,14.8546-4.7635,16.2992-7.3571-13.474,2.6575-24.336,1.07-33.7961-.1006,1.024,2.8831,6.6714,7.4577,17.4969,7.4577" transform="translate(-81.6672 97.0013)"/></g><rect class="at" x="564.3989" y="171.4521" width="423.9308" height="54.3103"/><path class="ai" d="M685.1534,111.7021h-6.72l-2.0146-9.1664q-.144-.5754-.4533-2.2879t-.4533-2.8637q-.1152.9355-.3741,2.324t-.5108,2.5542q-.252,1.1655-2.0938,9.44h-6.72L660.6042,90.664h5.4826l2.288,10.5479q.777,3.4967,1.0648,5.5688.1869-1.4676.6691-3.986t.8994-4.173l1.8563-7.9577h5.2667l1.7987,7.9577q.4605,1.914.9354,4.4176t.6331,3.7414q.1869-1.5973,1.0217-5.54l2.3312-10.5766h5.4825Zm15.4385.2877a8.7516,8.7516,0,0,1-6.3244-2.1656,8.1547,8.1547,0,0,1-2.252-6.1661,8.8835,8.8835,0,0,1,2.0865-6.3387,7.8014,7.8014,0,0,1,5.9575-2.2089,7.9044,7.9044,0,0,1,5.6912,1.9211,7.3009,7.3009,0,0,1,2.0074,5.5329v2.5038H697.7a2.79,2.79,0,0,0,1,2.1442,3.918,3.918,0,0,0,2.5686.7769,12.4027,12.4027,0,0,0,2.7269-.2805,13.511,13.511,0,0,0,2.6981-.9569v4.0435a9.9224,9.9224,0,0,1-2.7341.9353A18.92,18.92,0,0,1,700.5919,111.99Zm-.331-13.0515a2.34,2.34,0,0,0-1.662.6259,2.9384,2.9384,0,0,0-.7843,1.9642h4.835a2.8051,2.8051,0,0,0-.6691-1.885A2.2091,2.2091,0,0,0,700.2609,98.9383Zm15.5937-8.2454.2159.3166a54.6368,54.6368,0,0,1-2.547,8.0727h-4q.9784-4.5615,1.41-8.3893Zm6.72,21.0092-6.2164-16.3037h5.871l2.7629,9.6412c.0094.0481.0288.1294.0575.2446s.0576.2519.0864.41.0551.3262.0791.5036a3.74,3.74,0,0,1,.036.4965h.1007a5.7738,5.7738,0,0,1,.2591-1.6261l2.8923-9.67H734.36l-6.2165,16.3037Zm21.6037.2877a8.7516,8.7516,0,0,1-6.3244-2.1656,8.1543,8.1543,0,0,1-2.252-6.1661,8.883,8.883,0,0,1,2.0865-6.3387,7.8014,7.8014,0,0,1,5.9575-2.2089,7.904,7.904,0,0,1,5.6911,1.9211,7.3006,7.3006,0,0,1,2.0074,5.5329v2.5038H741.286a2.79,2.79,0,0,0,1,2.1442,3.918,3.918,0,0,0,2.5686.7769,12.4027,12.4027,0,0,0,2.7269-.2805,13.511,13.511,0,0,0,2.6981-.9569v4.0435a9.9235,9.9235,0,0,1-2.7341.9353A18.92,18.92,0,0,1,744.1784,111.99Zm-.331-13.0515a2.34,2.34,0,0,0-1.662.6259,2.9384,2.9384,0,0,0-.7843,1.9642h4.835a2.8056,2.8056,0,0,0-.6691-1.885A2.2091,2.2091,0,0,0,743.8474,98.9383Zm33.5788-3.54v2.72l-2.2305.82a3.9571,3.9571,0,0,1,.4605,1.9426,4.9,4.9,0,0,1-1.8491,4.0867,8.8227,8.8227,0,0,1-5.5185,1.4534,7.0987,7.0987,0,0,1-1.439-.1151,1.4942,1.4942,0,0,0-.2014.7051q0,.4176.6763.64a5.7817,5.7817,0,0,0,1.77.223H771.8q5.4826,0,5.4826,4.6191a5.2336,5.2336,0,0,1-2.54,4.6336,13.0149,13.0149,0,0,1-7.13,1.6548,10.23,10.23,0,0,1-5.3459-1.1584,3.6932,3.6932,0,0,1-1.8778-3.3312q0-2.9214,3.6262-3.77a3.2676,3.2676,0,0,1-1.3023-1.0216,2.1865,2.1865,0,0,1-.1367-2.7414,6.1678,6.1678,0,0,1,1.7412-1.3886,4.3417,4.3417,0,0,1-1.993-1.7555,5.4916,5.4916,0,0,1-.7267-2.9067,5.0135,5.0135,0,0,1,1.8131-4.13,8.0485,8.0485,0,0,1,5.18-1.4678q.446,0,1.54.1007t1.6117.1872Zm-12.289,18.3327a1.2623,1.2623,0,0,0,.7483,1.1151,4.0493,4.0493,0,0,0,2,.4245,8.6918,8.6918,0,0,0,3.2737-.5108q1.23-.5109,1.23-1.3166a.9487.9487,0,0,0-.7483-.9138,6.6889,6.6889,0,0,0-2.144-.2662h-2.2017a2.6659,2.6659,0,0,0-1.5325.4245A1.2376,1.2376,0,0,0,765.1372,113.7311Zm3.5112-15.4979q-1.7414,0-1.7412,2.5038t1.7412,2.5038a1.436,1.436,0,0,0,1.2447-.6187,3.2135,3.2135,0,0,0,.4389-1.8564q0-2.5324-1.6836-2.5325Zm26.824,5.281a8.63,8.63,0,0,1-2.1513,6.238,7.96,7.96,0,0,1-6.0221,2.2376,7.8018,7.8018,0,0,1-5.9071-2.2879,9.9071,9.9071,0,0,1-.0431-12.3825,8.0382,8.0382,0,0,1,6.0365-2.2089,8.608,8.608,0,0,1,4.245,1.0217,6.977,6.977,0,0,1,2.842,2.9284A9.4563,9.4563,0,0,1,795.4724,103.5142Zm-10.5621,0a7.24,7.24,0,0,0,.5612,3.2018,1.95,1.95,0,0,0,1.885,1.1008,1.8951,1.8951,0,0,0,1.8491-1.1008,7.4941,7.4941,0,0,0,.54-3.2018,7.1184,7.1184,0,0,0-.5468-3.1514,2.1667,2.1667,0,0,0-3.7269-.0071A6.9486,6.9486,0,0,0,784.91,103.5142Zm20.2258,2.4464q0,1.583,1.5254,1.5828a8.3705,8.3705,0,0,0,2.72-.5612v4.1011a11.0572,11.0572,0,0,1-2.1657.6979,12.2628,12.2628,0,0,1-2.41.2086,5.2646,5.2646,0,0,1-4.0867-1.3886,6.2178,6.2178,0,0,1-1.2519-4.2666v-6.72h-1.9715v-2.288l2.5039-1.77,1.4533-3.4249h3.6838v3.2666h4v4.2162h-4v6.346Zm12.6478-10.5622h5.9287l2.7628,9.3534a9.1862,9.1862,0,0,1,.2734,1.77h.1152a9.7864,9.7864,0,0,1,.3453-1.7413l2.8348-9.3821h5.7416l-6.4467,17.34a10.1934,10.1934,0,0,1-3.0434,4.6768,7.6032,7.6032,0,0,1-4.7127,1.367,11.3393,11.3393,0,0,1-2.3024-.2446V114.12a7.9241,7.9241,0,0,0,1.7412.1727,2.8333,2.8333,0,0,0,1.3094-.2879,2.9833,2.9833,0,0,0,.9785-.813,7.1462,7.1462,0,0,0,.8922-1.7195Zm35.5183,8.1158a8.6308,8.6308,0,0,1-2.1512,6.238,7.9607,7.9607,0,0,1-6.0222,2.2376,7.8018,7.8018,0,0,1-5.9071-2.2879,9.9071,9.9071,0,0,1-.0431-12.3825,8.0382,8.0382,0,0,1,6.0365-2.2089,8.6077,8.6077,0,0,1,4.245,1.0217,6.977,6.977,0,0,1,2.842,2.9284A9.4563,9.4563,0,0,1,853.3022,103.5142Zm-10.5621,0a7.24,7.24,0,0,0,.5612,3.2018,1.95,1.95,0,0,0,1.885,1.1008,1.8953,1.8953,0,0,0,1.8492-1.1008,7.4958,7.4958,0,0,0,.54-3.2018,7.1184,7.1184,0,0,0-.5468-3.1514,2.1667,2.1667,0,0,0-3.7269-.0071A6.9486,6.9486,0,0,0,842.74,103.5142Zm25.3775,8.1879-.7052-2.029h-.3309a4.5788,4.5788,0,0,1-1.9642,1.72,6.8408,6.8408,0,0,1-2.9572.5971,5.5256,5.5256,0,0,1-4.1875-1.5612,6.1175,6.1175,0,0,1-1.4965-4.41v-10.62h5.6264v8.9072a5.1166,5.1166,0,0,0,.4533,2.4176,1.57,1.57,0,0,0,1.4893.82,2.1674,2.1674,0,0,0,2.0722-1.144,8.7078,8.7078,0,0,0,.6187-3.8637V95.3984h5.6265v16.3037Zm17.9751-16.5916a8.1446,8.1446,0,0,1,1.3958.1152l.3166.0575-.5036,5.31a8.2791,8.2791,0,0,0-1.9139-.1727,3.6465,3.6465,0,0,0-2.6765.8418,3.2991,3.2991,0,0,0-.8346,2.4248v8.0151H876.25V95.3984h4.1874l.8777,2.6045h.2735a5.6323,5.6323,0,0,1,1.9642-2.0937A4.7012,4.7012,0,0,1,886.0927,95.1105Zm21.46,0a4.8986,4.8986,0,0,1,4.2235,2.23,10.6272,10.6272,0,0,1,1.5613,6.1732,10.7141,10.7141,0,0,1-1.5756,6.2236,5.0507,5.0507,0,0,1-4.3818,2.252,6.08,6.08,0,0,1-1.6116-.1942,4.7479,4.7479,0,0,1-1.2592-.54,6.593,6.593,0,0,1-1.2879-1.1512h-.3453l-.8922,1.5973h-4.3889V89.3114h5.6264v5.0653q0,.9064-.2014,3.1226h.2014a4.7956,4.7956,0,0,1,4.3313-2.3888Zm.0576,8.3462q0-3.9285-2.1153-3.9285a1.926,1.926,0,0,0-1.7268.82,4.7386,4.7386,0,0,0-.5468,2.5758v.7914a5.6327,5.6327,0,0,0,.5468,2.8708,1.9454,1.9454,0,0,0,1.7844.8706,1.66,1.66,0,0,0,1.5253-1.0145,6.6056,6.6056,0,0,0,.5324-2.9859Zm19.5684,8.2454L926.1,109.5436h-.115a6.4107,6.4107,0,0,1-2.3168,1.9283,7.6545,7.6545,0,0,1-3.0507.5179,4.7851,4.7851,0,0,1-3.6262-1.3813,5.3882,5.3882,0,0,1-1.3239-3.8853,4.42,4.42,0,0,1,1.8131-3.8781,9.9135,9.9135,0,0,1,5.2523-1.4317l2.72-.0865v-.23a1.768,1.768,0,0,0-1.9857-2.0145,11.8759,11.8759,0,0,0-4.5329,1.2087l-1.6261-3.7126a15.64,15.64,0,0,1,7.195-1.4678,6.991,6.991,0,0,1,4.8565,1.5542,5.5586,5.5586,0,0,1,1.72,4.3457v10.6917Zm-5.77-5.18q0,1.4967,1.5973,1.4965a2.5383,2.5383,0,0,0,1.7484-.6475,2.15,2.15,0,0,0,.7266-1.6837v-1.2663l-1.2951.0576q-2.7772.1008-2.7772,2.0434Zm26.145,4.0291A9.2442,9.2442,0,0,1,942.33,111.99q-4.0007,0-6.0653-2.1584a8.6226,8.6226,0,0,1-2.0649-6.202,7.7656,7.7656,0,0,1,8.5763-8.5189,11.8889,11.8889,0,0,1,5.3386,1.2376l-1.6548,4.1587a18.1316,18.1316,0,0,0-1.8851-.7124,6.0757,6.0757,0,0,0-1.7987-.2662,2.434,2.434,0,0,0-2.1153,1.0649,5.1784,5.1784,0,0,0-.7483,3.0074q0,3.9144,2.8924,3.9141a8.75,8.75,0,0,0,4.7486-1.439v4.4753Zm8.69-8.0152a29.2877,29.2877,0,0,1,1.7411-2.5325l3.6551-4.6048h6.274l-5.6552,6.9358,6.015,9.3679h-6.4323l-3.5688-5.8423-1.8274,1.3958v4.4465H950.79V89.3114h5.6552V98.118a30.4418,30.4418,0,0,1-.3166,4.4177Zm29.5369.9785a8.63,8.63,0,0,1-2.1513,6.238,7.96,7.96,0,0,1-6.0221,2.2376,7.8014,7.8014,0,0,1-5.907-2.2879,9.9073,9.9073,0,0,1-.0432-12.3825,8.0386,8.0386,0,0,1,6.0365-2.2089,8.6077,8.6077,0,0,1,4.245,1.0217,6.9772,6.9772,0,0,1,2.8421,2.9284A9.4575,9.4575,0,0,1,985.78,103.5142Zm-10.5622,0a7.2408,7.2408,0,0,0,.5613,3.2018,1.95,1.95,0,0,0,1.8851,1.1008,1.8953,1.8953,0,0,0,1.8491-1.1008,7.4956,7.4956,0,0,0,.54-3.2018,7.12,7.12,0,0,0-.5468-3.1514,2.1668,2.1668,0,0,0-3.727-.0071A6.95,6.95,0,0,0,975.2181,103.5142Zm23.7227-3.9h-3.4679v12.0875h-5.6265V99.6146h-2.1585V96.8517l2.2736-1.3814v-.2734q0-3.2233,1.3168-4.6336a5.5442,5.5442,0,0,1,4.2234-1.41,12.4743,12.4743,0,0,1,2.1225.1727,16.9811,16.9811,0,0,1,2.324.6044l-1.2089,3.6406a7.5659,7.5659,0,0,0-2.0289-.2877,1.0985,1.0985,0,0,0-.9425.3956,2.1887,2.1887,0,0,0-.295,1.2879v.4318h3.4679Zm12.1739,0h-3.468v12.0875H1002.02V99.6146h-2.1585V96.8517l2.2736-1.3814v-.2734q0-3.2233,1.3167-4.6336a5.5442,5.5442,0,0,1,4.2234-1.41,12.4743,12.4743,0,0,1,2.1225.1727,16.9737,16.9737,0,0,1,2.324.6044l-1.2087,3.6406a7.5683,7.5683,0,0,0-2.029-.2877,1.0986,1.0986,0,0,0-.9426.3956,2.1887,2.1887,0,0,0-.295,1.2879v.4318h3.468Zm5.08-5.7991q-2.9787,0-2.9787-2.4751a2.3769,2.3769,0,0,1,.7051-1.8851,4.4687,4.4687,0,0,1,4.5616.0144,2.36,2.36,0,0,1,.7194,1.8707q0,2.4751-3.0074,2.4751Zm2.7917,17.8866H1013.36V95.3984h5.6265Zm16.5662-1.1512a9.2441,9.2441,0,0,1-5.2234,1.4389q-4.0008,0-6.0654-2.1584a8.623,8.623,0,0,1-2.0649-6.202,7.7656,7.7656,0,0,1,8.5763-8.5189,11.8889,11.8889,0,0,1,5.3386,1.2376l-1.6548,4.1587a18.1231,18.1231,0,0,0-1.8851-.7124,6.0752,6.0752,0,0,0-1.7987-.2662,2.434,2.434,0,0,0-2.1153,1.0649,5.1784,5.1784,0,0,0-.7483,3.0074q0,3.9144,2.8924,3.9141a8.75,8.75,0,0,0,4.7486-1.439v4.4753Zm11.1072,1.4389a8.7518,8.7518,0,0,1-6.3244-2.1656,8.1546,8.1546,0,0,1-2.2519-6.1661,8.883,8.883,0,0,1,2.0865-6.3387,7.801,7.801,0,0,1,5.9574-2.2089,7.9044,7.9044,0,0,1,5.6912,1.9211,7.3006,7.3006,0,0,1,2.0074,5.5329v2.5038H1043.767a2.79,2.79,0,0,0,1,2.1442,3.9177,3.9177,0,0,0,2.5685.7769,12.4027,12.4027,0,0,0,2.7269-.2805,13.5066,13.5066,0,0,0,2.6981-.9569v4.0435a9.9224,9.9224,0,0,1-2.7341.9353A18.9194,18.9194,0,0,1,1046.6594,111.99Zm-.331-13.0515a2.34,2.34,0,0,0-1.662.6259,2.9384,2.9384,0,0,0-.7842,1.9642h4.835a2.8057,2.8057,0,0,0-.6692-1.885A2.2091,2.2091,0,0,0,1046.3284,98.9383Z" transform="translate(-81.6672 97.0013)"/><g class="b"><path class="au" d="M850.1386,151.5433s-36.5726,86.543,42.6679,103.6223" transform="translate(-81.6672 97.0013)"/></g></svg>